<?xml version="1.0" encoding="utf-8"?>
<!-- Generator: Adobe Illustrator 23.0.3, SVG Export Plug-In . SVG Version: 6.00 Build 0)  -->
<svg version="1.1" id="Layer_1" xmlns="http://www.w3.org/2000/svg" xmlns:xlink="http://www.w3.org/1999/xlink" x="0px" y="0px"
	 width="62.5px" height="18.5px" viewBox="0 0 62.5 18.5" style="enable-background:new 0 0 62.5 18.5;" xml:space="preserve">
<style type="text/css">
	.st0{enable-background:new    ;}
	.st1{fill:#FFFFFF;}
</style>
<g class="st0">
	<path class="st1" d="M16,18.2h-4.1l-4-6.5l-4,6.5H0l5.7-8.8L0.4,1.1h4l3.7,6.2l3.6-6.2h3.9l-5.4,8.5L16,18.2z"/>
	<path class="st1" d="M21.6,15.6c0.6,0,1.4-0.1,2.2-0.4v2.7c-0.9,0.4-2,0.6-3.3,0.6c-1.4,0-2.5-0.4-3.1-1.1s-1-1.8-1-3.3V7.8h-1.7
		V6.3l2-1.2l1-2.8H20v2.8h3.7v2.7H20v6.3c0,0.5,0.1,0.9,0.4,1.1S21.1,15.6,21.6,15.6z"/>
	<path class="st1" d="M30.6,18.5c-2.1,0-3.8-0.6-4.9-1.7s-1.8-2.8-1.8-4.9c0-2.2,0.5-3.9,1.6-5.1s2.6-1.8,4.6-1.8
		c1.9,0,3.3,0.5,4.3,1.6S36,9,36,10.8v1.7h-8.4c0,1,0.3,1.8,0.9,2.4s1.4,0.9,2.4,0.9c0.8,0,1.5-0.1,2.2-0.2c0.7-0.2,1.4-0.4,2.2-0.8
		v2.8c-0.6,0.3-1.3,0.5-2,0.7C32.5,18.4,31.7,18.5,30.6,18.5z M30.1,7.4c-0.8,0-1.4,0.2-1.8,0.7s-0.7,1.2-0.7,2h5
		c0-0.9-0.2-1.6-0.7-2S30.9,7.4,30.1,7.4z"/>
	<path class="st1" d="M49.2,18.2h-3.6v-7.7c0-0.9-0.2-1.7-0.5-2.1s-0.9-0.7-1.6-0.7c-1,0-1.7,0.3-2.2,1s-0.7,1.8-0.7,3.3v6.2h-3.6
		V5.1h2.7l0.5,1.7h0.2c0.4-0.6,0.9-1.1,1.6-1.4s1.5-0.5,2.4-0.5c1.5,0,2.7,0.4,3.5,1.2s1.2,2,1.2,3.6V18.2z"/>
	<path class="st1" d="M55.2,18.5c-1.5,0-2.7-0.6-3.6-1.8s-1.3-2.9-1.3-5c0-2.1,0.4-3.8,1.3-5s2.1-1.8,3.7-1.8c1.6,0,2.9,0.6,3.8,1.9
		h0.1c-0.2-1-0.3-1.8-0.3-2.6V0h3.6v18.2h-2.7l-0.7-1.7h-0.2C58.1,17.8,56.9,18.5,55.2,18.5z M56.5,15.6c0.9,0,1.6-0.3,2-0.8
		s0.7-1.4,0.7-2.7v-0.4c0-1.4-0.2-2.4-0.7-3s-1.1-0.9-2.1-0.9c-0.8,0-1.4,0.3-1.9,1s-0.7,1.7-0.7,2.9s0.2,2.3,0.7,2.9
		S55.6,15.6,56.5,15.6z"/>
</g>
</svg>
