<?xml version="1.0" encoding="utf-8"?>
<!-- Generator: Adobe Illustrator 24.2.0, SVG Export Plug-In . SVG Version: 6.00 Build 0)  -->
<svg version="1.1" id="Layer_1" xmlns="http://www.w3.org/2000/svg" xmlns:xlink="http://www.w3.org/1999/xlink" x="0px" y="0px"
	 viewBox="0 0 2400 1200" style="enable-background:new 0 0 2400 1200;" xml:space="preserve">
<style type="text/css">
	.st0{fill:#777777;}
	.st1{fill:#7E7E7E;}
	.st2{fill:#FFFFFF;}
	.st3{opacity:0.6;}
</style>
<polygon class="st0" points="1200,0 0,0 0,1200 1200,1200 2400,1200 2400,0 "/>
<g>
	<polygon class="st1" points="2360,60 2340,80 2320,100 2300,120 2280,140 2260,160 2240,180 2220,200 2200,220 2180,240 2160,260 
		2140,280 2120,300 2100,320 2080,340 2060,360 2040,380 2020,400 2000,420 1980,440 1960,460 1940,480 1920,500 1900,520 1880,540 
		1860,560 1840,580 1820,600 1800,620 1780,640 1760,660 1740,680 1720,700 1700,720 1680,740 1660,760 1640,780 1620,800 1600,820 
		1580,840 1560,860 1540,880 1520,900 1500,920 1480,940 1460,960 1440,980 1420,1000 1400,1020 1380,1040 1360,1060 1340,1080 
		1320,1100 1300,1120 1280,1140 1260,1160 1240,1180 1220,1200 1240,1200 1280,1160 1320,1120 1360,1080 1400,1040 1440,1000 
		1480,960 1520,920 1560,880 1600,840 1640,800 1680,760 1720,720 1760,680 1800,640 1840,600 1880,560 1920,520 1960,480 2000,440 
		2040,400 2080,360 2120,320 2160,280 2200,240 2240,200 2280,160 2320,120 2360,80 2400,40 2400,20 2380,40 	"/>
	<polygon class="st1" points="2360,100 2340,120 2320,140 2300,160 2280,180 2260,200 2240,220 2220,240 2200,260 2180,280 
		2160,300 2140,320 2120,340 2100,360 2080,380 2060,400 2040,420 2020,440 2000,460 1980,480 1960,500 1940,520 1920,540 1900,560 
		1880,580 1860,600 1840,620 1820,640 1800,660 1780,680 1760,700 1740,720 1720,740 1700,760 1680,780 1660,800 1640,820 1620,840 
		1600,860 1580,880 1560,900 1540,920 1520,940 1500,960 1480,980 1460,1000 1440,1020 1420,1040 1400,1060 1380,1080 1360,1100 
		1340,1120 1320,1140 1300,1160 1280,1180 1260,1200 1280,1200 1320,1160 1360,1120 1400,1080 1440,1040 1480,1000 1520,960 
		1560,920 1600,880 1640,840 1680,800 1720,760 1760,720 1800,680 1840,640 1880,600 1920,560 1960,520 2000,480 2040,440 2080,400 
		2120,360 2160,320 2200,280 2240,240 2280,200 2320,160 2360,120 2400,80 2400,60 2380,80 	"/>
	<polygon class="st1" points="2360,140 2340,160 2320,180 2300,200 2280,220 2260,240 2240,260 2220,280 2200,300 2180,320 
		2160,340 2140,360 2120,380 2100,400 2080,420 2060,440 2040,460 2020,480 2000,500 1980,520 1960,540 1940,560 1920,580 1900,600 
		1880,620 1860,640 1840,660 1820,680 1800,700 1780,720 1760,740 1740,760 1720,780 1700,800 1680,820 1660,840 1640,860 1620,880 
		1600,900 1580,920 1560,940 1540,960 1520,980 1500,1000 1480,1020 1460,1040 1440,1060 1420,1080 1400,1100 1380,1120 1360,1140 
		1340,1160 1320,1180 1300,1200 1320,1200 1360,1160 1400,1120 1440,1080 1480,1040 1520,1000 1560,960 1600,920 1640,880 1680,840 
		1720,800 1760,760 1800,720 1840,680 1880,640 1920,600 1960,560 2000,520 2040,480 2080,440 2120,400 2160,360 2200,320 2240,280 
		2280,240 2320,200 2360,160 2400,120 2400,100 2380,120 	"/>
	<polygon class="st1" points="2360,180 2340,200 2320,220 2300,240 2280,260 2260,280 2240,300 2220,320 2200,340 2180,360 
		2160,380 2140,400 2120,420 2100,440 2080,460 2060,480 2040,500 2020,520 2000,540 1980,560 1960,580 1940,600 1920,620 1900,640 
		1880,660 1860,680 1840,700 1820,720 1800,740 1780,760 1760,780 1740,800 1720,820 1700,840 1680,860 1660,880 1640,900 1620,920 
		1600,940 1580,960 1560,980 1540,1000 1520,1020 1500,1040 1480,1060 1460,1080 1440,1100 1420,1120 1400,1140 1380,1160 
		1360,1180 1340,1200 1360,1200 1400,1160 1440,1120 1480,1080 1520,1040 1560,1000 1600,960 1640,920 1680,880 1720,840 1760,800 
		1800,760 1840,720 1880,680 1920,640 1960,600 2000,560 2040,520 2080,480 2120,440 2160,400 2200,360 2240,320 2280,280 2320,240 
		2360,200 2400,160 2400,140 2380,160 	"/>
	<polygon class="st1" points="2360,220 2340,240 2320,260 2300,280 2280,300 2260,320 2240,340 2220,360 2200,380 2180,400 
		2160,420 2140,440 2120,460 2100,480 2080,500 2060,520 2040,540 2020,560 2000,580 1980,600 1960,620 1940,640 1920,660 1900,680 
		1880,700 1860,720 1840,740 1820,760 1800,780 1780,800 1760,820 1740,840 1720,860 1700,880 1680,900 1660,920 1640,940 1620,960 
		1600,980 1580,1000 1560,1020 1540,1040 1520,1060 1500,1080 1480,1100 1460,1120 1440,1140 1420,1160 1400,1180 1380,1200 
		1400,1200 1440,1160 1480,1120 1520,1080 1560,1040 1600,1000 1640,960 1680,920 1720,880 1760,840 1800,800 1840,760 1880,720 
		1920,680 1960,640 2000,600 2040,560 2080,520 2120,480 2160,440 2200,400 2240,360 2280,320 2320,280 2360,240 2400,200 2400,180 
		2380,200 	"/>
	<polygon class="st1" points="2360,260 2340,280 2320,300 2300,320 2280,340 2260,360 2240,380 2220,400 2200,420 2180,440 
		2160,460 2140,480 2120,500 2100,520 2080,540 2060,560 2040,580 2020,600 2000,620 1980,640 1960,660 1940,680 1920,700 1900,720 
		1880,740 1860,760 1840,780 1820,800 1800,820 1780,840 1760,860 1740,880 1720,900 1700,920 1680,940 1660,960 1640,980 
		1620,1000 1600,1020 1580,1040 1560,1060 1540,1080 1520,1100 1500,1120 1480,1140 1460,1160 1440,1180 1420,1200 1440,1200 
		1480,1160 1520,1120 1560,1080 1600,1040 1640,1000 1680,960 1720,920 1760,880 1800,840 1840,800 1880,760 1920,720 1960,680 
		2000,640 2040,600 2080,560 2120,520 2160,480 2200,440 2240,400 2280,360 2320,320 2360,280 2400,240 2400,220 2380,240 	"/>
	<polygon class="st1" points="2360,300 2340,320 2320,340 2300,360 2280,380 2260,400 2240,420 2220,440 2200,460 2180,480 
		2160,500 2140,520 2120,540 2100,560 2080,580 2060,600 2040,620 2020,640 2000,660 1980,680 1960,700 1940,720 1920,740 1900,760 
		1880,780 1860,800 1840,820 1820,840 1800,860 1780,880 1760,900 1740,920 1720,940 1700,960 1680,980 1660,1000 1640,1020 
		1620,1040 1600,1060 1580,1080 1560,1100 1540,1120 1520,1140 1500,1160 1480,1180 1460,1200 1480,1200 1520,1160 1560,1120 
		1600,1080 1640,1040 1680,1000 1720,960 1760,920 1800,880 1840,840 1880,800 1920,760 1960,720 2000,680 2040,640 2080,600 
		2120,560 2160,520 2200,480 2240,440 2280,400 2320,360 2360,320 2400,280 2400,260 2380,280 	"/>
	<polygon class="st1" points="2360,340 2340,360 2320,380 2300,400 2280,420 2260,440 2240,460 2220,480 2200,500 2180,520 
		2160,540 2140,560 2120,580 2100,600 2080,620 2060,640 2040,660 2020,680 2000,700 1980,720 1960,740 1940,760 1920,780 1900,800 
		1880,820 1860,840 1840,860 1820,880 1800,900 1780,920 1760,940 1740,960 1720,980 1700,1000 1680,1020 1660,1040 1640,1060 
		1620,1080 1600,1100 1580,1120 1560,1140 1540,1160 1520,1180 1500,1200 1520,1200 1560,1160 1600,1120 1640,1080 1680,1040 
		1720,1000 1760,960 1800,920 1840,880 1880,840 1920,800 1960,760 2000,720 2040,680 2080,640 2120,600 2160,560 2200,520 
		2240,480 2280,440 2320,400 2360,360 2400,320 2400,300 2380,320 	"/>
	<polygon class="st1" points="2360,380 2340,400 2320,420 2300,440 2280,460 2260,480 2240,500 2220,520 2200,540 2180,560 
		2160,580 2140,600 2120,620 2100,640 2080,660 2060,680 2040,700 2020,720 2000,740 1980,760 1960,780 1940,800 1920,820 1900,840 
		1880,860 1860,880 1840,900 1820,920 1800,940 1780,960 1760,980 1740,1000 1720,1020 1700,1040 1680,1060 1660,1080 1640,1100 
		1620,1120 1600,1140 1580,1160 1560,1180 1540,1200 1560,1200 1600,1160 1640,1120 1680,1080 1720,1040 1760,1000 1800,960 
		1840,920 1880,880 1920,840 1960,800 2000,760 2040,720 2080,680 2120,640 2160,600 2200,560 2240,520 2280,480 2320,440 2360,400 
		2400,360 2400,340 2380,360 	"/>
	<polygon class="st1" points="2360,420 2340,440 2320,460 2300,480 2280,500 2260,520 2240,540 2220,560 2200,580 2180,600 
		2160,620 2140,640 2120,660 2100,680 2080,700 2060,720 2040,740 2020,760 2000,780 1980,800 1960,820 1940,840 1920,860 1900,880 
		1880,900 1860,920 1840,940 1820,960 1800,980 1780,1000 1760,1020 1740,1040 1720,1060 1700,1080 1680,1100 1660,1120 1640,1140 
		1620,1160 1600,1180 1580,1200 1600,1200 1640,1160 1680,1120 1720,1080 1760,1040 1800,1000 1840,960 1880,920 1920,880 1960,840 
		2000,800 2040,760 2080,720 2120,680 2160,640 2200,600 2240,560 2280,520 2320,480 2360,440 2400,400 2400,380 2380,400 	"/>
	<polygon class="st1" points="2360,460 2340,480 2320,500 2300,520 2280,540 2260,560 2240,580 2220,600 2200,620 2180,640 
		2160,660 2140,680 2120,700 2100,720 2080,740 2060,760 2040,780 2020,800 2000,820 1980,840 1960,860 1940,880 1920,900 1900,920 
		1880,940 1860,960 1840,980 1820,1000 1800,1020 1780,1040 1760,1060 1740,1080 1720,1100 1700,1120 1680,1140 1660,1160 
		1640,1180 1620,1200 1640,1200 1680,1160 1720,1120 1760,1080 1800,1040 1840,1000 1880,960 1920,920 1960,880 2000,840 2040,800 
		2080,760 2120,720 2160,680 2200,640 2240,600 2280,560 2320,520 2360,480 2400,440 2400,420 2380,440 	"/>
	<polygon class="st1" points="2360,500 2340,520 2320,540 2300,560 2280,580 2260,600 2240,620 2220,640 2200,660 2180,680 
		2160,700 2140,720 2120,740 2100,760 2080,780 2060,800 2040,820 2020,840 2000,860 1980,880 1960,900 1940,920 1920,940 1900,960 
		1880,980 1860,1000 1840,1020 1820,1040 1800,1060 1780,1080 1760,1100 1740,1120 1720,1140 1700,1160 1680,1180 1660,1200 
		1680,1200 1720,1160 1760,1120 1800,1080 1840,1040 1880,1000 1920,960 1960,920 2000,880 2040,840 2080,800 2120,760 2160,720 
		2200,680 2240,640 2280,600 2320,560 2360,520 2400,480 2400,460 2380,480 	"/>
	<polygon class="st1" points="2360,540 2340,560 2320,580 2300,600 2280,620 2260,640 2240,660 2220,680 2200,700 2180,720 
		2160,740 2140,760 2120,780 2100,800 2080,820 2060,840 2040,860 2020,880 2000,900 1980,920 1960,940 1940,960 1920,980 
		1900,1000 1880,1020 1860,1040 1840,1060 1820,1080 1800,1100 1780,1120 1760,1140 1740,1160 1720,1180 1700,1200 1720,1200 
		1760,1160 1800,1120 1840,1080 1880,1040 1920,1000 1960,960 2000,920 2040,880 2080,840 2120,800 2160,760 2200,720 2240,680 
		2280,640 2320,600 2360,560 2400,520 2400,500 2380,520 	"/>
	<polygon class="st1" points="2360,580 2340,600 2320,620 2300,640 2280,660 2260,680 2240,700 2220,720 2200,740 2180,760 
		2160,780 2140,800 2120,820 2100,840 2080,860 2060,880 2040,900 2020,920 2000,940 1980,960 1960,980 1940,1000 1920,1020 
		1900,1040 1880,1060 1860,1080 1840,1100 1820,1120 1800,1140 1780,1160 1760,1180 1740,1200 1760,1200 1800,1160 1840,1120 
		1880,1080 1920,1040 1960,1000 2000,960 2040,920 2080,880 2120,840 2160,800 2200,760 2240,720 2280,680 2320,640 2360,600 
		2400,560 2400,540 2380,560 	"/>
	<polygon class="st1" points="2360,620 2340,640 2320,660 2300,680 2280,700 2260,720 2240,740 2220,760 2200,780 2180,800 
		2160,820 2140,840 2120,860 2100,880 2080,900 2060,920 2040,940 2020,960 2000,980 1980,1000 1960,1020 1940,1040 1920,1060 
		1900,1080 1880,1100 1860,1120 1840,1140 1820,1160 1800,1180 1780,1200 1800,1200 1840,1160 1880,1120 1920,1080 1960,1040 
		2000,1000 2040,960 2080,920 2120,880 2160,840 2200,800 2240,760 2280,720 2320,680 2360,640 2400,600 2400,580 2380,600 	"/>
	<polygon class="st1" points="2360,660 2340,680 2320,700 2300,720 2280,740 2260,760 2240,780 2220,800 2200,820 2180,840 
		2160,860 2140,880 2120,900 2100,920 2080,940 2060,960 2040,980 2020,1000 2000,1020 1980,1040 1960,1060 1940,1080 1920,1100 
		1900,1120 1880,1140 1860,1160 1840,1180 1820,1200 1840,1200 1880,1160 1920,1120 1960,1080 2000,1040 2040,1000 2080,960 
		2120,920 2160,880 2200,840 2240,800 2280,760 2320,720 2360,680 2400,640 2400,620 2380,640 	"/>
	<polygon class="st1" points="2360,700 2340,720 2320,740 2300,760 2280,780 2260,800 2240,820 2220,840 2200,860 2180,880 
		2160,900 2140,920 2120,940 2100,960 2080,980 2060,1000 2040,1020 2020,1040 2000,1060 1980,1080 1960,1100 1940,1120 1920,1140 
		1900,1160 1880,1180 1860,1200 1880,1200 1920,1160 1960,1120 2000,1080 2040,1040 2080,1000 2120,960 2160,920 2200,880 2240,840 
		2280,800 2320,760 2360,720 2400,680 2400,660 2380,680 	"/>
	<polygon class="st1" points="2360,740 2340,760 2320,780 2300,800 2280,820 2260,840 2240,860 2220,880 2200,900 2180,920 
		2160,940 2140,960 2120,980 2100,1000 2080,1020 2060,1040 2040,1060 2020,1080 2000,1100 1980,1120 1960,1140 1940,1160 
		1920,1180 1900,1200 1920,1200 1960,1160 2000,1120 2040,1080 2080,1040 2120,1000 2160,960 2200,920 2240,880 2280,840 2320,800 
		2360,760 2400,720 2400,700 2380,720 	"/>
	<polygon class="st1" points="2360,780 2340,800 2320,820 2300,840 2280,860 2260,880 2240,900 2220,920 2200,940 2180,960 
		2160,980 2140,1000 2120,1020 2100,1040 2080,1060 2060,1080 2040,1100 2020,1120 2000,1140 1980,1160 1960,1180 1940,1200 
		1960,1200 2000,1160 2040,1120 2080,1080 2120,1040 2160,1000 2200,960 2240,920 2280,880 2320,840 2360,800 2400,760 2400,740 
		2380,760 	"/>
	<polygon class="st1" points="2360,820 2340,840 2320,860 2300,880 2280,900 2260,920 2240,940 2220,960 2200,980 2180,1000 
		2160,1020 2140,1040 2120,1060 2100,1080 2080,1100 2060,1120 2040,1140 2020,1160 2000,1180 1980,1200 2000,1200 2040,1160 
		2080,1120 2120,1080 2160,1040 2200,1000 2240,960 2280,920 2320,880 2360,840 2400,800 2400,780 2380,800 	"/>
	<polygon class="st1" points="2360,860 2340,880 2320,900 2300,920 2280,940 2260,960 2240,980 2220,1000 2200,1020 2180,1040 
		2160,1060 2140,1080 2120,1100 2100,1120 2080,1140 2060,1160 2040,1180 2020,1200 2040,1200 2080,1160 2120,1120 2160,1080 
		2200,1040 2240,1000 2280,960 2320,920 2360,880 2400,840 2400,820 2380,840 	"/>
	<polygon class="st1" points="2360,900 2340,920 2320,940 2300,960 2280,980 2260,1000 2240,1020 2220,1040 2200,1060 2180,1080 
		2160,1100 2140,1120 2120,1140 2100,1160 2080,1180 2060,1200 2080,1200 2120,1160 2160,1120 2200,1080 2240,1040 2280,1000 
		2320,960 2360,920 2400,880 2400,860 2380,880 	"/>
	<polygon class="st1" points="2360,940 2340,960 2320,980 2300,1000 2280,1020 2260,1040 2240,1060 2220,1080 2200,1100 2180,1120 
		2160,1140 2140,1160 2120,1180 2100,1200 2120,1200 2160,1160 2200,1120 2240,1080 2280,1040 2320,1000 2360,960 2400,920 
		2400,900 2380,920 	"/>
	<polygon class="st1" points="2360,980 2340,1000 2320,1020 2300,1040 2280,1060 2260,1080 2240,1100 2220,1120 2200,1140 
		2180,1160 2160,1180 2140,1200 2160,1200 2200,1160 2240,1120 2280,1080 2320,1040 2360,1000 2400,960 2400,940 2380,960 	"/>
	<polygon class="st1" points="2360,1020 2340,1040 2320,1060 2300,1080 2280,1100 2260,1120 2240,1140 2220,1160 2200,1180 
		2180,1200 2200,1200 2240,1160 2280,1120 2320,1080 2360,1040 2400,1000 2400,980 2380,1000 	"/>
	<polygon class="st1" points="2360,1060 2340,1080 2320,1100 2300,1120 2280,1140 2260,1160 2240,1180 2220,1200 2240,1200 
		2280,1160 2320,1120 2360,1080 2400,1040 2400,1020 2380,1040 	"/>
	<polygon class="st1" points="2360,1100 2340,1120 2320,1140 2300,1160 2280,1180 2260,1200 2280,1200 2320,1160 2360,1120 
		2400,1080 2400,1060 2380,1080 	"/>
	<polygon class="st1" points="2360,1140 2340,1160 2320,1180 2300,1200 2320,1200 2360,1160 2400,1120 2400,1100 2380,1120 	"/>
	<polygon class="st1" points="2360,1180 2340,1200 2360,1200 2400,1160 2400,1140 2380,1160 	"/>
	<polygon class="st1" points="2400,1200 2400,1180 2380,1200 	"/>
	<polygon class="st1" points="1240,1120 1280,1080 1320,1040 1360,1000 1400,960 1440,920 1480,880 1520,840 1560,800 1600,760 
		1640,720 1680,680 1720,640 1760,600 1800,560 1840,520 1880,480 1920,440 1960,400 2000,360 2040,320 2080,280 2120,240 2160,200 
		2200,160 2240,120 2280,80 2320,40 2360,0 2340,0 2320,20 2300,40 2280,60 2260,80 2240,100 2220,120 2200,140 2180,160 2160,180 
		2140,200 2120,220 2100,240 2080,260 2060,280 2040,300 2020,320 2000,340 1980,360 1960,380 1940,400 1920,420 1900,440 1880,460 
		1860,480 1840,500 1820,520 1800,540 1780,560 1760,580 1740,600 1720,620 1700,640 1680,660 1660,680 1640,700 1620,720 1600,740 
		1580,760 1560,780 1540,800 1520,820 1500,840 1480,860 1460,880 1440,900 1420,920 1400,940 1380,960 1360,980 1340,1000 
		1320,1020 1300,1040 1280,1060 1260,1080 1240,1100 1220,1120 1200,1140 1180,1160 1160,1180 1140,1200 1160,1200 1200,1160 	"/>
	<polygon class="st1" points="1280,1120 1320,1080 1360,1040 1400,1000 1440,960 1480,920 1520,880 1560,840 1600,800 1640,760 
		1680,720 1720,680 1760,640 1800,600 1840,560 1880,520 1920,480 1960,440 2000,400 2040,360 2080,320 2120,280 2160,240 2200,200 
		2240,160 2280,120 2320,80 2360,40 2400,0 2380,0 2360,20 2340,40 2320,60 2300,80 2280,100 2260,120 2240,140 2220,160 2200,180 
		2180,200 2160,220 2140,240 2120,260 2100,280 2080,300 2060,320 2040,340 2020,360 2000,380 1980,400 1960,420 1940,440 1920,460 
		1900,480 1880,500 1860,520 1840,540 1820,560 1800,580 1780,600 1760,620 1740,640 1720,660 1700,680 1680,700 1660,720 1640,740 
		1620,760 1600,780 1580,800 1560,820 1540,840 1520,860 1500,880 1480,900 1460,920 1440,940 1420,960 1400,980 1380,1000 
		1360,1020 1340,1040 1320,1060 1300,1080 1280,1100 1260,1120 1240,1140 1220,1160 1200,1180 1180,1200 1200,1200 1240,1160 	"/>
	<polygon class="st1" points="120,1120 160,1080 200,1040 240,1000 280,960 320,920 360,880 400,840 440,800 480,760 520,720 
		560,680 600,640 640,600 680,560 720,520 760,480 800,440 840,400 880,360 920,320 960,280 1000,240 1040,200 1080,160 1120,120 
		1160,80 1200,40 1240,0 1220,0 1200,20 1180,40 1160,60 1140,80 1120,100 1100,120 1080,140 1060,160 1040,180 1020,200 1000,220 
		980,240 960,260 940,280 920,300 900,320 880,340 860,360 840,380 820,400 800,420 780,440 760,460 740,480 720,500 700,520 
		680,540 660,560 640,580 620,600 600,620 580,640 560,660 540,680 520,700 500,720 480,740 460,760 440,780 420,800 400,820 
		380,840 360,860 340,880 320,900 300,920 280,940 260,960 240,980 220,1000 200,1020 180,1040 160,1060 140,1080 120,1100 
		100,1120 80,1140 60,1160 40,1180 20,1200 40,1200 80,1160 	"/>
	<polygon class="st1" points="160,1120 200,1080 240,1040 280,1000 320,960 360,920 400,880 440,840 480,800 520,760 560,720 
		600,680 640,640 680,600 720,560 760,520 800,480 840,440 880,400 920,360 960,320 1000,280 1040,240 1080,200 1120,160 1160,120 
		1200,80 1240,40 1280,0 1260,0 1240,20 1220,40 1200,60 1180,80 1160,100 1140,120 1120,140 1100,160 1080,180 1060,200 1040,220 
		1020,240 1000,260 980,280 960,300 940,320 920,340 900,360 880,380 860,400 840,420 820,440 800,460 780,480 760,500 740,520 
		720,540 700,560 680,580 660,600 640,620 620,640 600,660 580,680 560,700 540,720 520,740 500,760 480,780 460,800 440,820 
		420,840 400,860 380,880 360,900 340,920 320,940 300,960 280,980 260,1000 240,1020 220,1040 200,1060 180,1080 160,1100 
		140,1120 120,1140 100,1160 80,1180 60,1200 80,1200 120,1160 	"/>
	<polygon class="st1" points="200,1120 240,1080 280,1040 320,1000 360,960 400,920 440,880 480,840 520,800 560,760 600,720 
		640,680 680,640 720,600 760,560 800,520 840,480 880,440 920,400 960,360 1000,320 1040,280 1080,240 1120,200 1160,160 1200,120 
		1240,80 1280,40 1320,0 1300,0 1280,20 1260,40 1240,60 1220,80 1200,100 1180,120 1160,140 1140,160 1120,180 1100,200 1080,220 
		1060,240 1040,260 1020,280 1000,300 980,320 960,340 940,360 920,380 900,400 880,420 860,440 840,460 820,480 800,500 780,520 
		760,540 740,560 720,580 700,600 680,620 660,640 640,660 620,680 600,700 580,720 560,740 540,760 520,780 500,800 480,820 
		460,840 440,860 420,880 400,900 380,920 360,940 340,960 320,980 300,1000 280,1020 260,1040 240,1060 220,1080 200,1100 
		180,1120 160,1140 140,1160 120,1180 100,1200 120,1200 160,1160 	"/>
	<polygon class="st1" points="240,1120 280,1080 320,1040 360,1000 400,960 440,920 480,880 520,840 560,800 600,760 640,720 
		680,680 720,640 760,600 800,560 840,520 880,480 920,440 960,400 1000,360 1040,320 1080,280 1120,240 1160,200 1200,160 
		1240,120 1280,80 1320,40 1360,0 1340,0 1320,20 1300,40 1280,60 1260,80 1240,100 1220,120 1200,140 1180,160 1160,180 1140,200 
		1120,220 1100,240 1080,260 1060,280 1040,300 1020,320 1000,340 980,360 960,380 940,400 920,420 900,440 880,460 860,480 
		840,500 820,520 800,540 780,560 760,580 740,600 720,620 700,640 680,660 660,680 640,700 620,720 600,740 580,760 560,780 
		540,800 520,820 500,840 480,860 460,880 440,900 420,920 400,940 380,960 360,980 340,1000 320,1020 300,1040 280,1060 260,1080 
		240,1100 220,1120 200,1140 180,1160 160,1180 140,1200 160,1200 200,1160 	"/>
	<polygon class="st1" points="280,1120 320,1080 360,1040 400,1000 440,960 480,920 520,880 560,840 600,800 640,760 680,720 
		720,680 760,640 800,600 840,560 880,520 920,480 960,440 1000,400 1040,360 1080,320 1120,280 1160,240 1200,200 1240,160 
		1280,120 1320,80 1360,40 1400,0 1380,0 1360,20 1340,40 1320,60 1300,80 1280,100 1260,120 1240,140 1220,160 1200,180 1180,200 
		1160,220 1140,240 1120,260 1100,280 1080,300 1060,320 1040,340 1020,360 1000,380 980,400 960,420 940,440 920,460 900,480 
		880,500 860,520 840,540 820,560 800,580 780,600 760,620 740,640 720,660 700,680 680,700 660,720 640,740 620,760 600,780 
		580,800 560,820 540,840 520,860 500,880 480,900 460,920 440,940 420,960 400,980 380,1000 360,1020 340,1040 320,1060 300,1080 
		280,1100 260,1120 240,1140 220,1160 200,1180 180,1200 200,1200 240,1160 	"/>
	<polygon class="st1" points="320,1120 360,1080 400,1040 440,1000 480,960 520,920 560,880 600,840 640,800 680,760 720,720 
		760,680 800,640 840,600 880,560 920,520 960,480 1000,440 1040,400 1080,360 1120,320 1160,280 1200,240 1240,200 1280,160 
		1320,120 1360,80 1400,40 1440,0 1420,0 1400,20 1380,40 1360,60 1340,80 1320,100 1300,120 1280,140 1260,160 1240,180 1220,200 
		1200,220 1180,240 1160,260 1140,280 1120,300 1100,320 1080,340 1060,360 1040,380 1020,400 1000,420 980,440 960,460 940,480 
		920,500 900,520 880,540 860,560 840,580 820,600 800,620 780,640 760,660 740,680 720,700 700,720 680,740 660,760 640,780 
		620,800 600,820 580,840 560,860 540,880 520,900 500,920 480,940 460,960 440,980 420,1000 400,1020 380,1040 360,1060 340,1080 
		320,1100 300,1120 280,1140 260,1160 240,1180 220,1200 240,1200 280,1160 	"/>
	<polygon class="st1" points="360,1120 400,1080 440,1040 480,1000 520,960 560,920 600,880 640,840 680,800 720,760 760,720 
		800,680 840,640 880,600 920,560 960,520 1000,480 1040,440 1080,400 1120,360 1160,320 1200,280 1240,240 1280,200 1320,160 
		1360,120 1400,80 1440,40 1480,0 1460,0 1440,20 1420,40 1400,60 1380,80 1360,100 1340,120 1320,140 1300,160 1280,180 1260,200 
		1240,220 1220,240 1200,260 1180,280 1160,300 1140,320 1120,340 1100,360 1080,380 1060,400 1040,420 1020,440 1000,460 980,480 
		960,500 940,520 920,540 900,560 880,580 860,600 840,620 820,640 800,660 780,680 760,700 740,720 720,740 700,760 680,780 
		660,800 640,820 620,840 600,860 580,880 560,900 540,920 520,940 500,960 480,980 460,1000 440,1020 420,1040 400,1060 380,1080 
		360,1100 340,1120 320,1140 300,1160 280,1180 260,1200 280,1200 320,1160 	"/>
	<polygon class="st1" points="400,1120 440,1080 480,1040 520,1000 560,960 600,920 640,880 680,840 720,800 760,760 800,720 
		840,680 880,640 920,600 960,560 1000,520 1040,480 1080,440 1120,400 1160,360 1200,320 1240,280 1280,240 1320,200 1360,160 
		1400,120 1440,80 1480,40 1520,0 1500,0 1480,20 1460,40 1440,60 1420,80 1400,100 1380,120 1360,140 1340,160 1320,180 1300,200 
		1280,220 1260,240 1240,260 1220,280 1200,300 1180,320 1160,340 1140,360 1120,380 1100,400 1080,420 1060,440 1040,460 1020,480 
		1000,500 980,520 960,540 940,560 920,580 900,600 880,620 860,640 840,660 820,680 800,700 780,720 760,740 740,760 720,780 
		700,800 680,820 660,840 640,860 620,880 600,900 580,920 560,940 540,960 520,980 500,1000 480,1020 460,1040 440,1060 420,1080 
		400,1100 380,1120 360,1140 340,1160 320,1180 300,1200 320,1200 360,1160 	"/>
	<polygon class="st1" points="440,1120 480,1080 520,1040 560,1000 600,960 640,920 680,880 720,840 760,800 800,760 840,720 
		880,680 920,640 960,600 1000,560 1040,520 1080,480 1120,440 1160,400 1200,360 1240,320 1280,280 1320,240 1360,200 1400,160 
		1440,120 1480,80 1520,40 1560,0 1540,0 1520,20 1500,40 1480,60 1460,80 1440,100 1420,120 1400,140 1380,160 1360,180 1340,200 
		1320,220 1300,240 1280,260 1260,280 1240,300 1220,320 1200,340 1180,360 1160,380 1140,400 1120,420 1100,440 1080,460 1060,480 
		1040,500 1020,520 1000,540 980,560 960,580 940,600 920,620 900,640 880,660 860,680 840,700 820,720 800,740 780,760 760,780 
		740,800 720,820 700,840 680,860 660,880 640,900 620,920 600,940 580,960 560,980 540,1000 520,1020 500,1040 480,1060 460,1080 
		440,1100 420,1120 400,1140 380,1160 360,1180 340,1200 360,1200 400,1160 	"/>
	<polygon class="st1" points="480,1120 520,1080 560,1040 600,1000 640,960 680,920 720,880 760,840 800,800 840,760 880,720 
		920,680 960,640 1000,600 1040,560 1080,520 1120,480 1160,440 1200,400 1240,360 1280,320 1320,280 1360,240 1400,200 1440,160 
		1480,120 1520,80 1560,40 1600,0 1580,0 1560,20 1540,40 1520,60 1500,80 1480,100 1460,120 1440,140 1420,160 1400,180 1380,200 
		1360,220 1340,240 1320,260 1300,280 1280,300 1260,320 1240,340 1220,360 1200,380 1180,400 1160,420 1140,440 1120,460 1100,480 
		1080,500 1060,520 1040,540 1020,560 1000,580 980,600 960,620 940,640 920,660 900,680 880,700 860,720 840,740 820,760 800,780 
		780,800 760,820 740,840 720,860 700,880 680,900 660,920 640,940 620,960 600,980 580,1000 560,1020 540,1040 520,1060 500,1080 
		480,1100 460,1120 440,1140 420,1160 400,1180 380,1200 400,1200 440,1160 	"/>
	<polygon class="st1" points="520,1120 560,1080 600,1040 640,1000 680,960 720,920 760,880 800,840 840,800 880,760 920,720 
		960,680 1000,640 1040,600 1080,560 1120,520 1160,480 1200,440 1240,400 1280,360 1320,320 1360,280 1400,240 1440,200 1480,160 
		1520,120 1560,80 1600,40 1640,0 1620,0 1600,20 1580,40 1560,60 1540,80 1520,100 1500,120 1480,140 1460,160 1440,180 1420,200 
		1400,220 1380,240 1360,260 1340,280 1320,300 1300,320 1280,340 1260,360 1240,380 1220,400 1200,420 1180,440 1160,460 1140,480 
		1120,500 1100,520 1080,540 1060,560 1040,580 1020,600 1000,620 980,640 960,660 940,680 920,700 900,720 880,740 860,760 
		840,780 820,800 800,820 780,840 760,860 740,880 720,900 700,920 680,940 660,960 640,980 620,1000 600,1020 580,1040 560,1060 
		540,1080 520,1100 500,1120 480,1140 460,1160 440,1180 420,1200 440,1200 480,1160 	"/>
	<polygon class="st1" points="560,1120 600,1080 640,1040 680,1000 720,960 760,920 800,880 840,840 880,800 920,760 960,720 
		1000,680 1040,640 1080,600 1120,560 1160,520 1200,480 1240,440 1280,400 1320,360 1360,320 1400,280 1440,240 1480,200 1520,160 
		1560,120 1600,80 1640,40 1680,0 1660,0 1640,20 1620,40 1600,60 1580,80 1560,100 1540,120 1520,140 1500,160 1480,180 1460,200 
		1440,220 1420,240 1400,260 1380,280 1360,300 1340,320 1320,340 1300,360 1280,380 1260,400 1240,420 1220,440 1200,460 1180,480 
		1160,500 1140,520 1120,540 1100,560 1080,580 1060,600 1040,620 1020,640 1000,660 980,680 960,700 940,720 920,740 900,760 
		880,780 860,800 840,820 820,840 800,860 780,880 760,900 740,920 720,940 700,960 680,980 660,1000 640,1020 620,1040 600,1060 
		580,1080 560,1100 540,1120 520,1140 500,1160 480,1180 460,1200 480,1200 520,1160 	"/>
	<polygon class="st1" points="600,1120 640,1080 680,1040 720,1000 760,960 800,920 840,880 880,840 920,800 960,760 1000,720 
		1040,680 1080,640 1120,600 1160,560 1200,520 1240,480 1280,440 1320,400 1360,360 1400,320 1440,280 1480,240 1520,200 1560,160 
		1600,120 1640,80 1680,40 1720,0 1700,0 1680,20 1660,40 1640,60 1620,80 1600,100 1580,120 1560,140 1540,160 1520,180 1500,200 
		1480,220 1460,240 1440,260 1420,280 1400,300 1380,320 1360,340 1340,360 1320,380 1300,400 1280,420 1260,440 1240,460 1220,480 
		1200,500 1180,520 1160,540 1140,560 1120,580 1100,600 1080,620 1060,640 1040,660 1020,680 1000,700 980,720 960,740 940,760 
		920,780 900,800 880,820 860,840 840,860 820,880 800,900 780,920 760,940 740,960 720,980 700,1000 680,1020 660,1040 640,1060 
		620,1080 600,1100 580,1120 560,1140 540,1160 520,1180 500,1200 520,1200 560,1160 	"/>
	<polygon class="st1" points="640,1120 680,1080 720,1040 760,1000 800,960 840,920 880,880 920,840 960,800 1000,760 1040,720 
		1080,680 1120,640 1160,600 1200,560 1240,520 1280,480 1320,440 1360,400 1400,360 1440,320 1480,280 1520,240 1560,200 1600,160 
		1640,120 1680,80 1720,40 1760,0 1740,0 1720,20 1700,40 1680,60 1660,80 1640,100 1620,120 1600,140 1580,160 1560,180 1540,200 
		1520,220 1500,240 1480,260 1460,280 1440,300 1420,320 1400,340 1380,360 1360,380 1340,400 1320,420 1300,440 1280,460 1260,480 
		1240,500 1220,520 1200,540 1180,560 1160,580 1140,600 1120,620 1100,640 1080,660 1060,680 1040,700 1020,720 1000,740 980,760 
		960,780 940,800 920,820 900,840 880,860 860,880 840,900 820,920 800,940 780,960 760,980 740,1000 720,1020 700,1040 680,1060 
		660,1080 640,1100 620,1120 600,1140 580,1160 560,1180 540,1200 560,1200 600,1160 	"/>
	<polygon class="st1" points="680,1120 720,1080 760,1040 800,1000 840,960 880,920 920,880 960,840 1000,800 1040,760 1080,720 
		1120,680 1160,640 1200,600 1240,560 1280,520 1320,480 1360,440 1400,400 1440,360 1480,320 1520,280 1560,240 1600,200 1640,160 
		1680,120 1720,80 1760,40 1800,0 1780,0 1760,20 1740,40 1720,60 1700,80 1680,100 1660,120 1640,140 1620,160 1600,180 1580,200 
		1560,220 1540,240 1520,260 1500,280 1480,300 1460,320 1440,340 1420,360 1400,380 1380,400 1360,420 1340,440 1320,460 1300,480 
		1280,500 1260,520 1240,540 1220,560 1200,580 1180,600 1160,620 1140,640 1120,660 1100,680 1080,700 1060,720 1040,740 1020,760 
		1000,780 980,800 960,820 940,840 920,860 900,880 880,900 860,920 840,940 820,960 800,980 780,1000 760,1020 740,1040 720,1060 
		700,1080 680,1100 660,1120 640,1140 620,1160 600,1180 580,1200 600,1200 640,1160 	"/>
	<polygon class="st1" points="720,1120 760,1080 800,1040 840,1000 880,960 920,920 960,880 1000,840 1040,800 1080,760 1120,720 
		1160,680 1200,640 1240,600 1280,560 1320,520 1360,480 1400,440 1440,400 1480,360 1520,320 1560,280 1600,240 1640,200 1680,160 
		1720,120 1760,80 1800,40 1840,0 1820,0 1800,20 1780,40 1760,60 1740,80 1720,100 1700,120 1680,140 1660,160 1640,180 1620,200 
		1600,220 1580,240 1560,260 1540,280 1520,300 1500,320 1480,340 1460,360 1440,380 1420,400 1400,420 1380,440 1360,460 1340,480 
		1320,500 1300,520 1280,540 1260,560 1240,580 1220,600 1200,620 1180,640 1160,660 1140,680 1120,700 1100,720 1080,740 1060,760 
		1040,780 1020,800 1000,820 980,840 960,860 940,880 920,900 900,920 880,940 860,960 840,980 820,1000 800,1020 780,1040 
		760,1060 740,1080 720,1100 700,1120 680,1140 660,1160 640,1180 620,1200 640,1200 680,1160 	"/>
	<polygon class="st1" points="760,1120 800,1080 840,1040 880,1000 920,960 960,920 1000,880 1040,840 1080,800 1120,760 1160,720 
		1200,680 1240,640 1280,600 1320,560 1360,520 1400,480 1440,440 1480,400 1520,360 1560,320 1600,280 1640,240 1680,200 1720,160 
		1760,120 1800,80 1840,40 1880,0 1860,0 1840,20 1820,40 1800,60 1780,80 1760,100 1740,120 1720,140 1700,160 1680,180 1660,200 
		1640,220 1620,240 1600,260 1580,280 1560,300 1540,320 1520,340 1500,360 1480,380 1460,400 1440,420 1420,440 1400,460 1380,480 
		1360,500 1340,520 1320,540 1300,560 1280,580 1260,600 1240,620 1220,640 1200,660 1180,680 1160,700 1140,720 1120,740 1100,760 
		1080,780 1060,800 1040,820 1020,840 1000,860 980,880 960,900 940,920 920,940 900,960 880,980 860,1000 840,1020 820,1040 
		800,1060 780,1080 760,1100 740,1120 720,1140 700,1160 680,1180 660,1200 680,1200 720,1160 	"/>
	<polygon class="st1" points="800,1120 840,1080 880,1040 920,1000 960,960 1000,920 1040,880 1080,840 1120,800 1160,760 1200,720 
		1240,680 1280,640 1320,600 1360,560 1400,520 1440,480 1480,440 1520,400 1560,360 1600,320 1640,280 1680,240 1720,200 1760,160 
		1800,120 1840,80 1880,40 1920,0 1900,0 1880,20 1860,40 1840,60 1820,80 1800,100 1780,120 1760,140 1740,160 1720,180 1700,200 
		1680,220 1660,240 1640,260 1620,280 1600,300 1580,320 1560,340 1540,360 1520,380 1500,400 1480,420 1460,440 1440,460 1420,480 
		1400,500 1380,520 1360,540 1340,560 1320,580 1300,600 1280,620 1260,640 1240,660 1220,680 1200,700 1180,720 1160,740 1140,760 
		1120,780 1100,800 1080,820 1060,840 1040,860 1020,880 1000,900 980,920 960,940 940,960 920,980 900,1000 880,1020 860,1040 
		840,1060 820,1080 800,1100 780,1120 760,1140 740,1160 720,1180 700,1200 720,1200 760,1160 	"/>
	<polygon class="st1" points="840,1120 880,1080 920,1040 960,1000 1000,960 1040,920 1080,880 1120,840 1160,800 1200,760 
		1240,720 1280,680 1320,640 1360,600 1400,560 1440,520 1480,480 1520,440 1560,400 1600,360 1640,320 1680,280 1720,240 1760,200 
		1800,160 1840,120 1880,80 1920,40 1960,0 1940,0 1920,20 1900,40 1880,60 1860,80 1840,100 1820,120 1800,140 1780,160 1760,180 
		1740,200 1720,220 1700,240 1680,260 1660,280 1640,300 1620,320 1600,340 1580,360 1560,380 1540,400 1520,420 1500,440 1480,460 
		1460,480 1440,500 1420,520 1400,540 1380,560 1360,580 1340,600 1320,620 1300,640 1280,660 1260,680 1240,700 1220,720 1200,740 
		1180,760 1160,780 1140,800 1120,820 1100,840 1080,860 1060,880 1040,900 1020,920 1000,940 980,960 960,980 940,1000 920,1020 
		900,1040 880,1060 860,1080 840,1100 820,1120 800,1140 780,1160 760,1180 740,1200 760,1200 800,1160 	"/>
	<polygon class="st1" points="880,1120 920,1080 960,1040 1000,1000 1040,960 1080,920 1120,880 1160,840 1200,800 1240,760 
		1280,720 1320,680 1360,640 1400,600 1440,560 1480,520 1520,480 1560,440 1600,400 1640,360 1680,320 1720,280 1760,240 1800,200 
		1840,160 1880,120 1920,80 1960,40 2000,0 1980,0 1960,20 1940,40 1920,60 1900,80 1880,100 1860,120 1840,140 1820,160 1800,180 
		1780,200 1760,220 1740,240 1720,260 1700,280 1680,300 1660,320 1640,340 1620,360 1600,380 1580,400 1560,420 1540,440 1520,460 
		1500,480 1480,500 1460,520 1440,540 1420,560 1400,580 1380,600 1360,620 1340,640 1320,660 1300,680 1280,700 1260,720 1240,740 
		1220,760 1200,780 1180,800 1160,820 1140,840 1120,860 1100,880 1080,900 1060,920 1040,940 1020,960 1000,980 980,1000 960,1020 
		940,1040 920,1060 900,1080 880,1100 860,1120 840,1140 820,1160 800,1180 780,1200 800,1200 840,1160 	"/>
	<polygon class="st1" points="920,1120 960,1080 1000,1040 1040,1000 1080,960 1120,920 1160,880 1200,840 1240,800 1280,760 
		1320,720 1360,680 1400,640 1440,600 1480,560 1520,520 1560,480 1600,440 1640,400 1680,360 1720,320 1760,280 1800,240 1840,200 
		1880,160 1920,120 1960,80 2000,40 2040,0 2020,0 2000,20 1980,40 1960,60 1940,80 1920,100 1900,120 1880,140 1860,160 1840,180 
		1820,200 1800,220 1780,240 1760,260 1740,280 1720,300 1700,320 1680,340 1660,360 1640,380 1620,400 1600,420 1580,440 1560,460 
		1540,480 1520,500 1500,520 1480,540 1460,560 1440,580 1420,600 1400,620 1380,640 1360,660 1340,680 1320,700 1300,720 1280,740 
		1260,760 1240,780 1220,800 1200,820 1180,840 1160,860 1140,880 1120,900 1100,920 1080,940 1060,960 1040,980 1020,1000 
		1000,1020 980,1040 960,1060 940,1080 920,1100 900,1120 880,1140 860,1160 840,1180 820,1200 840,1200 880,1160 	"/>
	<polygon class="st1" points="960,1120 1000,1080 1040,1040 1080,1000 1120,960 1160,920 1200,880 1240,840 1280,800 1320,760 
		1360,720 1400,680 1440,640 1480,600 1520,560 1560,520 1600,480 1640,440 1680,400 1720,360 1760,320 1800,280 1840,240 1880,200 
		1920,160 1960,120 2000,80 2040,40 2080,0 2060,0 2040,20 2020,40 2000,60 1980,80 1960,100 1940,120 1920,140 1900,160 1880,180 
		1860,200 1840,220 1820,240 1800,260 1780,280 1760,300 1740,320 1720,340 1700,360 1680,380 1660,400 1640,420 1620,440 1600,460 
		1580,480 1560,500 1540,520 1520,540 1500,560 1480,580 1460,600 1440,620 1420,640 1400,660 1380,680 1360,700 1340,720 1320,740 
		1300,760 1280,780 1260,800 1240,820 1220,840 1200,860 1180,880 1160,900 1140,920 1120,940 1100,960 1080,980 1060,1000 
		1040,1020 1020,1040 1000,1060 980,1080 960,1100 940,1120 920,1140 900,1160 880,1180 860,1200 880,1200 920,1160 	"/>
	<polygon class="st1" points="1000,1120 1040,1080 1080,1040 1120,1000 1160,960 1200,920 1240,880 1280,840 1320,800 1360,760 
		1400,720 1440,680 1480,640 1520,600 1560,560 1600,520 1640,480 1680,440 1720,400 1760,360 1800,320 1840,280 1880,240 1920,200 
		1960,160 2000,120 2040,80 2080,40 2120,0 2100,0 2080,20 2060,40 2040,60 2020,80 2000,100 1980,120 1960,140 1940,160 1920,180 
		1900,200 1880,220 1860,240 1840,260 1820,280 1800,300 1780,320 1760,340 1740,360 1720,380 1700,400 1680,420 1660,440 1640,460 
		1620,480 1600,500 1580,520 1560,540 1540,560 1520,580 1500,600 1480,620 1460,640 1440,660 1420,680 1400,700 1380,720 1360,740 
		1340,760 1320,780 1300,800 1280,820 1260,840 1240,860 1220,880 1200,900 1180,920 1160,940 1140,960 1120,980 1100,1000 
		1080,1020 1060,1040 1040,1060 1020,1080 1000,1100 980,1120 960,1140 940,1160 920,1180 900,1200 920,1200 960,1160 	"/>
	<polygon class="st1" points="1040,1120 1080,1080 1120,1040 1160,1000 1200,960 1240,920 1280,880 1320,840 1360,800 1400,760 
		1440,720 1480,680 1520,640 1560,600 1600,560 1640,520 1680,480 1720,440 1760,400 1800,360 1840,320 1880,280 1920,240 1960,200 
		2000,160 2040,120 2080,80 2120,40 2160,0 2140,0 2120,20 2100,40 2080,60 2060,80 2040,100 2020,120 2000,140 1980,160 1960,180 
		1940,200 1920,220 1900,240 1880,260 1860,280 1840,300 1820,320 1800,340 1780,360 1760,380 1740,400 1720,420 1700,440 1680,460 
		1660,480 1640,500 1620,520 1600,540 1580,560 1560,580 1540,600 1520,620 1500,640 1480,660 1460,680 1440,700 1420,720 1400,740 
		1380,760 1360,780 1340,800 1320,820 1300,840 1280,860 1260,880 1240,900 1220,920 1200,940 1180,960 1160,980 1140,1000 
		1120,1020 1100,1040 1080,1060 1060,1080 1040,1100 1020,1120 1000,1140 980,1160 960,1180 940,1200 960,1200 1000,1160 	"/>
	<polygon class="st1" points="1080,1120 1120,1080 1160,1040 1200,1000 1240,960 1280,920 1320,880 1360,840 1400,800 1440,760 
		1480,720 1520,680 1560,640 1600,600 1640,560 1680,520 1720,480 1760,440 1800,400 1840,360 1880,320 1920,280 1960,240 2000,200 
		2040,160 2080,120 2120,80 2160,40 2200,0 2180,0 2160,20 2140,40 2120,60 2100,80 2080,100 2060,120 2040,140 2020,160 2000,180 
		1980,200 1960,220 1940,240 1920,260 1900,280 1880,300 1860,320 1840,340 1820,360 1800,380 1780,400 1760,420 1740,440 1720,460 
		1700,480 1680,500 1660,520 1640,540 1620,560 1600,580 1580,600 1560,620 1540,640 1520,660 1500,680 1480,700 1460,720 1440,740 
		1420,760 1400,780 1380,800 1360,820 1340,840 1320,860 1300,880 1280,900 1260,920 1240,940 1220,960 1200,980 1180,1000 
		1160,1020 1140,1040 1120,1060 1100,1080 1080,1100 1060,1120 1040,1140 1020,1160 1000,1180 980,1200 1000,1200 1040,1160 	"/>
	<polygon class="st1" points="1120,1120 1160,1080 1200,1040 1240,1000 1280,960 1320,920 1360,880 1400,840 1440,800 1480,760 
		1520,720 1560,680 1600,640 1640,600 1680,560 1720,520 1760,480 1800,440 1840,400 1880,360 1920,320 1960,280 2000,240 2040,200 
		2080,160 2120,120 2160,80 2200,40 2240,0 2220,0 2200,20 2180,40 2160,60 2140,80 2120,100 2100,120 2080,140 2060,160 2040,180 
		2020,200 2000,220 1980,240 1960,260 1940,280 1920,300 1900,320 1880,340 1860,360 1840,380 1820,400 1800,420 1780,440 1760,460 
		1740,480 1720,500 1700,520 1680,540 1660,560 1640,580 1620,600 1600,620 1580,640 1560,660 1540,680 1520,700 1500,720 1480,740 
		1460,760 1440,780 1420,800 1400,820 1380,840 1360,860 1340,880 1320,900 1300,920 1280,940 1260,960 1240,980 1220,1000 
		1200,1020 1180,1040 1160,1060 1140,1080 1120,1100 1100,1120 1080,1140 1060,1160 1040,1180 1020,1200 1040,1200 1080,1160 	"/>
	<polygon class="st1" points="1160,1120 1200,1080 1240,1040 1280,1000 1320,960 1360,920 1400,880 1440,840 1480,800 1520,760 
		1560,720 1600,680 1640,640 1680,600 1720,560 1760,520 1800,480 1840,440 1880,400 1920,360 1960,320 2000,280 2040,240 2080,200 
		2120,160 2160,120 2200,80 2240,40 2280,0 2260,0 2240,20 2220,40 2200,60 2180,80 2160,100 2140,120 2120,140 2100,160 2080,180 
		2060,200 2040,220 2020,240 2000,260 1980,280 1960,300 1940,320 1920,340 1900,360 1880,380 1860,400 1840,420 1820,440 1800,460 
		1780,480 1760,500 1740,520 1720,540 1700,560 1680,580 1660,600 1640,620 1620,640 1600,660 1580,680 1560,700 1540,720 1520,740 
		1500,760 1480,780 1460,800 1440,820 1420,840 1400,860 1380,880 1360,900 1340,920 1320,940 1300,960 1280,980 1260,1000 
		1240,1020 1220,1040 1200,1060 1180,1080 1160,1100 1140,1120 1120,1140 1100,1160 1080,1180 1060,1200 1080,1200 1120,1160 	"/>
	<polygon class="st1" points="1200,1120 1240,1080 1280,1040 1320,1000 1360,960 1400,920 1440,880 1480,840 1520,800 1560,760 
		1600,720 1640,680 1680,640 1720,600 1760,560 1800,520 1840,480 1880,440 1920,400 1960,360 2000,320 2040,280 2080,240 2120,200 
		2160,160 2200,120 2240,80 2280,40 2320,0 2300,0 2280,20 2260,40 2240,60 2220,80 2200,100 2180,120 2160,140 2140,160 2120,180 
		2100,200 2080,220 2060,240 2040,260 2020,280 2000,300 1980,320 1960,340 1940,360 1920,380 1900,400 1880,420 1860,440 1840,460 
		1820,480 1800,500 1780,520 1760,540 1740,560 1720,580 1700,600 1680,620 1660,640 1640,660 1620,680 1600,700 1580,720 1560,740 
		1540,760 1520,780 1500,800 1480,820 1460,840 1440,860 1420,880 1400,900 1380,920 1360,940 1340,960 1320,980 1300,1000 
		1280,1020 1260,1040 1240,1060 1220,1080 1200,1100 1180,1120 1160,1140 1140,1160 1120,1180 1100,1200 1120,1200 1160,1160 	"/>
	<polygon class="st1" points="80,0 60,0 40,20 20,40 0,60 0,80 40,40 	"/>
	<polygon class="st1" points="80,40 120,0 100,0 80,20 60,40 40,60 20,80 0,100 0,120 40,80 	"/>
	<polygon class="st1" points="80,80 120,40 160,0 140,0 120,20 100,40 80,60 60,80 40,100 20,120 0,140 0,160 40,120 	"/>
	<polygon class="st1" points="80,120 120,80 160,40 200,0 180,0 160,20 140,40 120,60 100,80 80,100 60,120 40,140 20,160 0,180 
		0,200 40,160 	"/>
	<polygon class="st1" points="80,160 120,120 160,80 200,40 240,0 220,0 200,20 180,40 160,60 140,80 120,100 100,120 80,140 
		60,160 40,180 20,200 0,220 0,240 40,200 	"/>
	<polygon class="st1" points="80,200 120,160 160,120 200,80 240,40 280,0 260,0 240,20 220,40 200,60 180,80 160,100 140,120 
		120,140 100,160 80,180 60,200 40,220 20,240 0,260 0,280 40,240 	"/>
	<polygon class="st1" points="80,240 120,200 160,160 200,120 240,80 280,40 320,0 300,0 280,20 260,40 240,60 220,80 200,100 
		180,120 160,140 140,160 120,180 100,200 80,220 60,240 40,260 20,280 0,300 0,320 40,280 	"/>
	<polygon class="st1" points="80,280 120,240 160,200 200,160 240,120 280,80 320,40 360,0 340,0 320,20 300,40 280,60 260,80 
		240,100 220,120 200,140 180,160 160,180 140,200 120,220 100,240 80,260 60,280 40,300 20,320 0,340 0,360 40,320 	"/>
	<polygon class="st1" points="80,320 120,280 160,240 200,200 240,160 280,120 320,80 360,40 400,0 380,0 360,20 340,40 320,60 
		300,80 280,100 260,120 240,140 220,160 200,180 180,200 160,220 140,240 120,260 100,280 80,300 60,320 40,340 20,360 0,380 
		0,400 40,360 	"/>
	<polygon class="st1" points="80,360 120,320 160,280 200,240 240,200 280,160 320,120 360,80 400,40 440,0 420,0 400,20 380,40 
		360,60 340,80 320,100 300,120 280,140 260,160 240,180 220,200 200,220 180,240 160,260 140,280 120,300 100,320 80,340 60,360 
		40,380 20,400 0,420 0,440 40,400 	"/>
	<polygon class="st1" points="80,400 120,360 160,320 200,280 240,240 280,200 320,160 360,120 400,80 440,40 480,0 460,0 440,20 
		420,40 400,60 380,80 360,100 340,120 320,140 300,160 280,180 260,200 240,220 220,240 200,260 180,280 160,300 140,320 120,340 
		100,360 80,380 60,400 40,420 20,440 0,460 0,480 40,440 	"/>
	<polygon class="st1" points="80,440 120,400 160,360 200,320 240,280 280,240 320,200 360,160 400,120 440,80 480,40 520,0 500,0 
		480,20 460,40 440,60 420,80 400,100 380,120 360,140 340,160 320,180 300,200 280,220 260,240 240,260 220,280 200,300 180,320 
		160,340 140,360 120,380 100,400 80,420 60,440 40,460 20,480 0,500 0,520 40,480 	"/>
	<polygon class="st1" points="80,480 120,440 160,400 200,360 240,320 280,280 320,240 360,200 400,160 440,120 480,80 520,40 
		560,0 540,0 520,20 500,40 480,60 460,80 440,100 420,120 400,140 380,160 360,180 340,200 320,220 300,240 280,260 260,280 
		240,300 220,320 200,340 180,360 160,380 140,400 120,420 100,440 80,460 60,480 40,500 20,520 0,540 0,560 40,520 	"/>
	<polygon class="st1" points="80,520 120,480 160,440 200,400 240,360 280,320 320,280 360,240 400,200 440,160 480,120 520,80 
		560,40 600,0 580,0 560,20 540,40 520,60 500,80 480,100 460,120 440,140 420,160 400,180 380,200 360,220 340,240 320,260 
		300,280 280,300 260,320 240,340 220,360 200,380 180,400 160,420 140,440 120,460 100,480 80,500 60,520 40,540 20,560 0,580 
		0,600 40,560 	"/>
	<polygon class="st1" points="80,560 120,520 160,480 200,440 240,400 280,360 320,320 360,280 400,240 440,200 480,160 520,120 
		560,80 600,40 640,0 620,0 600,20 580,40 560,60 540,80 520,100 500,120 480,140 460,160 440,180 420,200 400,220 380,240 360,260 
		340,280 320,300 300,320 280,340 260,360 240,380 220,400 200,420 180,440 160,460 140,480 120,500 100,520 80,540 60,560 40,580 
		20,600 0,620 0,640 40,600 	"/>
	<polygon class="st1" points="80,600 120,560 160,520 200,480 240,440 280,400 320,360 360,320 400,280 440,240 480,200 520,160 
		560,120 600,80 640,40 680,0 660,0 640,20 620,40 600,60 580,80 560,100 540,120 520,140 500,160 480,180 460,200 440,220 420,240 
		400,260 380,280 360,300 340,320 320,340 300,360 280,380 260,400 240,420 220,440 200,460 180,480 160,500 140,520 120,540 
		100,560 80,580 60,600 40,620 20,640 0,660 0,680 40,640 	"/>
	<polygon class="st1" points="80,640 120,600 160,560 200,520 240,480 280,440 320,400 360,360 400,320 440,280 480,240 520,200 
		560,160 600,120 640,80 680,40 720,0 700,0 680,20 660,40 640,60 620,80 600,100 580,120 560,140 540,160 520,180 500,200 480,220 
		460,240 440,260 420,280 400,300 380,320 360,340 340,360 320,380 300,400 280,420 260,440 240,460 220,480 200,500 180,520 
		160,540 140,560 120,580 100,600 80,620 60,640 40,660 20,680 0,700 0,720 40,680 	"/>
	<polygon class="st1" points="80,680 120,640 160,600 200,560 240,520 280,480 320,440 360,400 400,360 440,320 480,280 520,240 
		560,200 600,160 640,120 680,80 720,40 760,0 740,0 720,20 700,40 680,60 660,80 640,100 620,120 600,140 580,160 560,180 540,200 
		520,220 500,240 480,260 460,280 440,300 420,320 400,340 380,360 360,380 340,400 320,420 300,440 280,460 260,480 240,500 
		220,520 200,540 180,560 160,580 140,600 120,620 100,640 80,660 60,680 40,700 20,720 0,740 0,760 40,720 	"/>
	<polygon class="st1" points="80,720 120,680 160,640 200,600 240,560 280,520 320,480 360,440 400,400 440,360 480,320 520,280 
		560,240 600,200 640,160 680,120 720,80 760,40 800,0 780,0 760,20 740,40 720,60 700,80 680,100 660,120 640,140 620,160 600,180 
		580,200 560,220 540,240 520,260 500,280 480,300 460,320 440,340 420,360 400,380 380,400 360,420 340,440 320,460 300,480 
		280,500 260,520 240,540 220,560 200,580 180,600 160,620 140,640 120,660 100,680 80,700 60,720 40,740 20,760 0,780 0,800 
		40,760 	"/>
	<polygon class="st1" points="80,760 120,720 160,680 200,640 240,600 280,560 320,520 360,480 400,440 440,400 480,360 520,320 
		560,280 600,240 640,200 680,160 720,120 760,80 800,40 840,0 820,0 800,20 780,40 760,60 740,80 720,100 700,120 680,140 660,160 
		640,180 620,200 600,220 580,240 560,260 540,280 520,300 500,320 480,340 460,360 440,380 420,400 400,420 380,440 360,460 
		340,480 320,500 300,520 280,540 260,560 240,580 220,600 200,620 180,640 160,660 140,680 120,700 100,720 80,740 60,760 40,780 
		20,800 0,820 0,840 40,800 	"/>
	<polygon class="st1" points="80,800 120,760 160,720 200,680 240,640 280,600 320,560 360,520 400,480 440,440 480,400 520,360 
		560,320 600,280 640,240 680,200 720,160 760,120 800,80 840,40 880,0 860,0 840,20 820,40 800,60 780,80 760,100 740,120 720,140 
		700,160 680,180 660,200 640,220 620,240 600,260 580,280 560,300 540,320 520,340 500,360 480,380 460,400 440,420 420,440 
		400,460 380,480 360,500 340,520 320,540 300,560 280,580 260,600 240,620 220,640 200,660 180,680 160,700 140,720 120,740 
		100,760 80,780 60,800 40,820 20,840 0,860 0,880 40,840 	"/>
	<polygon class="st1" points="80,840 120,800 160,760 200,720 240,680 280,640 320,600 360,560 400,520 440,480 480,440 520,400 
		560,360 600,320 640,280 680,240 720,200 760,160 800,120 840,80 880,40 920,0 900,0 880,20 860,40 840,60 820,80 800,100 780,120 
		760,140 740,160 720,180 700,200 680,220 660,240 640,260 620,280 600,300 580,320 560,340 540,360 520,380 500,400 480,420 
		460,440 440,460 420,480 400,500 380,520 360,540 340,560 320,580 300,600 280,620 260,640 240,660 220,680 200,700 180,720 
		160,740 140,760 120,780 100,800 80,820 60,840 40,860 20,880 0,900 0,920 40,880 	"/>
	<polygon class="st1" points="80,880 120,840 160,800 200,760 240,720 280,680 320,640 360,600 400,560 440,520 480,480 520,440 
		560,400 600,360 640,320 680,280 720,240 760,200 800,160 840,120 880,80 920,40 960,0 940,0 920,20 900,40 880,60 860,80 840,100 
		820,120 800,140 780,160 760,180 740,200 720,220 700,240 680,260 660,280 640,300 620,320 600,340 580,360 560,380 540,400 
		520,420 500,440 480,460 460,480 440,500 420,520 400,540 380,560 360,580 340,600 320,620 300,640 280,660 260,680 240,700 
		220,720 200,740 180,760 160,780 140,800 120,820 100,840 80,860 60,880 40,900 20,920 0,940 0,960 40,920 	"/>
	<polygon class="st1" points="80,920 120,880 160,840 200,800 240,760 280,720 320,680 360,640 400,600 440,560 480,520 520,480 
		560,440 600,400 640,360 680,320 720,280 760,240 800,200 840,160 880,120 920,80 960,40 1000,0 980,0 960,20 940,40 920,60 
		900,80 880,100 860,120 840,140 820,160 800,180 780,200 760,220 740,240 720,260 700,280 680,300 660,320 640,340 620,360 
		600,380 580,400 560,420 540,440 520,460 500,480 480,500 460,520 440,540 420,560 400,580 380,600 360,620 340,640 320,660 
		300,680 280,700 260,720 240,740 220,760 200,780 180,800 160,820 140,840 120,860 100,880 80,900 60,920 40,940 20,960 0,980 
		0,1000 40,960 	"/>
	<polygon class="st1" points="80,960 120,920 160,880 200,840 240,800 280,760 320,720 360,680 400,640 440,600 480,560 520,520 
		560,480 600,440 640,400 680,360 720,320 760,280 800,240 840,200 880,160 920,120 960,80 1000,40 1040,0 1020,0 1000,20 980,40 
		960,60 940,80 920,100 900,120 880,140 860,160 840,180 820,200 800,220 780,240 760,260 740,280 720,300 700,320 680,340 660,360 
		640,380 620,400 600,420 580,440 560,460 540,480 520,500 500,520 480,540 460,560 440,580 420,600 400,620 380,640 360,660 
		340,680 320,700 300,720 280,740 260,760 240,780 220,800 200,820 180,840 160,860 140,880 120,900 100,920 80,940 60,960 40,980 
		20,1000 0,1020 0,1040 40,1000 	"/>
	<polygon class="st1" points="80,1000 120,960 160,920 200,880 240,840 280,800 320,760 360,720 400,680 440,640 480,600 520,560 
		560,520 600,480 640,440 680,400 720,360 760,320 800,280 840,240 880,200 920,160 960,120 1000,80 1040,40 1080,0 1060,0 1040,20 
		1020,40 1000,60 980,80 960,100 940,120 920,140 900,160 880,180 860,200 840,220 820,240 800,260 780,280 760,300 740,320 
		720,340 700,360 680,380 660,400 640,420 620,440 600,460 580,480 560,500 540,520 520,540 500,560 480,580 460,600 440,620 
		420,640 400,660 380,680 360,700 340,720 320,740 300,760 280,780 260,800 240,820 220,840 200,860 180,880 160,900 140,920 
		120,940 100,960 80,980 60,1000 40,1020 20,1040 0,1060 0,1080 40,1040 	"/>
	<polygon class="st1" points="80,1040 120,1000 160,960 200,920 240,880 280,840 320,800 360,760 400,720 440,680 480,640 520,600 
		560,560 600,520 640,480 680,440 720,400 760,360 800,320 840,280 880,240 920,200 960,160 1000,120 1040,80 1080,40 1120,0 
		1100,0 1080,20 1060,40 1040,60 1020,80 1000,100 980,120 960,140 940,160 920,180 900,200 880,220 860,240 840,260 820,280 
		800,300 780,320 760,340 740,360 720,380 700,400 680,420 660,440 640,460 620,480 600,500 580,520 560,540 540,560 520,580 
		500,600 480,620 460,640 440,660 420,680 400,700 380,720 360,740 340,760 320,780 300,800 280,820 260,840 240,860 220,880 
		200,900 180,920 160,940 140,960 120,980 100,1000 80,1020 60,1040 40,1060 20,1080 0,1100 0,1120 40,1080 	"/>
	<polygon class="st1" points="80,1080 120,1040 160,1000 200,960 240,920 280,880 320,840 360,800 400,760 440,720 480,680 520,640 
		560,600 600,560 640,520 680,480 720,440 760,400 800,360 840,320 880,280 920,240 960,200 1000,160 1040,120 1080,80 1120,40 
		1160,0 1140,0 1120,20 1100,40 1080,60 1060,80 1040,100 1020,120 1000,140 980,160 960,180 940,200 920,220 900,240 880,260 
		860,280 840,300 820,320 800,340 780,360 760,380 740,400 720,420 700,440 680,460 660,480 640,500 620,520 600,540 580,560 
		560,580 540,600 520,620 500,640 480,660 460,680 440,700 420,720 400,740 380,760 360,780 340,800 320,820 300,840 280,860 
		260,880 240,900 220,920 200,940 180,960 160,980 140,1000 120,1020 100,1040 80,1060 60,1080 40,1100 20,1120 0,1140 0,1160 
		40,1120 	"/>
	<polygon class="st1" points="80,1120 120,1080 160,1040 200,1000 240,960 280,920 320,880 360,840 400,800 440,760 480,720 
		520,680 560,640 600,600 640,560 680,520 720,480 760,440 800,400 840,360 880,320 920,280 960,240 1000,200 1040,160 1080,120 
		1120,80 1160,40 1200,0 1180,0 1160,20 1140,40 1120,60 1100,80 1080,100 1060,120 1040,140 1020,160 1000,180 980,200 960,220 
		940,240 920,260 900,280 880,300 860,320 840,340 820,360 800,380 780,400 760,420 740,440 720,460 700,480 680,500 660,520 
		640,540 620,560 600,580 580,600 560,620 540,640 520,660 500,680 480,700 460,720 440,740 420,760 400,780 380,800 360,820 
		340,840 320,860 300,880 280,900 260,920 240,940 220,960 200,980 180,1000 160,1020 140,1040 120,1060 100,1080 80,1100 60,1120 
		40,1140 20,1160 0,1180 0,1200 40,1160 	"/>
	<polygon class="st1" points="20,0 0,20 0,40 40,0 	"/>
</g>
<g id="Layer_3_1_">
	<polyline class="st2" points="1217.4,576 1237.4,576 1237.4,584.9 1223,584.9 1223,624 1217.4,624 	"/>
	<polyline class="st2" points="1190,607.7 1181.9,624 1168.6,624 1182.3,599.8 1169,576 1182.1,576 1190,592 	"/>
	<g class="st3">
		<polygon class="st2" points="1211.1,576 1206,584.9 1211.5,584.9 1211.5,624 1217.4,624 1217.4,576 		"/>
		<polygon class="st2" points="1197.8,576 1197.3,577.1 1190,592 1190,607.7 1198.1,624 1211.4,624 1197.6,599.8 1206,584.9 
			1211.1,576 		"/>
	</g>
</g>
</svg>
