<?xml version="1.0" encoding="utf-8"?>
<!-- Generator: Adobe Illustrator 24.3.0, SVG Export Plug-In . SVG Version: 6.00 Build 0)  -->
<svg version="1.1" id="Layer_1" xmlns="http://www.w3.org/2000/svg" xmlns:xlink="http://www.w3.org/1999/xlink" x="0px" y="0px"
	 viewBox="0 0 45.5 9.2" style="enable-background:new 0 0 45.5 9.2;" xml:space="preserve">
<polygon points="7.3,0.5 5.3,0.5 3.7,3.4 2.1,0.5 0.1,0.5 2.5,4.7 0,9 2,9 3.7,6 5.3,9 7.4,9 4.8,4.7 "/>
<path d="M10,7.6C9.9,7.5,9.9,7.3,9.9,7.1V3.9H11V2.7H9.9V1.1H8.2v1.6H7.3v1.2h0.9v3.4c0,1.2,0.6,1.8,1.8,1.8c0.4,0,0.7-0.1,1-0.2
	V7.7c-0.1,0-0.3,0-0.5,0S10.1,7.7,10,7.6z"/>
<path d="M14.3,2.5c-0.6,0-1.1,0.1-1.5,0.4s-0.8,0.7-1,1.2s-0.4,1.1-0.4,1.7V6c0,0.9,0.3,1.7,0.9,2.3s1.3,0.9,2.3,0.9
	c0.5,0,1-0.1,1.4-0.3s0.8-0.5,1-0.8L16.2,7c-0.4,0.5-0.9,0.7-1.5,0.7c-0.4,0-0.8-0.1-1-0.4s-0.4-0.6-0.5-1h4V5.7
	c0-1-0.2-1.8-0.7-2.3S15.2,2.5,14.3,2.5z M15.5,5.2h-2.4c0.1-0.4,0.2-0.7,0.4-1s0.5-0.3,0.8-0.3c0.4,0,0.6,0.1,0.8,0.3
	C15.3,4.4,15.4,4.7,15.5,5.2L15.5,5.2L15.5,5.2z"/>
<path d="M21.2,2.5c-0.8,0-1.4,0.3-1.8,0.8l-0.1-0.7h-1.6V9h1.7V4.5c0.2-0.4,0.6-0.6,1.1-0.6c0.4,0,0.6,0.1,0.8,0.2s0.2,0.4,0.2,0.8
	V9h1.7V4.9c0-0.8-0.2-1.4-0.5-1.8S21.9,2.5,21.2,2.5z"/>
<path d="M28,3.2c-0.4-0.5-0.9-0.7-1.5-0.7c-0.8,0-1.4,0.3-1.8,0.9S24,4.8,24,5.8s0.2,1.9,0.7,2.5s1.1,0.9,1.8,0.9
	c0.7,0,1.2-0.3,1.6-0.8V9h1.5V0H28V3.2z M28,7.1c-0.2,0.4-0.6,0.7-1.1,0.7c-0.4,0-0.7-0.2-0.9-0.5c-0.2-0.3-0.3-0.8-0.3-1.4
	c0-1.3,0.4-2,1.2-2c0.5,0,0.9,0.2,1.1,0.7C28,4.6,28,7.1,28,7.1z"/>
<path d="M39.3,5.5c0,0.7-0.4,1.2-1.1,1.2c-0.4,0-0.6-0.1-0.8-0.3c-0.2-0.2-0.3-0.5-0.3-0.9V1.4h-1.3v4.1c0,0.7,0.2,1.2,0.7,1.6
	c0.4,0.4,1,0.6,1.7,0.6c0.7,0,1.3-0.2,1.7-0.6s0.7-0.9,0.7-1.6V1.4h-1.3C39.3,1.4,39.3,5.5,39.3,5.5z"/>
<rect x="41.5" y="1.4" width="1.3" height="6.2"/>
<g>
	<polygon points="33.3,9.2 35.3,9.2 35.3,8.2 34.6,8.2 34.6,1 35.3,1 35.3,0 33.3,0 	"/>
	<polygon points="43.6,0 43.6,1 44.2,1 44.2,8.2 43.6,8.2 43.6,9.2 45.5,9.2 45.5,0 	"/>
</g>
</svg>
