<?xml version="1.0" encoding="utf-8"?>
<!-- Generator: Adobe Illustrator 25.2.3, SVG Export Plug-In . SVG Version: 6.00 Build 0)  -->
<svg version="1.1" id="Layer_1" xmlns="http://www.w3.org/2000/svg" xmlns:xlink="http://www.w3.org/1999/xlink" x="0px" y="0px"
	 viewBox="0 0 210.5 50.2" style="enable-background:new 0 0 210.5 50.2;" xml:space="preserve">
<style type="text/css">
	.st0{opacity:0.5;fill:#5B6373;enable-background:new    ;}
	.st1{fill:#5B6373;}
</style>
<polygon class="st0" points="149.1,50.2 160,50.2 160,44.8 156.1,44.8 156.1,5.5 160,5.5 160,0 149.1,0 "/>
<polygon class="st0" points="200.1,0 200.1,5.5 203.4,5.5 203.4,44.8 200.1,44.8 200.1,50.2 210.5,50.2 210.5,0 "/>
<g>
	<polygon class="st1" points="35.6,5.2 25.2,5.2 18.1,17.4 17.8,17.4 10.8,5.2 0.3,5.2 11.9,24.5 0,43.7 10.6,43.7 17.8,31.4 
		18.1,31.4 25.3,43.7 36,43.7 24,24.5 	"/>
	<path class="st1" d="M48,36.8c-0.4,0.1-0.8,0.1-1.1,0.1c-0.5,0-0.9-0.1-1.3-0.2c-0.4-0.1-0.6-0.4-0.8-0.7s-0.3-0.8-0.3-1.4v-13h5.2
		v-6.8h-5.2V7.9h-9.2v6.9h-3.8v6.8h3.8v14c0,2,0.4,3.6,1.2,4.9c0.8,1.3,2,2.2,3.5,2.8s3.4,0.9,5.5,0.8c1.1-0.1,2.1-0.2,2.8-0.4
		c0.8-0.2,1.4-0.3,1.9-0.5l-1.4-6.6C48.7,36.7,48.4,36.8,48,36.8z"/>
	<path class="st1" d="M73.5,18.2c-1.2-1.3-2.7-2.2-4.4-2.8c-1.7-0.6-3.6-1-5.6-1c-2.9,0-5.4,0.6-7.6,1.9s-3.8,3-5,5.2
		s-1.8,4.8-1.8,7.8c0,3.1,0.6,5.7,1.8,7.9s2.9,3.9,5,5.1s4.8,1.8,7.8,1.8c2.5,0,4.7-0.4,6.7-1.2c1.9-0.8,3.5-1.9,4.7-3.3
		s2-3,2.3-4.9L69,34.5c-0.2,0.6-0.6,1.2-1.1,1.6c-0.5,0.4-1,0.8-1.7,1s-1.4,0.3-2.2,0.3c-1.2,0-2.2-0.2-3-0.7
		c-0.9-0.5-1.5-1.2-2-2.1c-0.5-0.9-0.7-1.9-0.7-3.1v-0.2h19.3V29c0-2.4-0.3-4.5-1-6.3C75.7,21,74.8,19.5,73.5,18.2z M58.2,26.1
		c0-0.9,0.3-1.8,0.7-2.5c0.5-0.8,1.1-1.4,1.9-1.9s1.7-0.7,2.8-0.7c1,0,1.9,0.2,2.7,0.6s1.4,1,1.9,1.8s0.7,1.6,0.7,2.6H58.2V26.1z"/>
	<path class="st1" d="M101.3,15.8c-1.5-0.9-3.3-1.4-5.3-1.4c-2.1,0-4,0.5-5.5,1.5s-2.6,2.4-3.3,4.2h-0.3v-5.3h-8.7v28.9h9.2V27.2
		c0-1.1,0.2-2,0.6-2.8s1-1.4,1.7-1.8s1.6-0.6,2.5-0.6c1.5,0,2.6,0.5,3.4,1.4s1.2,2.2,1.2,3.8v16.6h9.2V25.3c0-2.2-0.4-4.1-1.2-5.7
		C104,18,102.8,16.7,101.3,15.8z"/>
	<path class="st1" d="M126.7,19.8h-0.2c-0.4-0.9-0.9-1.7-1.6-2.5s-1.6-1.5-2.7-2s-2.4-0.8-3.9-0.8c-2,0-3.9,0.5-5.6,1.6
		s-3.2,2.7-4.2,4.9s-1.6,5-1.6,8.4c0,3.3,0.5,6,1.6,8.2c1,2.2,2.4,3.9,4.2,5c1.7,1.1,3.7,1.7,5.8,1.7c1.5,0,2.7-0.2,3.8-0.7
		c1.1-0.5,2-1.1,2.7-1.9c0.7-0.8,1.3-1.6,1.7-2.5h0.3v4.7h9.1V5.2h-9.2v14.6H126.7z M126.2,33.3c-0.4,1.2-1,2-1.8,2.7
		c-0.8,0.6-1.7,1-2.9,1c-1.1,0-2.1-0.3-2.9-1c-0.8-0.6-1.4-1.5-1.8-2.7s-0.6-2.5-0.6-4.1s0.2-2.9,0.6-4s1-2,1.8-2.7
		c0.8-0.6,1.8-0.9,2.9-0.9s2.1,0.3,2.9,0.9s1.4,1.5,1.8,2.6s0.6,2.5,0.6,4.1C126.9,30.8,126.6,32.2,126.2,33.3z"/>
	<path class="st1" d="M180.8,30.3c0,1.1-0.2,2-0.7,2.8s-1.1,1.5-2,1.9c-0.8,0.5-1.8,0.7-2.9,0.7c-1.1,0-2.1-0.2-2.9-0.7
		c-0.8-0.5-1.5-1.1-2-1.9c-0.5-0.8-0.7-1.8-0.7-2.8V11.1h-7.4v19.8c0,2.3,0.5,4.3,1.6,6s2.6,3,4.5,3.9s4.2,1.4,6.8,1.4
		s4.8-0.5,6.8-1.4s3.5-2.2,4.6-3.9s1.6-3.7,1.6-6V11.1h-7.4L180.8,30.3L180.8,30.3z"/>
	<rect x="189.7" y="11.1" class="st1" width="7.4" height="30.7"/>
</g>
</svg>
