<svg version="1.1" id="Layer_1" xmlns="http://www.w3.org/2000/svg" x="0" y="0" viewBox="0 0 105.2 25.1" xml:space="preserve"><style>.st0{opacity:.5;enable-background:new}</style><path class="st0" d="M74.6 25.1H80v-2.7h-1.9V2.8H80V0h-5.4zM100.1 0v2.8h1.6v19.6h-1.6v2.7h5.1V0z"/><path d="M17.8 2.6h-5.2L9.1 8.7h-.2L5.4 2.6H.2l5.7 9.6L0 21.9h5.3l3.6-6.2h.2l3.5 6.2H18l-6-9.7z"/><path d="M24 18.4h-.5c-.2 0-.5 0-.6-.1-.2 0-.3-.2-.4-.4s-.1-.4-.1-.7v-6.5H25V7.4h-2.6V4h-4.6v3.5h-1.9v3.4h1.9v7c0 1 .2 1.8.6 2.5.4.6 1 1.1 1.8 1.4s1.7.5 2.8.4c.5 0 1-.1 1.4-.2.4-.1.7-.1 1-.2l-.7-3.3c-.3-.1-.5-.1-.7-.1z"/><path d="M36.8 9.1c-.6-.6-1.3-1.1-2.2-1.4-.8-.3-1.8-.5-2.8-.5-1.5 0-2.7.3-3.8 1s-1.9 1.5-2.5 2.6-.9 2.4-.9 3.9.3 2.9.9 4 1.5 2 2.5 2.5 2.4.9 3.9.9c1.2 0 2.4-.2 3.4-.6 1-.4 1.8-1 2.3-1.6s1-1.5 1.2-2.5l-4.2-.1c-.1.3-.3.6-.5.8-.2.2-.5.4-.8.5s-.7.1-1.1.1c-.6 0-1.1-.1-1.5-.4-.5-.2-.8-.6-1-1-.2-.5-.4-1-.4-1.6v-.1h9.6v-1.1c0-1.2-.2-2.2-.5-3.1-.6-.9-1-1.6-1.6-2.3zm-7.7 4c0-.4.1-.9.4-1.2.2-.4.5-.7 1-.9s.9-.4 1.4-.4c.5 0 .9.1 1.4.3s.7.5 1 .9.3.8.3 1.3h-5.5zM50.7 7.9c-.8-.4-1.7-.7-2.7-.7-1 0-2 .2-2.8.8s-1.3 1.2-1.7 2.1h-.2V7.4H39v14.5h4.6v-8.2c0-.6.1-1 .3-1.4s.5-.7.8-.9.8-.3 1.2-.3c.8 0 1.3.2 1.7.7s.6 1.1.6 1.9V22H53v-9.3c0-1.1-.2-2.1-.6-2.9-.4-.8-1-1.4-1.7-1.9zM63.3 9.9c-.3-.5-.5-.9-.8-1.3s-.8-.8-1.3-1-1.2-.4-2-.4c-1 0-2 .2-2.8.8s-1.6 1.4-2.1 2.4-.8 2.5-.8 4.2c0 1.6.2 3 .8 4.1.5 1.1 1.2 2 2.1 2.5.8.5 1.8.9 2.9.9.8 0 1.3-.1 1.9-.4.5-.2 1-.5 1.3-1 .3-.4.7-.8.8-1.2h.2v2.4H68V2.6h-4.6v7.3h-.1zm-.2 6.7c-.2.6-.5 1-.9 1.4-.4.3-.8.5-1.5.5-.5 0-1-.1-1.5-.5-.4-.3-.7-.8-.9-1.4s-.3-1.2-.3-2.1.1-1.4.3-2 .5-1 .9-1.4c.4-.3.9-.4 1.5-.4s1 .1 1.5.4.7.8.9 1.3.3 1.2.3 2.1c.1.9-.1 1.6-.3 2.1zM90.4 15.1c0 .6-.1 1-.3 1.4s-.6.8-1 1c-.4.2-.9.4-1.4.4-.6 0-1.1-.1-1.4-.4-.4-.2-.8-.5-1-1-.2-.4-.3-.9-.3-1.4V5.6h-3.7v9.9c0 1.2.2 2.2.8 3s1.3 1.5 2.2 2 2.1.7 3.4.7 2.4-.2 3.4-.7 1.8-1.1 2.3-2 .8-1.9.8-3V5.6h-3.7l-.1 9.5zM94.8 5.6h3.7V21h-3.7z"/></svg>
