<svg id="Layer_1" data-name="Layer 1" xmlns="http://www.w3.org/2000/svg" viewBox="0 0 120.9 38.1"><defs><style>.cls-1{isolation:isolate;}.cls-2{fill:#fff;}</style></defs><title>logo-white</title><g class="cls-1"><path class="cls-2" d="M14.8,14.8,22.3,2h7.1L18.7,19.6l11,17.9H22.5l-7.6-13-7.7,13H0L11,19.6.2,2H7.3Z"/><path class="cls-2" d="M39.6,4.7v6.4h4.7v4.4H39.6V30.2a3.4,3.4,0,0,0,.6,2.2,2.92,2.92,0,0,0,2.1.7,14.92,14.92,0,0,0,2.1-.2v4.6a14.26,14.26,0,0,1-3.9.6c-4.6,0-6.8-2.5-6.8-7.5v-15H29.4V11.2h4.3V4.7Z"/><path class="cls-2" d="M58.9,38a12,12,0,0,1-9.1-3.6,13.08,13.08,0,0,1-3.5-9.5v-.7a16.42,16.42,0,0,1,1.5-7.1,10.6,10.6,0,0,1,4.3-4.8,10.92,10.92,0,0,1,6.2-1.7c3.6,0,6.4,1.1,8.3,3.4s2.9,5.5,2.9,9.7v2.4H52.3a8,8,0,0,0,2.2,5.2,6.48,6.48,0,0,0,4.8,1.9,8,8,0,0,0,6.6-3.3L69.1,33a11.5,11.5,0,0,1-4.2,3.7A13.2,13.2,0,0,1,58.9,38Zm-.7-22.6a5.07,5.07,0,0,0-3.9,1.7,8.83,8.83,0,0,0-1.9,4.8H63.7v-.4A7.11,7.11,0,0,0,62.1,17,4.72,4.72,0,0,0,58.2,15.4Z"/><path class="cls-2" d="M78.1,11.1l.2,3.1A9.4,9.4,0,0,1,86,10.7c5.5,0,8.3,3.1,8.4,9.4V37.6H88.5V20.4a5.45,5.45,0,0,0-1.1-3.7,4.59,4.59,0,0,0-3.6-1.2,5.64,5.64,0,0,0-5.3,3.2V37.5H72.6V11.1Z"/><path class="cls-2" d="M97.8,24.1c0-4.1.9-7.3,2.8-9.8a9,9,0,0,1,7.6-3.7,8.76,8.76,0,0,1,6.8,2.9V0h5.9V37.5h-5.4l-.3-2.7a9.46,9.46,0,0,1-14.6-.5C98.8,31.8,97.8,28.4,97.8,24.1Zm6,.5a11.29,11.29,0,0,0,1.5,6.3,5,5,0,0,0,4.4,2.3A5.64,5.64,0,0,0,115,30V18.6a5.54,5.54,0,0,0-5.3-3.2,5,5,0,0,0-4.4,2.3C104.3,19.3,103.8,21.5,103.8,24.6Z"/></g></svg>