<?xml version="1.0" encoding="utf-8"?>
<!-- Generator: Adobe Illustrator 25.0.1, SVG Export Plug-In . SVG Version: 6.00 Build 0)  -->
<svg version="1.1" id="Layer_1" xmlns="http://www.w3.org/2000/svg" xmlns:xlink="http://www.w3.org/1999/xlink" x="0px" y="0px"
	 viewBox="0 0 122.1 23.5" style="enable-background:new 0 0 122.1 23.5;" xml:space="preserve">
<g id="LOGO" transform="translate(-38 -37.623)">
	<g id="Group_2992" transform="translate(38 37.523)">
		<g id="Group_2989" transform="translate(0 0.1)">
			<path id="Path_1826" d="M21.2,5.7L17,18.5h-3.9l-2.5-7.8l-2.5,7.8H4.2L0,5.7h4.2l2.3,8.2l2.4-8.2h3.4l2.4,8.2L17,5.7H21.2z"/>
			<path id="Path_1827" d="M34.6,13.1h-9.1c0.1,1.6,1.6,2.8,3.2,2.7c0,0,0,0,0.1,0c1.4,0,2.7-0.5,3.8-1.2l1.6,2.1
				c-1.7,1.5-3.9,2.2-6.1,2.1c-4,0-6.8-2.4-6.8-6.6s3.1-6.6,6.9-6.6c3.3-0.2,6.2,2.3,6.4,5.6c0,0.2,0,0.4,0,0.7L34.6,13.1z
				 M30.8,10.7c0-1.4-1.2-2.6-2.7-2.6c-1.4,0-2.5,1.2-2.6,2.6H30.8z"/>
			<path id="Path_1828" d="M44.7,18.8c-1.6,0.1-3.2-0.6-4.2-1.9l0,0v1.7h-4V0.6h4.1v4.3c0,1.2-0.1,2.4-0.1,2.4h0.1
				c1-1.2,2.5-1.9,4-1.8c3.7,0,6,2.9,6,6.6C50.7,15.9,48.4,18.8,44.7,18.8z M43.5,8.8c-1.7,0-3,1.3-3,3c0,0.1,0,0.2,0,0.3
				c-0.2,1.6,1,3.1,2.7,3.3c1.6,0.2,3.1-1,3.3-2.7c0-0.2,0-0.4,0-0.6c0.2-1.6-1-3.1-2.6-3.3C43.7,8.8,43.6,8.8,43.5,8.8z"/>
			<path id="Path_1829" d="M66.1,15.9c0,2.7-0.7,4.3-1.9,5.5c-1.2,1.2-2.9,2-5.9,2c-2.2,0-4.4-0.7-6.2-1.9l1.7-2.8
				c1.3,0.9,2.8,1.4,4.4,1.5c1.1,0.1,2.2-0.3,3-1c0.6-0.7,0.8-1.6,0.8-2.6v-0.4h-0.1c-1,1.2-2.5,1.9-4,1.8c-3.3,0.1-6-2.5-6-5.8
				c0-0.2,0-0.3,0-0.5c-0.2-3.2,2.2-6,5.5-6.3c0.2,0,0.4,0,0.6,0c1.6-0.1,3.1,0.6,4,1.9h0.1l-0.1-1.6H66v10.2H66.1z M59.1,8.7
				c-1.6,0-2.9,1.2-3,2.8c0,0.1,0,0.2,0,0.3c-0.1,1.6,1.2,3,2.9,3.1c1.6,0.1,3-1.2,3.1-2.9c0-0.1,0-0.2,0-0.3c0.1-1.6-1.1-3-2.7-3.1
				C59.3,8.7,59.2,8.7,59.1,8.7L59.1,8.7z"/>
			<path id="Path_1830" d="M77.1,9.5h-0.2c-0.5-0.2-1-0.3-1.5-0.3c-0.7,0-1.4,0.4-1.9,0.9c-0.5,0.8-0.7,1.7-0.7,2.7v5.7h-4.1V5.7
				h4.1v1.8h0.1c0.5-1.3,1.8-2.1,3.2-2.1c0.4,0,0.9,0.1,1.3,0.2L77.1,9.5z"/>
			<path id="Path_1831" d="M81,4.3c-1.2-0.1-2-1.2-1.9-2.4s1.2-2,2.4-1.9c1.1,0.1,1.9,1,1.9,2.1c0,1.2-1,2.1-2.2,2.1
				C81.2,4.3,81.1,4.3,81,4.3z M83.1,18.5h-4.1V5.7h4.1L83.1,18.5z"/>
			<path id="Path_1832" d="M102.4,3.5c-0.5-0.1-1-0.2-1.5-0.2c-1.2,0-1.5,0.7-1.5,1.6v0.9h2.7v3.1h-2.7v9.6h-4.1V8.9H91v9.6h-4.1
				V8.9h-1.6V5.7h1.6V5.1c-0.1-1.2,0.3-2.5,1-3.5c1-0.9,2.3-1.4,3.6-1.3c0.9,0,1.9,0.1,2.8,0.4l-0.2,2.9c-0.5-0.1-1-0.2-1.5-0.2
				c-1.2,0-1.5,0.7-1.5,1.6v0.9h4.2V5.1c-0.1-1.2,0.3-2.5,1-3.5c1-0.9,2.3-1.4,3.6-1.3c0.9,0,1.9,0.1,2.8,0.4L102.4,3.5z"/>
			<path id="Path_1833" d="M116.2,13.1h-9.1c0.1,1.6,1.6,2.8,3.2,2.7c0,0,0,0,0.1,0c1.4,0,2.7-0.5,3.8-1.2l1.6,2.1
				c-1.7,1.5-3.9,2.2-6.1,2.1c-4,0-6.8-2.4-6.8-6.6s3.1-6.6,6.9-6.6c3.3-0.2,6.2,2.3,6.4,5.6c0,0.2,0,0.4,0,0.7
				C116.2,12.4,116.2,13.1,116.2,13.1z M112.3,10.7c0-1.4-1.2-2.6-2.7-2.6c-1.4,0-2.5,1.2-2.6,2.6H112.3z"/>
		</g>
		<g id="Group_2990" transform="translate(116.968 3.268)">
			<path id="Path_1834" d="M2.6,5.1C1.2,5.1,0,4,0,2.6c0,0,0,0,0,0C0,1.1,1.2,0,2.6,0.1c1.4,0,2.5,1.1,2.5,2.5C5.1,4,4,5.1,2.6,5.1
				C2.6,5.1,2.6,5.1,2.6,5.1z M2.6,0.5c-1.1,0-2.1,0.9-2.1,2.1s0.9,2.1,2.1,2.1c1.1,0,2.1-0.9,2.1-2.1C4.6,1.5,3.7,0.6,2.6,0.5
				C2.6,0.5,2.6,0.5,2.6,0.5z M3.6,3.8H3l-0.5-1H2.3v1H1.8V1.4h0.9c0.5,0,0.9,0.2,0.9,0.7c0,0.3-0.2,0.6-0.5,0.7L3.6,3.8z M2.5,1.8
				H2.2v0.7h0.3c0.2,0,0.4-0.1,0.4-0.3C2.9,1.8,2.7,1.8,2.5,1.8L2.5,1.8z"/>
		</g>
	</g>
</g>
</svg>
