<?xml version="1.0" encoding="utf-8"?>
<!-- Generator: Adobe Illustrator 26.0.0, SVG Export Plug-In . SVG Version: 6.00 Build 0)  -->
<svg version="1.1" id="Layer_1" xmlns="http://www.w3.org/2000/svg" xmlns:xlink="http://www.w3.org/1999/xlink" x="0px" y="0px"
	 viewBox="0 0 128.8 30.7" style="enable-background:new 0 0 128.8 30.7;" xml:space="preserve">
<style type="text/css">
	.st0{fill:#FFFFFF;}
</style>
<g>
	<path class="st0" d="M128.8,25.7c0,2.8-2.2,5-5,5H5c-2.8,0-5-2.2-5-5V5c0-2.8,2.2-5,5-5h118.8c2.8,0,5,2.2,5,5V25.7z"/>
</g>
<g id="LOGO" transform="translate(-38 -37.623)">
	<g id="Group_2992" transform="translate(38 37.523)">
		<g id="Group_2989" transform="translate(0 0.1)">
			<path id="Path_1826" d="M24.6,9.6l-4.2,12.8h-3.9L14,14.6l-2.5,7.8H7.6L3.4,9.6h4.2l2.3,8.2l2.4-8.2h3.4l2.4,8.2l2.3-8.2H24.6z"
				/>
			<path id="Path_1827" d="M38,17h-9.1c0.1,1.6,1.6,2.8,3.2,2.7c0,0,0,0,0.1,0c1.4,0,2.7-0.5,3.8-1.2l1.6,2.1
				c-1.7,1.5-3.9,2.2-6.1,2.1c-4,0-6.8-2.4-6.8-6.6s3.1-6.6,6.9-6.6c3.3-0.2,6.2,2.3,6.4,5.6c0,0.2,0,0.4,0,0.7L38,17z M34.2,14.6
				c0-1.4-1.2-2.6-2.7-2.6c-1.4,0-2.5,1.2-2.6,2.6C28.9,14.6,34.2,14.6,34.2,14.6z"/>
			<path id="Path_1828" d="M48.1,22.7c-1.6,0.1-3.2-0.6-4.2-1.9l0,0v1.7h-4v-18H44v4.3c0,1.2-0.1,2.4-0.1,2.4H44
				c1-1.2,2.5-1.9,4-1.8c3.7,0,6,2.9,6,6.6C54.1,19.8,51.8,22.7,48.1,22.7z M46.9,12.7c-1.7,0-3,1.3-3,3c0,0.1,0,0.2,0,0.3
				c-0.2,1.6,1,3.1,2.7,3.3c1.6,0.2,3.1-1,3.3-2.7c0-0.2,0-0.4,0-0.6c0.2-1.6-1-3.1-2.6-3.3C47.1,12.7,47,12.7,46.9,12.7z"/>
			<path id="Path_1829" d="M69.5,19.8c0,2.7-0.7,4.3-1.9,5.5c-1.2,1.2-2.9,2-5.9,2c-2.2,0-4.4-0.7-6.2-1.9l1.7-2.8
				c1.3,0.9,2.8,1.4,4.4,1.5c1.1,0.1,2.2-0.3,3-1c0.6-0.7,0.8-1.6,0.8-2.6v-0.4h-0.1c-1,1.2-2.5,1.9-4,1.8c-3.3,0.1-6-2.5-6-5.8
				c0-0.2,0-0.3,0-0.5c-0.2-3.2,2.2-6,5.5-6.3c0.2,0,0.4,0,0.6,0c1.6-0.1,3.1,0.6,4,1.9h0.1l-0.1-1.6h4L69.5,19.8L69.5,19.8z
				 M62.5,12.6c-1.6,0-2.9,1.2-3,2.8c0,0.1,0,0.2,0,0.3c-0.1,1.6,1.2,3,2.9,3.1c1.6,0.1,3-1.2,3.1-2.9c0-0.1,0-0.2,0-0.3
				c0.1-1.6-1.1-3-2.7-3.1C62.7,12.6,62.6,12.6,62.5,12.6L62.5,12.6z"/>
			<path id="Path_1830" d="M80.5,13.4h-0.2c-0.5-0.2-1-0.3-1.5-0.3c-0.7,0-1.4,0.4-1.9,0.9c-0.5,0.8-0.7,1.7-0.7,2.7v5.7h-4.1V9.6
				h4.1v1.8h0.1c0.5-1.3,1.8-2.1,3.2-2.1c0.4,0,0.9,0.1,1.3,0.2L80.5,13.4z"/>
			<path id="Path_1831" d="M84.4,8.2c-1.2-0.1-2-1.2-1.9-2.4s1.2-2,2.4-1.9C86,4,86.8,4.9,86.8,6c0,1.2-1,2.1-2.2,2.1
				C84.6,8.2,84.5,8.2,84.4,8.2z M86.5,22.4h-4.1V9.6h4.1V22.4z"/>
			<path id="Path_1832" d="M105.8,7.4c-0.5-0.1-1-0.2-1.5-0.2c-1.2,0-1.5,0.7-1.5,1.6v0.9h2.7v3.1h-2.7v9.6h-4.1v-9.6h-4.3v9.6h-4.1
				v-9.6h-1.6V9.6h1.6V9c-0.1-1.2,0.3-2.5,1-3.5c1-0.9,2.3-1.4,3.6-1.3c0.9,0,1.9,0.1,2.8,0.4l-0.2,2.9c-0.5-0.1-1-0.2-1.5-0.2
				c-1.2,0-1.5,0.7-1.5,1.6v0.9h4.2V9c-0.1-1.2,0.3-2.5,1-3.5c1-0.9,2.3-1.4,3.6-1.3c0.9,0,1.9,0.1,2.8,0.4L105.8,7.4z"/>
			<path id="Path_1833" d="M119.6,17h-9.1c0.1,1.6,1.6,2.8,3.2,2.7c0,0,0,0,0.1,0c1.4,0,2.7-0.5,3.8-1.2l1.6,2.1
				c-1.7,1.5-3.9,2.2-6.1,2.1c-4,0-6.8-2.4-6.8-6.6s3.1-6.6,6.9-6.6c3.3-0.2,6.2,2.3,6.4,5.6c0,0.2,0,0.4,0,0.7
				C119.6,16.3,119.6,17,119.6,17z M115.7,14.6c0-1.4-1.2-2.6-2.7-2.6c-1.4,0-2.5,1.2-2.6,2.6C110.4,14.6,115.7,14.6,115.7,14.6z"/>
		</g>
		<g id="Group_2990" transform="translate(116.968 3.268)">
			<path id="Path_1834" d="M6,9C4.6,9,3.4,7.9,3.4,6.5l0,0C3.4,5,4.6,3.9,6,4c1.4,0,2.5,1.1,2.5,2.5S7.4,9,6,9L6,9z M6,4.4
				c-1.1,0-2.1,0.9-2.1,2.1S4.8,8.6,6,8.6c1.1,0,2.1-0.9,2.1-2.1C8,5.4,7.1,4.5,6,4.4L6,4.4z M7,7.7H6.4l-0.5-1H5.7v1H5.2V5.3h0.9
				C6.6,5.3,7,5.5,7,6c0,0.3-0.2,0.6-0.5,0.7L7,7.7z M5.9,5.7H5.6v0.7h0.3c0.2,0,0.4-0.1,0.4-0.3C6.3,5.7,6.1,5.7,5.9,5.7L5.9,5.7z"
				/>
		</g>
	</g>
</g>
</svg>
