<svg id="Layer_1" data-name="Layer 1" xmlns="http://www.w3.org/2000/svg" width="112.15" height="31.82" viewBox="0 0 112.15 31.82">
  <defs>
    <style>
      .cls-1 {
        fill: #fff;
      }

      .cls-2 {
        isolation: isolate;
        opacity: 0.5;
      }
    </style>
  </defs>
  <rect class="cls-1" width="112.15" height="31.82" rx="5"/>
  <polygon class="cls-2" points="77.89 28.41 83.29 28.41 83.29 25.71 81.39 25.71 81.39 6.11 83.29 6.11 83.29 3.31 77.89 3.31 77.89 28.41"/>
  <polygon class="cls-2" points="103.39 3.31 103.39 6.11 104.99 6.11 104.99 25.71 103.39 25.71 103.39 28.41 108.49 28.41 108.49 3.31 103.39 3.31"/>
  <g>
    <polygon points="21.09 5.91 15.89 5.91 12.39 12.01 12.19 12.01 8.69 5.91 3.49 5.91 9.19 15.51 3.29 25.21 8.59 25.21 12.19 19.01 12.39 19.01 15.89 25.21 21.29 25.21 15.29 15.51 21.09 5.91"/>
    <path d="M27.29,21.71h-.5c-.2,0-.5,0-.6-.1s-.3-.2-.4-.4a1.48,1.48,0,0,1-.1-.7V14h2.6v-3.3h-2.6V7.31h-4.6v3.5h-1.9v3.4h1.9v7a4.87,4.87,0,0,0,.6,2.5,3.68,3.68,0,0,0,1.8,1.4,6.14,6.14,0,0,0,2.8.4,5.9,5.9,0,0,0,1.4-.2c.4-.1.7-.1,1-.2l-.7-3.3A2,2,0,0,0,27.29,21.71Z"/>
    <path d="M40.09,12.41a5.55,5.55,0,0,0-2.2-1.4,8.21,8.21,0,0,0-2.8-.5,6.74,6.74,0,0,0-3.8,1,6.92,6.92,0,0,0-2.5,2.6,8,8,0,0,0-.9,3.9,8.43,8.43,0,0,0,.9,4,6,6,0,0,0,2.5,2.5,9,9,0,0,0,3.9.9,9.34,9.34,0,0,0,3.4-.6,5.47,5.47,0,0,0,3.5-4.1l-4.2-.1a2.1,2.1,0,0,1-1.3,1.3,3.75,3.75,0,0,1-1.1.1,2.41,2.41,0,0,1-1.5-.4,2,2,0,0,1-1-1,4.19,4.19,0,0,1-.4-1.6v-.1h9.6v-1.1a9.59,9.59,0,0,0-.5-3.1A22.89,22.89,0,0,0,40.09,12.41Zm-7.7,4a1.75,1.75,0,0,1,.4-1.2,1.79,1.79,0,0,1,1-.9,3.71,3.71,0,0,1,1.4-.4,3.53,3.53,0,0,1,1.4.3,2.19,2.19,0,0,1,1,.9,1.94,1.94,0,0,1,.3,1.3Z"/>
    <path d="M54,11.21a6,6,0,0,0-2.7-.7,4.59,4.59,0,0,0-2.8.8,5,5,0,0,0-1.7,2.1h-.2v-2.7h-4.3v14.5h4.6V17a2.9,2.9,0,0,1,.3-1.4,2.07,2.07,0,0,1,2-1.2,1.94,1.94,0,0,1,1.7.7,2.88,2.88,0,0,1,.6,1.9v8.3h4.8V16a6.53,6.53,0,0,0-.6-2.9A5.19,5.19,0,0,0,54,11.21Z"/>
    <path d="M66.59,13.21h0a14.8,14.8,0,0,0-.8-1.3,3.25,3.25,0,0,0-1.3-1,5.44,5.44,0,0,0-2-.4,4.59,4.59,0,0,0-2.8.8,7,7,0,0,0-2.1,2.4,9.81,9.81,0,0,0-.8,4.2,8.59,8.59,0,0,0,.8,4.1,5.25,5.25,0,0,0,2.1,2.5,5.53,5.53,0,0,0,2.9.9,3.81,3.81,0,0,0,1.9-.4,2.56,2.56,0,0,0,1.3-1,4.18,4.18,0,0,0,.8-1.2h.2v2.4h4.5V5.91h-4.6v7.3Zm-.2,6.7a3.39,3.39,0,0,1-.9,1.4,2.5,2.5,0,0,1-3,0,2.84,2.84,0,0,1-.9-1.4,6.23,6.23,0,0,1-.3-2.1,5.62,5.62,0,0,1,.3-2,3.39,3.39,0,0,1,.9-1.4A2.41,2.41,0,0,1,64,14a2.6,2.6,0,0,1,1.5.4,2.38,2.38,0,0,1,.9,1.3,5.84,5.84,0,0,1,.3,2.1A4.24,4.24,0,0,1,66.39,19.91Z"/>
    <path d="M93.69,18.41a2.9,2.9,0,0,1-.3,1.4,2.41,2.41,0,0,1-1,1,3.26,3.26,0,0,1-1.4.4,2,2,0,0,1-1.4-.4,2,2,0,0,1-1-1,3.19,3.19,0,0,1-.3-1.4V8.91h-3.7v9.9a4.82,4.82,0,0,0,.8,3,7,7,0,0,0,2.2,2,7.12,7.12,0,0,0,3.4.7,7.39,7.39,0,0,0,3.4-.7,5,5,0,0,0,2.3-2,6.11,6.11,0,0,0,.8-3V8.91h-3.7l-.1,9.5Z"/>
    <rect x="98.09" y="8.91" width="3.7" height="15.4"/>
  </g>
</svg>
