<?xml version="1.0" encoding="utf-8"?>
<!-- Generator: Adobe Illustrator 25.0.0, SVG Export Plug-In . SVG Version: 6.00 Build 0)  -->
<svg version="1.1" id="Layer_1" xmlns="http://www.w3.org/2000/svg" xmlns:xlink="http://www.w3.org/1999/xlink" x="0px" y="0px"
	 viewBox="0 0 1200 1200" style="enable-background:new 0 0 1200 1200;" xml:space="preserve">
<style type="text/css">
	.st0{fill:#777777;}
	.st1{fill:#7E7E7E;}
	.st2{fill:#FFFFFF;}
	.st3{opacity:0.5;fill:#FFFFFF;}
</style>
<g id="Layer_4">
	<rect y="0" class="st0" width="1200" height="1200"/>
</g>
<g id="Layer_5">
	<polygon class="st1" points="1160,60 1140,80 1120,100 1100,120 1080,140 1060,160 1040,180 1020,200 1000,220 980,240 960,260 
		940,280 920,300 900,320 880,340 860,360 840,380 820,400 800,420 780,440 760,460 740,480 720,500 700,520 680,540 660,560 
		640,580 620,600 600,620 580,640 560,660 540,680 520,700 500,720 480,740 460,760 440,780 420,800 400,820 380,840 360,860 
		340,880 320,900 300,920 280,940 260,960 240,980 220,1000 200,1020 180,1040 160,1060 140,1080 120,1100 100,1120 80,1140 
		60,1160 40,1180 20,1200 40,1200 80,1160 120,1120 160,1080 200,1040 240,1000 280,960 320,920 360,880 400,840 440,800 480,760 
		520,720 560,680 600,640 640,600 680,560 720,520 760,480 800,440 840,400 880,360 920,320 960,280 1000,240 1040,200 1080,160 
		1120,120 1160,80 1200,40 1200,20 1180,40 	"/>
	<polygon class="st1" points="1160,100 1140,120 1120,140 1100,160 1080,180 1060,200 1040,220 1020,240 1000,260 980,280 960,300 
		940,320 920,340 900,360 880,380 860,400 840,420 820,440 800,460 780,480 760,500 740,520 720,540 700,560 680,580 660,600 
		640,620 620,640 600,660 580,680 560,700 540,720 520,740 500,760 480,780 460,800 440,820 420,840 400,860 380,880 360,900 
		340,920 320,940 300,960 280,980 260,1000 240,1020 220,1040 200,1060 180,1080 160,1100 140,1120 120,1140 100,1160 80,1180 
		60,1200 80,1200 120,1160 160,1120 200,1080 240,1040 280,1000 320,960 360,920 400,880 440,840 480,800 520,760 560,720 600,680 
		640,640 680,600 720,560 760,520 800,480 840,440 880,400 920,360 960,320 1000,280 1040,240 1080,200 1120,160 1160,120 1200,80 
		1200,60 1180,80 	"/>
	<polygon class="st1" points="1160,140 1140,160 1120,180 1100,200 1080,220 1060,240 1040,260 1020,280 1000,300 980,320 960,340 
		940,360 920,380 900,400 880,420 860,440 840,460 820,480 800,500 780,520 760,540 740,560 720,580 700,600 680,620 660,640 
		640,660 620,680 600,700 580,720 560,740 540,760 520,780 500,800 480,820 460,840 440,860 420,880 400,900 380,920 360,940 
		340,960 320,980 300,1000 280,1020 260,1040 240,1060 220,1080 200,1100 180,1120 160,1140 140,1160 120,1180 100,1200 120,1200 
		160,1160 200,1120 240,1080 280,1040 320,1000 360,960 400,920 440,880 480,840 520,800 560,760 600,720 640,680 680,640 720,600 
		760,560 800,520 840,480 880,440 920,400 960,360 1000,320 1040,280 1080,240 1120,200 1160,160 1200,120 1200,100 1180,120 	"/>
	<polygon class="st1" points="1160,180 1140,200 1120,220 1100,240 1080,260 1060,280 1040,300 1020,320 1000,340 980,360 960,380 
		940,400 920,420 900,440 880,460 860,480 840,500 820,520 800,540 780,560 760,580 740,600 720,620 700,640 680,660 660,680 
		640,700 620,720 600,740 580,760 560,780 540,800 520,820 500,840 480,860 460,880 440,900 420,920 400,940 380,960 360,980 
		340,1000 320,1020 300,1040 280,1060 260,1080 240,1100 220,1120 200,1140 180,1160 160,1180 140,1200 160,1200 200,1160 240,1120 
		280,1080 320,1040 360,1000 400,960 440,920 480,880 520,840 560,800 600,760 640,720 680,680 720,640 760,600 800,560 840,520 
		880,480 920,440 960,400 1000,360 1040,320 1080,280 1120,240 1160,200 1200,160 1200,140 1180,160 	"/>
	<polygon class="st1" points="1160,220 1140,240 1120,260 1100,280 1080,300 1060,320 1040,340 1020,360 1000,380 980,400 960,420 
		940,440 920,460 900,480 880,500 860,520 840,540 820,560 800,580 780,600 760,620 740,640 720,660 700,680 680,700 660,720 
		640,740 620,760 600,780 580,800 560,820 540,840 520,860 500,880 480,900 460,920 440,940 420,960 400,980 380,1000 360,1020 
		340,1040 320,1060 300,1080 280,1100 260,1120 240,1140 220,1160 200,1180 180,1200 200,1200 240,1160 280,1120 320,1080 360,1040 
		400,1000 440,960 480,920 520,880 560,840 600,800 640,760 680,720 720,680 760,640 800,600 840,560 880,520 920,480 960,440 
		1000,400 1040,360 1080,320 1120,280 1160,240 1200,200 1200,180 1180,200 	"/>
	<polygon class="st1" points="1160,260 1140,280 1120,300 1100,320 1080,340 1060,360 1040,380 1020,400 1000,420 980,440 960,460 
		940,480 920,500 900,520 880,540 860,560 840,580 820,600 800,620 780,640 760,660 740,680 720,700 700,720 680,740 660,760 
		640,780 620,800 600,820 580,840 560,860 540,880 520,900 500,920 480,940 460,960 440,980 420,1000 400,1020 380,1040 360,1060 
		340,1080 320,1100 300,1120 280,1140 260,1160 240,1180 220,1200 240,1200 280,1160 320,1120 360,1080 400,1040 440,1000 480,960 
		520,920 560,880 600,840 640,800 680,760 720,720 760,680 800,640 840,600 880,560 920,520 960,480 1000,440 1040,400 1080,360 
		1120,320 1160,280 1200,240 1200,220 1180,240 	"/>
	<polygon class="st1" points="1160,300 1140,320 1120,340 1100,360 1080,380 1060,400 1040,420 1020,440 1000,460 980,480 960,500 
		940,520 920,540 900,560 880,580 860,600 840,620 820,640 800,660 780,680 760,700 740,720 720,740 700,760 680,780 660,800 
		640,820 620,840 600,860 580,880 560,900 540,920 520,940 500,960 480,980 460,1000 440,1020 420,1040 400,1060 380,1080 360,1100 
		340,1120 320,1140 300,1160 280,1180 260,1200 280,1200 320,1160 360,1120 400,1080 440,1040 480,1000 520,960 560,920 600,880 
		640,840 680,800 720,760 760,720 800,680 840,640 880,600 920,560 960,520 1000,480 1040,440 1080,400 1120,360 1160,320 1200,280 
		1200,260 1180,280 	"/>
	<polygon class="st1" points="1160,340 1140,360 1120,380 1100,400 1080,420 1060,440 1040,460 1020,480 1000,500 980,520 960,540 
		940,560 920,580 900,600 880,620 860,640 840,660 820,680 800,700 780,720 760,740 740,760 720,780 700,800 680,820 660,840 
		640,860 620,880 600,900 580,920 560,940 540,960 520,980 500,1000 480,1020 460,1040 440,1060 420,1080 400,1100 380,1120 
		360,1140 340,1160 320,1180 300,1200 320,1200 360,1160 400,1120 440,1080 480,1040 520,1000 560,960 600,920 640,880 680,840 
		720,800 760,760 800,720 840,680 880,640 920,600 960,560 1000,520 1040,480 1080,440 1120,400 1160,360 1200,320 1200,300 
		1180,320 	"/>
	<polygon class="st1" points="1160,380 1140,400 1120,420 1100,440 1080,460 1060,480 1040,500 1020,520 1000,540 980,560 960,580 
		940,600 920,620 900,640 880,660 860,680 840,700 820,720 800,740 780,760 760,780 740,800 720,820 700,840 680,860 660,880 
		640,900 620,920 600,940 580,960 560,980 540,1000 520,1020 500,1040 480,1060 460,1080 440,1100 420,1120 400,1140 380,1160 
		360,1180 340,1200 360,1200 400,1160 440,1120 480,1080 520,1040 560,1000 600,960 640,920 680,880 720,840 760,800 800,760 
		840,720 880,680 920,640 960,600 1000,560 1040,520 1080,480 1120,440 1160,400 1200,360 1200,340 1180,360 	"/>
	<polygon class="st1" points="1160,420 1140,440 1120,460 1100,480 1080,500 1060,520 1040,540 1020,560 1000,580 980,600 960,620 
		940,640 920,660 900,680 880,700 860,720 840,740 820,760 800,780 780,800 760,820 740,840 720,860 700,880 680,900 660,920 
		640,940 620,960 600,980 580,1000 560,1020 540,1040 520,1060 500,1080 480,1100 460,1120 440,1140 420,1160 400,1180 380,1200 
		400,1200 440,1160 480,1120 520,1080 560,1040 600,1000 640,960 680,920 720,880 760,840 800,800 840,760 880,720 920,680 960,640 
		1000,600 1040,560 1080,520 1120,480 1160,440 1200,400 1200,380 1180,400 	"/>
	<polygon class="st1" points="1160,460 1140,480 1120,500 1100,520 1080,540 1060,560 1040,580 1020,600 1000,620 980,640 960,660 
		940,680 920,700 900,720 880,740 860,760 840,780 820,800 800,820 780,840 760,860 740,880 720,900 700,920 680,940 660,960 
		640,980 620,1000 600,1020 580,1040 560,1060 540,1080 520,1100 500,1120 480,1140 460,1160 440,1180 420,1200 440,1200 480,1160 
		520,1120 560,1080 600,1040 640,1000 680,960 720,920 760,880 800,840 840,800 880,760 920,720 960,680 1000,640 1040,600 
		1080,560 1120,520 1160,480 1200,440 1200,420 1180,440 	"/>
	<polygon class="st1" points="1160,500 1140,520 1120,540 1100,560 1080,580 1060,600 1040,620 1020,640 1000,660 980,680 960,700 
		940,720 920,740 900,760 880,780 860,800 840,820 820,840 800,860 780,880 760,900 740,920 720,940 700,960 680,980 660,1000 
		640,1020 620,1040 600,1060 580,1080 560,1100 540,1120 520,1140 500,1160 480,1180 460,1200 480,1200 520,1160 560,1120 600,1080 
		640,1040 680,1000 720,960 760,920 800,880 840,840 880,800 920,760 960,720 1000,680 1040,640 1080,600 1120,560 1160,520 
		1200,480 1200,460 1180,480 	"/>
	<polygon class="st1" points="1160,540 1140,560 1120,580 1100,600 1080,620 1060,640 1040,660 1020,680 1000,700 980,720 960,740 
		940,760 920,780 900,800 880,820 860,840 840,860 820,880 800,900 780,920 760,940 740,960 720,980 700,1000 680,1020 660,1040 
		640,1060 620,1080 600,1100 580,1120 560,1140 540,1160 520,1180 500,1200 520,1200 560,1160 600,1120 640,1080 680,1040 720,1000 
		760,960 800,920 840,880 880,840 920,800 960,760 1000,720 1040,680 1080,640 1120,600 1160,560 1200,520 1200,500 1180,520 	"/>
	<polygon class="st1" points="1160,580 1140,600 1120,620 1100,640 1080,660 1060,680 1040,700 1020,720 1000,740 980,760 960,780 
		940,800 920,820 900,840 880,860 860,880 840,900 820,920 800,940 780,960 760,980 740,1000 720,1020 700,1040 680,1060 660,1080 
		640,1100 620,1120 600,1140 580,1160 560,1180 540,1200 560,1200 600,1160 640,1120 680,1080 720,1040 760,1000 800,960 840,920 
		880,880 920,840 960,800 1000,760 1040,720 1080,680 1120,640 1160,600 1200,560 1200,540 1180,560 	"/>
	<polygon class="st1" points="1160,620 1140,640 1120,660 1100,680 1080,700 1060,720 1040,740 1020,760 1000,780 980,800 960,820 
		940,840 920,860 900,880 880,900 860,920 840,940 820,960 800,980 780,1000 760,1020 740,1040 720,1060 700,1080 680,1100 
		660,1120 640,1140 620,1160 600,1180 580,1200 600,1200 640,1160 680,1120 720,1080 760,1040 800,1000 840,960 880,920 920,880 
		960,840 1000,800 1040,760 1080,720 1120,680 1160,640 1200,600 1200,580 1180,600 	"/>
	<polygon class="st1" points="1160,660 1140,680 1120,700 1100,720 1080,740 1060,760 1040,780 1020,800 1000,820 980,840 960,860 
		940,880 920,900 900,920 880,940 860,960 840,980 820,1000 800,1020 780,1040 760,1060 740,1080 720,1100 700,1120 680,1140 
		660,1160 640,1180 620,1200 640,1200 680,1160 720,1120 760,1080 800,1040 840,1000 880,960 920,920 960,880 1000,840 1040,800 
		1080,760 1120,720 1160,680 1200,640 1200,620 1180,640 	"/>
	<polygon class="st1" points="1160,700 1140,720 1120,740 1100,760 1080,780 1060,800 1040,820 1020,840 1000,860 980,880 960,900 
		940,920 920,940 900,960 880,980 860,1000 840,1020 820,1040 800,1060 780,1080 760,1100 740,1120 720,1140 700,1160 680,1180 
		660,1200 680,1200 720,1160 760,1120 800,1080 840,1040 880,1000 920,960 960,920 1000,880 1040,840 1080,800 1120,760 1160,720 
		1200,680 1200,660 1180,680 	"/>
	<polygon class="st1" points="1160,740 1140,760 1120,780 1100,800 1080,820 1060,840 1040,860 1020,880 1000,900 980,920 960,940 
		940,960 920,980 900,1000 880,1020 860,1040 840,1060 820,1080 800,1100 780,1120 760,1140 740,1160 720,1180 700,1200 720,1200 
		760,1160 800,1120 840,1080 880,1040 920,1000 960,960 1000,920 1040,880 1080,840 1120,800 1160,760 1200,720 1200,700 1180,720 	
		"/>
	<polygon class="st1" points="1160,780 1140,800 1120,820 1100,840 1080,860 1060,880 1040,900 1020,920 1000,940 980,960 960,980 
		940,1000 920,1020 900,1040 880,1060 860,1080 840,1100 820,1120 800,1140 780,1160 760,1180 740,1200 760,1200 800,1160 840,1120 
		880,1080 920,1040 960,1000 1000,960 1040,920 1080,880 1120,840 1160,800 1200,760 1200,740 1180,760 	"/>
	<polygon class="st1" points="1160,820 1140,840 1120,860 1100,880 1080,900 1060,920 1040,940 1020,960 1000,980 980,1000 
		960,1020 940,1040 920,1060 900,1080 880,1100 860,1120 840,1140 820,1160 800,1180 780,1200 800,1200 840,1160 880,1120 920,1080 
		960,1040 1000,1000 1040,960 1080,920 1120,880 1160,840 1200,800 1200,780 1180,800 	"/>
	<polygon class="st1" points="1160,860 1140,880 1120,900 1100,920 1080,940 1060,960 1040,980 1020,1000 1000,1020 980,1040 
		960,1060 940,1080 920,1100 900,1120 880,1140 860,1160 840,1180 820,1200 840,1200 880,1160 920,1120 960,1080 1000,1040 
		1040,1000 1080,960 1120,920 1160,880 1200,840 1200,820 1180,840 	"/>
	<polygon class="st1" points="1160,900 1140,920 1120,940 1100,960 1080,980 1060,1000 1040,1020 1020,1040 1000,1060 980,1080 
		960,1100 940,1120 920,1140 900,1160 880,1180 860,1200 880,1200 920,1160 960,1120 1000,1080 1040,1040 1080,1000 1120,960 
		1160,920 1200,880 1200,860 1180,880 	"/>
	<polygon class="st1" points="1160,940 1140,960 1120,980 1100,1000 1080,1020 1060,1040 1040,1060 1020,1080 1000,1100 980,1120 
		960,1140 940,1160 920,1180 900,1200 920,1200 960,1160 1000,1120 1040,1080 1080,1040 1120,1000 1160,960 1200,920 1200,900 
		1180,920 	"/>
	<polygon class="st1" points="1160,980 1140,1000 1120,1020 1100,1040 1080,1060 1060,1080 1040,1100 1020,1120 1000,1140 980,1160 
		960,1180 940,1200 960,1200 1000,1160 1040,1120 1080,1080 1120,1040 1160,1000 1200,960 1200,940 1180,960 	"/>
	<polygon class="st1" points="1160,1020 1140,1040 1120,1060 1100,1080 1080,1100 1060,1120 1040,1140 1020,1160 1000,1180 
		980,1200 1000,1200 1040,1160 1080,1120 1120,1080 1160,1040 1200,1000 1200,980 1180,1000 	"/>
	<polygon class="st1" points="1160,1060 1140,1080 1120,1100 1100,1120 1080,1140 1060,1160 1040,1180 1020,1200 1040,1200 
		1080,1160 1120,1120 1160,1080 1200,1040 1200,1020 1180,1040 	"/>
	<polygon class="st1" points="1160,1100 1140,1120 1120,1140 1100,1160 1080,1180 1060,1200 1080,1200 1120,1160 1160,1120 
		1200,1080 1200,1060 1180,1080 	"/>
	<polygon class="st1" points="1160,1140 1140,1160 1120,1180 1100,1200 1120,1200 1160,1160 1200,1120 1200,1100 1180,1120 	"/>
	<polygon class="st1" points="1160,1180 1140,1200 1160,1200 1200,1160 1200,1140 1180,1160 	"/>
	<polygon class="st1" points="1200,1200 1200,1180 1180,1200 	"/>
	<polygon class="st1" points="80,0 60,0 40,20 20,40 0,60 0,80 40,40 	"/>
	<polygon class="st1" points="80,40 120,0 100,0 80,20 60,40 40,60 20,80 0,100 0,120 40,80 	"/>
	<polygon class="st1" points="80,80 120,40 160,0 140,0 120,20 100,40 80,60 60,80 40,100 20,120 0,140 0,160 40,120 	"/>
	<polygon class="st1" points="80,120 120,80 160,40 200,0 180,0 160,20 140,40 120,60 100,80 80,100 60,120 40,140 20,160 0,180 
		0,200 40,160 	"/>
	<polygon class="st1" points="80,160 120,120 160,80 200,40 240,0 220,0 200,20 180,40 160,60 140,80 120,100 100,120 80,140 
		60,160 40,180 20,200 0,220 0,240 40,200 	"/>
	<polygon class="st1" points="80,200 120,160 160,120 200,80 240,40 280,0 260,0 240,20 220,40 200,60 180,80 160,100 140,120 
		120,140 100,160 80,180 60,200 40,220 20,240 0,260 0,280 40,240 	"/>
	<polygon class="st1" points="80,240 120,200 160,160 200,120 240,80 280,40 320,0 300,0 280,20 260,40 240,60 220,80 200,100 
		180,120 160,140 140,160 120,180 100,200 80,220 60,240 40,260 20,280 0,300 0,320 40,280 	"/>
	<polygon class="st1" points="80,280 120,240 160,200 200,160 240,120 280,80 320,40 360,0 340,0 320,20 300,40 280,60 260,80 
		240,100 220,120 200,140 180,160 160,180 140,200 120,220 100,240 80,260 60,280 40,300 20,320 0,340 0,360 40,320 	"/>
	<polygon class="st1" points="80,320 120,280 160,240 200,200 240,160 280,120 320,80 360,40 400,0 380,0 360,20 340,40 320,60 
		300,80 280,100 260,120 240,140 220,160 200,180 180,200 160,220 140,240 120,260 100,280 80,300 60,320 40,340 20,360 0,380 
		0,400 40,360 	"/>
	<polygon class="st1" points="80,360 120,320 160,280 200,240 240,200 280,160 320,120 360,80 400,40 440,0 420,0 400,20 380,40 
		360,60 340,80 320,100 300,120 280,140 260,160 240,180 220,200 200,220 180,240 160,260 140,280 120,300 100,320 80,340 60,360 
		40,380 20,400 0,420 0,440 40,400 	"/>
	<polygon class="st1" points="80,400 120,360 160,320 200,280 240,240 280,200 320,160 360,120 400,80 440,40 480,0 460,0 440,20 
		420,40 400,60 380,80 360,100 340,120 320,140 300,160 280,180 260,200 240,220 220,240 200,260 180,280 160,300 140,320 120,340 
		100,360 80,380 60,400 40,420 20,440 0,460 0,480 40,440 	"/>
	<polygon class="st1" points="80,440 120,400 160,360 200,320 240,280 280,240 320,200 360,160 400,120 440,80 480,40 520,0 500,0 
		480,20 460,40 440,60 420,80 400,100 380,120 360,140 340,160 320,180 300,200 280,220 260,240 240,260 220,280 200,300 180,320 
		160,340 140,360 120,380 100,400 80,420 60,440 40,460 20,480 0,500 0,520 40,480 	"/>
	<polygon class="st1" points="80,480 120,440 160,400 200,360 240,320 280,280 320,240 360,200 400,160 440,120 480,80 520,40 
		560,0 540,0 520,20 500,40 480,60 460,80 440,100 420,120 400,140 380,160 360,180 340,200 320,220 300,240 280,260 260,280 
		240,300 220,320 200,340 180,360 160,380 140,400 120,420 100,440 80,460 60,480 40,500 20,520 0,540 0,560 40,520 	"/>
	<polygon class="st1" points="80,520 120,480 160,440 200,400 240,360 280,320 320,280 360,240 400,200 440,160 480,120 520,80 
		560,40 600,0 580,0 560,20 540,40 520,60 500,80 480,100 460,120 440,140 420,160 400,180 380,200 360,220 340,240 320,260 
		300,280 280,300 260,320 240,340 220,360 200,380 180,400 160,420 140,440 120,460 100,480 80,500 60,520 40,540 20,560 0,580 
		0,600 40,560 	"/>
	<polygon class="st1" points="80,560 120,520 160,480 200,440 240,400 280,360 320,320 360,280 400,240 440,200 480,160 520,120 
		560,80 600,40 640,0 620,0 600,20 580,40 560,60 540,80 520,100 500,120 480,140 460,160 440,180 420,200 400,220 380,240 360,260 
		340,280 320,300 300,320 280,340 260,360 240,380 220,400 200,420 180,440 160,460 140,480 120,500 100,520 80,540 60,560 40,580 
		20,600 0,620 0,640 40,600 	"/>
	<polygon class="st1" points="80,600 120,560 160,520 200,480 240,440 280,400 320,360 360,320 400,280 440,240 480,200 520,160 
		560,120 600,80 640,40 680,0 660,0 640,20 620,40 600,60 580,80 560,100 540,120 520,140 500,160 480,180 460,200 440,220 420,240 
		400,260 380,280 360,300 340,320 320,340 300,360 280,380 260,400 240,420 220,440 200,460 180,480 160,500 140,520 120,540 
		100,560 80,580 60,600 40,620 20,640 0,660 0,680 40,640 	"/>
	<polygon class="st1" points="80,640 120,600 160,560 200,520 240,480 280,440 320,400 360,360 400,320 440,280 480,240 520,200 
		560,160 600,120 640,80 680,40 720,0 700,0 680,20 660,40 640,60 620,80 600,100 580,120 560,140 540,160 520,180 500,200 480,220 
		460,240 440,260 420,280 400,300 380,320 360,340 340,360 320,380 300,400 280,420 260,440 240,460 220,480 200,500 180,520 
		160,540 140,560 120,580 100,600 80,620 60,640 40,660 20,680 0,700 0,720 40,680 	"/>
	<polygon class="st1" points="80,680 120,640 160,600 200,560 240,520 280,480 320,440 360,400 400,360 440,320 480,280 520,240 
		560,200 600,160 640,120 680,80 720,40 760,0 740,0 720,20 700,40 680,60 660,80 640,100 620,120 600,140 580,160 560,180 540,200 
		520,220 500,240 480,260 460,280 440,300 420,320 400,340 380,360 360,380 340,400 320,420 300,440 280,460 260,480 240,500 
		220,520 200,540 180,560 160,580 140,600 120,620 100,640 80,660 60,680 40,700 20,720 0,740 0,760 40,720 	"/>
	<polygon class="st1" points="80,720 120,680 160,640 200,600 240,560 280,520 320,480 360,440 400,400 440,360 480,320 520,280 
		560,240 600,200 640,160 680,120 720,80 760,40 800,0 780,0 760,20 740,40 720,60 700,80 680,100 660,120 640,140 620,160 600,180 
		580,200 560,220 540,240 520,260 500,280 480,300 460,320 440,340 420,360 400,380 380,400 360,420 340,440 320,460 300,480 
		280,500 260,520 240,540 220,560 200,580 180,600 160,620 140,640 120,660 100,680 80,700 60,720 40,740 20,760 0,780 0,800 
		40,760 	"/>
	<polygon class="st1" points="80,760 120,720 160,680 200,640 240,600 280,560 320,520 360,480 400,440 440,400 480,360 520,320 
		560,280 600,240 640,200 680,160 720,120 760,80 800,40 840,0 820,0 800,20 780,40 760,60 740,80 720,100 700,120 680,140 660,160 
		640,180 620,200 600,220 580,240 560,260 540,280 520,300 500,320 480,340 460,360 440,380 420,400 400,420 380,440 360,460 
		340,480 320,500 300,520 280,540 260,560 240,580 220,600 200,620 180,640 160,660 140,680 120,700 100,720 80,740 60,760 40,780 
		20,800 0,820 0,840 40,800 	"/>
	<polygon class="st1" points="80,800 120,760 160,720 200,680 240,640 280,600 320,560 360,520 400,480 440,440 480,400 520,360 
		560,320 600,280 640,240 680,200 720,160 760,120 800,80 840,40 880,0 860,0 840,20 820,40 800,60 780,80 760,100 740,120 720,140 
		700,160 680,180 660,200 640,220 620,240 600,260 580,280 560,300 540,320 520,340 500,360 480,380 460,400 440,420 420,440 
		400,460 380,480 360,500 340,520 320,540 300,560 280,580 260,600 240,620 220,640 200,660 180,680 160,700 140,720 120,740 
		100,760 80,780 60,800 40,820 20,840 0,860 0,880 40,840 	"/>
	<polygon class="st1" points="80,840 120,800 160,760 200,720 240,680 280,640 320,600 360,560 400,520 440,480 480,440 520,400 
		560,360 600,320 640,280 680,240 720,200 760,160 800,120 840,80 880,40 920,0 900,0 880,20 860,40 840,60 820,80 800,100 780,120 
		760,140 740,160 720,180 700,200 680,220 660,240 640,260 620,280 600,300 580,320 560,340 540,360 520,380 500,400 480,420 
		460,440 440,460 420,480 400,500 380,520 360,540 340,560 320,580 300,600 280,620 260,640 240,660 220,680 200,700 180,720 
		160,740 140,760 120,780 100,800 80,820 60,840 40,860 20,880 0,900 0,920 40,880 	"/>
	<polygon class="st1" points="80,880 120,840 160,800 200,760 240,720 280,680 320,640 360,600 400,560 440,520 480,480 520,440 
		560,400 600,360 640,320 680,280 720,240 760,200 800,160 840,120 880,80 920,40 960,0 940,0 920,20 900,40 880,60 860,80 840,100 
		820,120 800,140 780,160 760,180 740,200 720,220 700,240 680,260 660,280 640,300 620,320 600,340 580,360 560,380 540,400 
		520,420 500,440 480,460 460,480 440,500 420,520 400,540 380,560 360,580 340,600 320,620 300,640 280,660 260,680 240,700 
		220,720 200,740 180,760 160,780 140,800 120,820 100,840 80,860 60,880 40,900 20,920 0,940 0,960 40,920 	"/>
	<polygon class="st1" points="80,920 120,880 160,840 200,800 240,760 280,720 320,680 360,640 400,600 440,560 480,520 520,480 
		560,440 600,400 640,360 680,320 720,280 760,240 800,200 840,160 880,120 920,80 960,40 1000,0 980,0 960,20 940,40 920,60 
		900,80 880,100 860,120 840,140 820,160 800,180 780,200 760,220 740,240 720,260 700,280 680,300 660,320 640,340 620,360 
		600,380 580,400 560,420 540,440 520,460 500,480 480,500 460,520 440,540 420,560 400,580 380,600 360,620 340,640 320,660 
		300,680 280,700 260,720 240,740 220,760 200,780 180,800 160,820 140,840 120,860 100,880 80,900 60,920 40,940 20,960 0,980 
		0,1000 40,960 	"/>
	<polygon class="st1" points="80,960 120,920 160,880 200,840 240,800 280,760 320,720 360,680 400,640 440,600 480,560 520,520 
		560,480 600,440 640,400 680,360 720,320 760,280 800,240 840,200 880,160 920,120 960,80 1000,40 1040,0 1020,0 1000,20 980,40 
		960,60 940,80 920,100 900,120 880,140 860,160 840,180 820,200 800,220 780,240 760,260 740,280 720,300 700,320 680,340 660,360 
		640,380 620,400 600,420 580,440 560,460 540,480 520,500 500,520 480,540 460,560 440,580 420,600 400,620 380,640 360,660 
		340,680 320,700 300,720 280,740 260,760 240,780 220,800 200,820 180,840 160,860 140,880 120,900 100,920 80,940 60,960 40,980 
		20,1000 0,1020 0,1040 40,1000 	"/>
	<polygon class="st1" points="80,1000 120,960 160,920 200,880 240,840 280,800 320,760 360,720 400,680 440,640 480,600 520,560 
		560,520 600,480 640,440 680,400 720,360 760,320 800,280 840,240 880,200 920,160 960,120 1000,80 1040,40 1080,0 1060,0 1040,20 
		1020,40 1000,60 980,80 960,100 940,120 920,140 900,160 880,180 860,200 840,220 820,240 800,260 780,280 760,300 740,320 
		720,340 700,360 680,380 660,400 640,420 620,440 600,460 580,480 560,500 540,520 520,540 500,560 480,580 460,600 440,620 
		420,640 400,660 380,680 360,700 340,720 320,740 300,760 280,780 260,800 240,820 220,840 200,860 180,880 160,900 140,920 
		120,940 100,960 80,980 60,1000 40,1020 20,1040 0,1060 0,1080 40,1040 	"/>
	<polygon class="st1" points="80,1040 120,1000 160,960 200,920 240,880 280,840 320,800 360,760 400,720 440,680 480,640 520,600 
		560,560 600,520 640,480 680,440 720,400 760,360 800,320 840,280 880,240 920,200 960,160 1000,120 1040,80 1080,40 1120,0 
		1100,0 1080,20 1060,40 1040,60 1020,80 1000,100 980,120 960,140 940,160 920,180 900,200 880,220 860,240 840,260 820,280 
		800,300 780,320 760,340 740,360 720,380 700,400 680,420 660,440 640,460 620,480 600,500 580,520 560,540 540,560 520,580 
		500,600 480,620 460,640 440,660 420,680 400,700 380,720 360,740 340,760 320,780 300,800 280,820 260,840 240,860 220,880 
		200,900 180,920 160,940 140,960 120,980 100,1000 80,1020 60,1040 40,1060 20,1080 0,1100 0,1120 40,1080 	"/>
	<polygon class="st1" points="80,1080 120,1040 160,1000 200,960 240,920 280,880 320,840 360,800 400,760 440,720 480,680 520,640 
		560,600 600,560 640,520 680,480 720,440 760,400 800,360 840,320 880,280 920,240 960,200 1000,160 1040,120 1080,80 1120,40 
		1160,0 1140,0 1120,20 1100,40 1080,60 1060,80 1040,100 1020,120 1000,140 980,160 960,180 940,200 920,220 900,240 880,260 
		860,280 840,300 820,320 800,340 780,360 760,380 740,400 720,420 700,440 680,460 660,480 640,500 620,520 600,540 580,560 
		560,580 540,600 520,620 500,640 480,660 460,680 440,700 420,720 400,740 380,760 360,780 340,800 320,820 300,840 280,860 
		260,880 240,900 220,920 200,940 180,960 160,980 140,1000 120,1020 100,1040 80,1060 60,1080 40,1100 20,1120 0,1140 0,1160 
		40,1120 	"/>
	<polygon class="st1" points="80,1120 120,1080 160,1040 200,1000 240,960 280,920 320,880 360,840 400,800 440,760 480,720 
		520,680 560,640 600,600 640,560 680,520 720,480 760,440 800,400 840,360 880,320 920,280 960,240 1000,200 1040,160 1080,120 
		1120,80 1160,40 1200,0 1180,0 1160,20 1140,40 1120,60 1100,80 1080,100 1060,120 1040,140 1020,160 1000,180 980,200 960,220 
		940,240 920,260 900,280 880,300 860,320 840,340 820,360 800,380 780,400 760,420 740,440 720,460 700,480 680,500 660,520 
		640,540 620,560 600,580 580,600 560,620 540,640 520,660 500,680 480,700 460,720 440,740 420,760 400,780 380,800 360,820 
		340,840 320,860 300,880 280,900 260,920 240,940 220,960 200,980 180,1000 160,1020 140,1040 120,1060 100,1080 80,1100 60,1120 
		40,1140 20,1160 0,1180 0,1200 40,1160 	"/>
	<polygon class="st1" points="20,0 0,20 0,40 40,0 	"/>
</g>
<g id="Layer_3">
	<polyline class="st2" points="614.4,576 634.4,576 634.4,584.9 620,584.9 620,624 614.4,624 	"/>
	<polyline class="st2" points="587,607.7 578.9,624 565.6,624 579.3,599.8 566,576 579.1,576 587,592 	"/>
	<polygon class="st3" points="608,576 594.8,576 594.3,577.1 587,592 587,607.7 595.1,624 608.4,624 594.6,599.8 603,584.9 
		608.5,584.9 608.5,624 614.4,624 614.4,576 	"/>
</g>
</svg>
