<?xml version="1.0" encoding="utf-8"?>
<!-- Generator: Adobe Illustrator 26.5.0, SVG Export Plug-In . SVG Version: 6.00 Build 0)  -->
<svg version="1.1" id="Layer_1" xmlns="http://www.w3.org/2000/svg" xmlns:xlink="http://www.w3.org/1999/xlink" x="0px" y="0px"
	 viewBox="0 0 2400 1200" style="enable-background:new 0 0 2400 1200;" xml:space="preserve">
<style type="text/css">
	.st0{fill:#6B7280;}
	.st1{fill:#6F7784;}
	.st2{fill:#FFFFFF;}
	.st3{opacity:0.5;fill:#FFFFFF;enable-background:new    ;}
</style>
<path class="st0" d="M1200,0H0v1200h2400V0H1200z"/>
<path class="st1" d="M2360,60l-20,20l-20,20l-20,20l-20,20l-20,20l-20,20l-20,20l-20,20l-20,20l-20,20l-20,20l-20,20l-20,20l-20,20
	l-20,20l-20,20l-20,20l-20,20l-20,20l-20,20l-20,20l-20,20l-20,20l-20,20l-20,20l-20,20l-20,20l-20,20l-20,20l-20,20l-20,20l-20,20
	l-20,20l-20,20l-20,20l-20,20l-20,20l-20,20l-20,20l-20,20l-20,20l-20,20l-20,20l-20,20l-20,20l-20,20l-20,20l-20,20l-20,20l-20,20
	l-20,20l-20,20l-20,20l-20,20l-20,20l-20,20l-20,20h20l40-40l40-40l40-40l40-40l40-40l40-40l40-40l40-40l40-40l40-40l40-40l40-40
	l40-40l40-40l40-40l40-40l40-40l40-40l40-40l40-40l40-40l40-40l40-40l40-40l40-40l40-40l40-40l40-40l40-40V20l-20,20L2360,60z
	 M2360,100l-20,20l-20,20l-20,20l-20,20l-20,20l-20,20l-20,20l-20,20l-20,20l-20,20l-20,20l-20,20l-20,20l-20,20l-20,20l-20,20
	l-20,20l-20,20l-20,20l-20,20l-20,20l-20,20l-20,20l-20,20l-20,20l-20,20l-20,20l-20,20l-20,20l-20,20l-20,20l-20,20l-20,20l-20,20
	l-20,20l-20,20l-20,20l-20,20l-20,20l-20,20l-20,20l-20,20l-20,20l-20,20l-20,20l-20,20l-20,20l-20,20l-20,20l-20,20l-20,20l-20,20
	l-20,20l-20,20l-20,20h20l40-40l40-40l40-40l40-40l40-40l40-40l40-40l40-40l40-40l40-40l40-40l40-40l40-40l40-40l40-40l40-40l40-40
	l40-40l40-40l40-40l40-40l40-40l40-40l40-40l40-40l40-40l40-40l40-40V60l-20,20L2360,100z M2360,140l-20,20l-20,20l-20,20l-20,20
	l-20,20l-20,20l-20,20l-20,20l-20,20l-20,20l-20,20l-20,20l-20,20l-20,20l-20,20l-20,20l-20,20l-20,20l-20,20l-20,20l-20,20l-20,20
	l-20,20l-20,20l-20,20l-20,20l-20,20l-20,20l-20,20l-20,20l-20,20l-20,20l-20,20l-20,20l-20,20l-20,20l-20,20l-20,20l-20,20l-20,20
	l-20,20l-20,20l-20,20l-20,20l-20,20l-20,20l-20,20l-20,20l-20,20l-20,20l-20,20l-20,20l-20,20h20l40-40l40-40l40-40l40-40l40-40
	l40-40l40-40l40-40l40-40l40-40l40-40l40-40l40-40l40-40l40-40l40-40l40-40l40-40l40-40l40-40l40-40l40-40l40-40l40-40l40-40l40-40
	l40-40v-20l-20,20L2360,140z M2360,180l-20,20l-20,20l-20,20l-20,20l-20,20l-20,20l-20,20l-20,20l-20,20l-20,20l-20,20l-20,20
	l-20,20l-20,20l-20,20l-20,20l-20,20l-20,20l-20,20l-20,20l-20,20l-20,20l-20,20l-20,20l-20,20l-20,20l-20,20l-20,20l-20,20l-20,20
	l-20,20l-20,20l-20,20l-20,20l-20,20l-20,20l-20,20l-20,20l-20,20l-20,20l-20,20l-20,20l-20,20l-20,20l-20,20l-20,20l-20,20l-20,20
	l-20,20l-20,20l-20,20h20l40-40l40-40l40-40l40-40l40-40l40-40l40-40l40-40l40-40l40-40l40-40l40-40l40-40l40-40l40-40l40-40l40-40
	l40-40l40-40l40-40l40-40l40-40l40-40l40-40l40-40l40-40v-20l-20,20L2360,180z M2360,220l-20,20l-20,20l-20,20l-20,20l-20,20l-20,20
	l-20,20l-20,20l-20,20l-20,20l-20,20l-20,20l-20,20l-20,20l-20,20l-20,20l-20,20l-20,20l-20,20l-20,20l-20,20l-20,20l-20,20l-20,20
	l-20,20l-20,20l-20,20l-20,20l-20,20l-20,20l-20,20l-20,20l-20,20l-20,20l-20,20l-20,20l-20,20l-20,20l-20,20l-20,20l-20,20l-20,20
	l-20,20l-20,20l-20,20l-20,20l-20,20l-20,20l-20,20h20l40-40l40-40l40-40l40-40l40-40l40-40l40-40l40-40l40-40l40-40l40-40l40-40
	l40-40l40-40l40-40l40-40l40-40l40-40l40-40l40-40l40-40l40-40l40-40l40-40l40-40v-20l-20,20L2360,220z M2360,260l-20,20l-20,20
	l-20,20l-20,20l-20,20l-20,20l-20,20l-20,20l-20,20l-20,20l-20,20l-20,20l-20,20l-20,20l-20,20l-20,20l-20,20l-20,20l-20,20l-20,20
	l-20,20l-20,20l-20,20l-20,20l-20,20l-20,20l-20,20l-20,20l-20,20l-20,20l-20,20l-20,20l-20,20l-20,20l-20,20l-20,20l-20,20l-20,20
	l-20,20l-20,20l-20,20l-20,20l-20,20l-20,20l-20,20l-20,20l-20,20h20l40-40l40-40l40-40l40-40l40-40l40-40l40-40l40-40l40-40l40-40
	l40-40l40-40l40-40l40-40l40-40l40-40l40-40l40-40l40-40l40-40l40-40l40-40l40-40l40-40v-20l-20,20L2360,260z M2360,300l-20,20
	l-20,20l-20,20l-20,20l-20,20l-20,20l-20,20l-20,20l-20,20l-20,20l-20,20l-20,20l-20,20l-20,20l-20,20l-20,20l-20,20l-20,20l-20,20
	l-20,20l-20,20l-20,20l-20,20l-20,20l-20,20l-20,20l-20,20l-20,20l-20,20l-20,20l-20,20l-20,20l-20,20l-20,20l-20,20l-20,20l-20,20
	l-20,20l-20,20l-20,20l-20,20l-20,20l-20,20l-20,20l-20,20h20l40-40l40-40l40-40l40-40l40-40l40-40l40-40l40-40l40-40l40-40l40-40
	l40-40l40-40l40-40l40-40l40-40l40-40l40-40l40-40l40-40l40-40l40-40l40-40v-20l-20,20L2360,300z M2360,340l-20,20l-20,20l-20,20
	l-20,20l-20,20l-20,20l-20,20l-20,20l-20,20l-20,20l-20,20l-20,20l-20,20l-20,20l-20,20l-20,20l-20,20l-20,20l-20,20l-20,20l-20,20
	l-20,20l-20,20l-20,20l-20,20l-20,20l-20,20l-20,20l-20,20l-20,20l-20,20l-20,20l-20,20l-20,20l-20,20l-20,20l-20,20l-20,20l-20,20
	l-20,20l-20,20l-20,20l-20,20h20l40-40l40-40l40-40l40-40l40-40l40-40l40-40l40-40l40-40l40-40l40-40l40-40l40-40l40-40l40-40l40-40
	l40-40l40-40l40-40l40-40l40-40l40-40v-20l-20,20L2360,340z M2360,380l-20,20l-20,20l-20,20l-20,20l-20,20l-20,20l-20,20l-20,20
	l-20,20l-20,20l-20,20l-20,20l-20,20l-20,20l-20,20l-20,20l-20,20l-20,20l-20,20l-20,20l-20,20l-20,20l-20,20l-20,20l-20,20l-20,20
	l-20,20l-20,20l-20,20l-20,20l-20,20l-20,20l-20,20l-20,20l-20,20l-20,20l-20,20l-20,20l-20,20l-20,20l-20,20h20l40-40l40-40l40-40
	l40-40l40-40l40-40l40-40l40-40l40-40l40-40l40-40l40-40l40-40l40-40l40-40l40-40l40-40l40-40l40-40l40-40l40-40v-20l-20,20
	L2360,380z M2360,420l-20,20l-20,20l-20,20l-20,20l-20,20l-20,20l-20,20l-20,20l-20,20l-20,20l-20,20l-20,20l-20,20l-20,20l-20,20
	l-20,20l-20,20l-20,20l-20,20l-20,20l-20,20l-20,20l-20,20l-20,20l-20,20l-20,20l-20,20l-20,20l-20,20l-20,20l-20,20l-20,20l-20,20
	l-20,20l-20,20l-20,20l-20,20l-20,20l-20,20h20l40-40l40-40l40-40l40-40l40-40l40-40l40-40l40-40l40-40l40-40l40-40l40-40l40-40
	l40-40l40-40l40-40l40-40l40-40l40-40l40-40v-20l-20,20L2360,420z M2360,460l-20,20l-20,20l-20,20l-20,20l-20,20l-20,20l-20,20
	l-20,20l-20,20l-20,20l-20,20l-20,20l-20,20l-20,20l-20,20l-20,20l-20,20l-20,20l-20,20l-20,20l-20,20l-20,20l-20,20l-20,20l-20,20
	l-20,20l-20,20l-20,20l-20,20l-20,20l-20,20l-20,20l-20,20l-20,20l-20,20l-20,20l-20,20h20l40-40l40-40l40-40l40-40l40-40l40-40
	l40-40l40-40l40-40l40-40l40-40l40-40l40-40l40-40l40-40l40-40l40-40l40-40l40-40v-20l-20,20L2360,460z M2360,500l-20,20l-20,20
	l-20,20l-20,20l-20,20l-20,20l-20,20l-20,20l-20,20l-20,20l-20,20l-20,20l-20,20l-20,20l-20,20l-20,20l-20,20l-20,20l-20,20l-20,20
	l-20,20l-20,20l-20,20l-20,20l-20,20l-20,20l-20,20l-20,20l-20,20l-20,20l-20,20l-20,20l-20,20l-20,20l-20,20h20l40-40l40-40l40-40
	l40-40l40-40l40-40l40-40l40-40l40-40l40-40l40-40l40-40l40-40l40-40l40-40l40-40l40-40l40-40v-20l-20,20L2360,500z M2360,540
	l-20,20l-20,20l-20,20l-20,20l-20,20l-20,20l-20,20l-20,20l-20,20l-20,20l-20,20l-20,20l-20,20l-20,20l-20,20l-20,20l-20,20l-20,20
	l-20,20l-20,20l-20,20l-20,20l-20,20l-20,20l-20,20l-20,20l-20,20l-20,20l-20,20l-20,20l-20,20l-20,20l-20,20h20l40-40l40-40l40-40
	l40-40l40-40l40-40l40-40l40-40l40-40l40-40l40-40l40-40l40-40l40-40l40-40l40-40l40-40v-20l-20,20L2360,540z M2360,580l-20,20
	l-20,20l-20,20l-20,20l-20,20l-20,20l-20,20l-20,20l-20,20l-20,20l-20,20l-20,20l-20,20l-20,20l-20,20l-20,20l-20,20l-20,20l-20,20
	l-20,20l-20,20l-20,20l-20,20l-20,20l-20,20l-20,20l-20,20l-20,20l-20,20l-20,20l-20,20h20l40-40l40-40l40-40l40-40l40-40l40-40
	l40-40l40-40l40-40l40-40l40-40l40-40l40-40l40-40l40-40l40-40v-20l-20,20L2360,580z M2360,620l-20,20l-20,20l-20,20l-20,20l-20,20
	l-20,20l-20,20l-20,20l-20,20l-20,20l-20,20l-20,20l-20,20l-20,20l-20,20l-20,20l-20,20l-20,20l-20,20l-20,20l-20,20l-20,20l-20,20
	l-20,20l-20,20l-20,20l-20,20l-20,20l-20,20h20l40-40l40-40l40-40l40-40l40-40l40-40l40-40l40-40l40-40l40-40l40-40l40-40l40-40
	l40-40l40-40v-20l-20,20L2360,620z M2360,660l-20,20l-20,20l-20,20l-20,20l-20,20l-20,20l-20,20l-20,20l-20,20l-20,20l-20,20l-20,20
	l-20,20l-20,20l-20,20l-20,20l-20,20l-20,20l-20,20l-20,20l-20,20l-20,20l-20,20l-20,20l-20,20l-20,20l-20,20h20l40-40l40-40l40-40
	l40-40l40-40l40-40l40-40l40-40l40-40l40-40l40-40l40-40l40-40l40-40v-20l-20,20L2360,660z M2360,700l-20,20l-20,20l-20,20l-20,20
	l-20,20l-20,20l-20,20l-20,20l-20,20l-20,20l-20,20l-20,20l-20,20l-20,20l-20,20l-20,20l-20,20l-20,20l-20,20l-20,20l-20,20l-20,20
	l-20,20l-20,20l-20,20h20l40-40l40-40l40-40l40-40l40-40l40-40l40-40l40-40l40-40l40-40l40-40l40-40l40-40v-20l-20,20L2360,700z
	 M2360,740l-20,20l-20,20l-20,20l-20,20l-20,20l-20,20l-20,20l-20,20l-20,20l-20,20l-20,20l-20,20l-20,20l-20,20l-20,20l-20,20
	l-20,20l-20,20l-20,20l-20,20l-20,20l-20,20l-20,20h20l40-40l40-40l40-40l40-40l40-40l40-40l40-40l40-40l40-40l40-40l40-40l40-40
	v-20l-20,20L2360,740z M2360,780l-20,20l-20,20l-20,20l-20,20l-20,20l-20,20l-20,20l-20,20l-20,20l-20,20l-20,20l-20,20l-20,20
	l-20,20l-20,20l-20,20l-20,20l-20,20l-20,20l-20,20l-20,20h20l40-40l40-40l40-40l40-40l40-40l40-40l40-40l40-40l40-40l40-40l40-40
	v-20l-20,20L2360,780z M2360,820l-20,20l-20,20l-20,20l-20,20l-20,20l-20,20l-20,20l-20,20l-20,20l-20,20l-20,20l-20,20l-20,20
	l-20,20l-20,20l-20,20l-20,20l-20,20l-20,20h20l40-40l40-40l40-40l40-40l40-40l40-40l40-40l40-40l40-40l40-40v-20l-20,20L2360,820z
	 M2360,860l-20,20l-20,20l-20,20l-20,20l-20,20l-20,20l-20,20l-20,20l-20,20l-20,20l-20,20l-20,20l-20,20l-20,20l-20,20l-20,20
	l-20,20h20l40-40l40-40l40-40l40-40l40-40l40-40l40-40l40-40l40-40v-20l-20,20L2360,860z M2360,900l-20,20l-20,20l-20,20l-20,20
	l-20,20l-20,20l-20,20l-20,20l-20,20l-20,20l-20,20l-20,20l-20,20l-20,20l-20,20h20l40-40l40-40l40-40l40-40l40-40l40-40l40-40
	l40-40v-20l-20,20L2360,900z M2360,940l-20,20l-20,20l-20,20l-20,20l-20,20l-20,20l-20,20l-20,20l-20,20l-20,20l-20,20l-20,20
	l-20,20h20l40-40l40-40l40-40l40-40l40-40l40-40l40-40v-20l-20,20L2360,940z M2360,980l-20,20l-20,20l-20,20l-20,20l-20,20l-20,20
	l-20,20l-20,20l-20,20l-20,20l-20,20h20l40-40l40-40l40-40l40-40l40-40l40-40v-20l-20,20L2360,980z M2360,1020l-20,20l-20,20l-20,20
	l-20,20l-20,20l-20,20l-20,20l-20,20l-20,20h20l40-40l40-40l40-40l40-40l40-40v-20l-20,20L2360,1020z M2360,1060l-20,20l-20,20
	l-20,20l-20,20l-20,20l-20,20l-20,20h20l40-40l40-40l40-40l40-40v-20l-20,20L2360,1060z M2360,1100l-20,20l-20,20l-20,20l-20,20
	l-20,20h20l40-40l40-40l40-40v-20l-20,20L2360,1100z M2360,1140l-20,20l-20,20l-20,20h20l40-40l40-40v-20l-20,20L2360,1140z
	 M2360,1180l-20,20h20l40-40v-20l-20,20L2360,1180z M2400,1200v-20l-20,20H2400z M1240,1120l40-40l40-40l40-40l40-40l40-40l40-40
	l40-40l40-40l40-40l40-40l40-40l40-40l40-40l40-40l40-40l40-40l40-40l40-40l40-40l40-40l40-40l40-40l40-40l40-40l40-40l40-40l40-40
	l40-40h-20l-20,20l-20,20l-20,20l-20,20l-20,20l-20,20l-20,20l-20,20l-20,20l-20,20l-20,20l-20,20l-20,20l-20,20l-20,20l-20,20
	l-20,20l-20,20l-20,20l-20,20l-20,20l-20,20l-20,20l-20,20l-20,20l-20,20l-20,20l-20,20l-20,20l-20,20l-20,20l-20,20l-20,20l-20,20
	l-20,20l-20,20l-20,20l-20,20l-20,20l-20,20l-20,20l-20,20l-20,20l-20,20l-20,20l-20,20l-20,20l-20,20l-20,20l-20,20l-20,20l-20,20
	l-20,20l-20,20l-20,20l-20,20l-20,20l-20,20l-20,20l-20,20h20l40-40L1240,1120z M1280,1120l40-40l40-40l40-40l40-40l40-40l40-40
	l40-40l40-40l40-40l40-40l40-40l40-40l40-40l40-40l40-40l40-40l40-40l40-40l40-40l40-40l40-40l40-40l40-40l40-40l40-40l40-40l40-40
	l40-40h-20l-20,20l-20,20l-20,20l-20,20l-20,20l-20,20l-20,20l-20,20l-20,20l-20,20l-20,20l-20,20l-20,20l-20,20l-20,20l-20,20
	l-20,20l-20,20l-20,20l-20,20l-20,20l-20,20l-20,20l-20,20l-20,20l-20,20l-20,20l-20,20l-20,20l-20,20l-20,20l-20,20l-20,20l-20,20
	l-20,20l-20,20l-20,20l-20,20l-20,20l-20,20l-20,20l-20,20l-20,20l-20,20l-20,20l-20,20l-20,20l-20,20l-20,20l-20,20l-20,20l-20,20
	l-20,20l-20,20l-20,20l-20,20l-20,20l-20,20l-20,20l-20,20h20l40-40L1280,1120z M120,1120l40-40l40-40l40-40l40-40l40-40l40-40
	l40-40l40-40l40-40l40-40l40-40l40-40l40-40l40-40l40-40l40-40l40-40l40-40l40-40l40-40l40-40l40-40l40-40l40-40l40-40l40-40l40-40
	l40-40h-20l-20,20l-20,20l-20,20l-20,20l-20,20l-20,20l-20,20l-20,20l-20,20l-20,20l-20,20l-20,20l-20,20l-20,20l-20,20l-20,20
	l-20,20l-20,20l-20,20l-20,20l-20,20l-20,20l-20,20l-20,20l-20,20l-20,20l-20,20l-20,20l-20,20l-20,20l-20,20l-20,20l-20,20l-20,20
	l-20,20l-20,20l-20,20l-20,20l-20,20l-20,20l-20,20l-20,20l-20,20l-20,20l-20,20l-20,20l-20,20l-20,20l-20,20l-20,20l-20,20l-20,20
	l-20,20l-20,20l-20,20l-20,20l-20,20l-20,20l-20,20l-20,20h20l40-40L120,1120z M160,1120l40-40l40-40l40-40l40-40l40-40l40-40l40-40
	l40-40l40-40l40-40l40-40l40-40l40-40l40-40l40-40l40-40l40-40l40-40l40-40l40-40l40-40l40-40l40-40l40-40l40-40l40-40l40-40l40-40
	h-20l-20,20l-20,20l-20,20l-20,20l-20,20l-20,20l-20,20l-20,20l-20,20l-20,20l-20,20l-20,20l-20,20l-20,20l-20,20l-20,20l-20,20
	l-20,20l-20,20l-20,20l-20,20l-20,20l-20,20l-20,20l-20,20l-20,20l-20,20l-20,20l-20,20l-20,20l-20,20l-20,20l-20,20l-20,20l-20,20
	l-20,20l-20,20l-20,20l-20,20l-20,20l-20,20l-20,20l-20,20l-20,20l-20,20l-20,20l-20,20l-20,20l-20,20l-20,20l-20,20l-20,20l-20,20
	l-20,20l-20,20l-20,20l-20,20l-20,20l-20,20l-20,20h20l40-40L160,1120z M200,1120l40-40l40-40l40-40l40-40l40-40l40-40l40-40l40-40
	l40-40l40-40l40-40l40-40l40-40l40-40l40-40l40-40l40-40l40-40l40-40l40-40l40-40l40-40l40-40l40-40l40-40l40-40l40-40l40-40h-20
	l-20,20l-20,20l-20,20l-20,20l-20,20l-20,20l-20,20l-20,20l-20,20l-20,20l-20,20l-20,20l-20,20l-20,20l-20,20l-20,20l-20,20l-20,20
	l-20,20l-20,20l-20,20l-20,20l-20,20l-20,20l-20,20l-20,20l-20,20l-20,20l-20,20l-20,20l-20,20l-20,20l-20,20l-20,20l-20,20l-20,20
	l-20,20l-20,20l-20,20l-20,20l-20,20l-20,20l-20,20l-20,20l-20,20l-20,20l-20,20l-20,20l-20,20l-20,20l-20,20l-20,20l-20,20l-20,20
	l-20,20l-20,20l-20,20l-20,20l-20,20l-20,20h20l40-40L200,1120z M240,1120l40-40l40-40l40-40l40-40l40-40l40-40l40-40l40-40l40-40
	l40-40l40-40l40-40l40-40l40-40l40-40l40-40l40-40l40-40l40-40l40-40l40-40l40-40l40-40l40-40l40-40l40-40l40-40l40-40h-20l-20,20
	l-20,20l-20,20l-20,20l-20,20l-20,20l-20,20l-20,20l-20,20l-20,20l-20,20l-20,20l-20,20l-20,20l-20,20l-20,20l-20,20l-20,20l-20,20
	l-20,20l-20,20l-20,20l-20,20l-20,20l-20,20l-20,20l-20,20l-20,20l-20,20l-20,20l-20,20l-20,20l-20,20l-20,20l-20,20l-20,20l-20,20
	l-20,20l-20,20l-20,20l-20,20l-20,20l-20,20l-20,20l-20,20l-20,20l-20,20l-20,20l-20,20l-20,20l-20,20l-20,20l-20,20l-20,20l-20,20
	l-20,20l-20,20l-20,20l-20,20l-20,20h20l40-40L240,1120z M280,1120l40-40l40-40l40-40l40-40l40-40l40-40l40-40l40-40l40-40l40-40
	l40-40l40-40l40-40l40-40l40-40l40-40l40-40l40-40l40-40l40-40l40-40l40-40l40-40l40-40l40-40l40-40l40-40l40-40h-20l-20,20l-20,20
	l-20,20l-20,20l-20,20l-20,20l-20,20l-20,20l-20,20l-20,20l-20,20l-20,20l-20,20l-20,20l-20,20l-20,20l-20,20l-20,20l-20,20l-20,20
	l-20,20l-20,20l-20,20l-20,20l-20,20l-20,20l-20,20l-20,20l-20,20l-20,20l-20,20l-20,20l-20,20l-20,20l-20,20l-20,20l-20,20l-20,20
	l-20,20l-20,20l-20,20l-20,20l-20,20l-20,20l-20,20l-20,20l-20,20l-20,20l-20,20l-20,20l-20,20l-20,20l-20,20l-20,20l-20,20l-20,20
	l-20,20l-20,20l-20,20l-20,20h20l40-40L280,1120z M320,1120l40-40l40-40l40-40l40-40l40-40l40-40l40-40l40-40l40-40l40-40l40-40
	l40-40l40-40l40-40l40-40l40-40l40-40l40-40l40-40l40-40l40-40l40-40l40-40l40-40l40-40l40-40l40-40l40-40h-20l-20,20l-20,20l-20,20
	l-20,20l-20,20l-20,20l-20,20l-20,20l-20,20l-20,20l-20,20l-20,20l-20,20l-20,20l-20,20l-20,20l-20,20l-20,20l-20,20l-20,20l-20,20
	l-20,20l-20,20l-20,20l-20,20l-20,20l-20,20l-20,20l-20,20l-20,20l-20,20l-20,20l-20,20l-20,20l-20,20l-20,20l-20,20l-20,20l-20,20
	l-20,20l-20,20l-20,20l-20,20l-20,20l-20,20l-20,20l-20,20l-20,20l-20,20l-20,20l-20,20l-20,20l-20,20l-20,20l-20,20l-20,20l-20,20
	l-20,20l-20,20l-20,20h20l40-40L320,1120z M360,1120l40-40l40-40l40-40l40-40l40-40l40-40l40-40l40-40l40-40l40-40l40-40l40-40
	l40-40l40-40l40-40l40-40l40-40l40-40l40-40l40-40l40-40l40-40l40-40l40-40l40-40l40-40l40-40l40-40h-20l-20,20l-20,20l-20,20
	l-20,20l-20,20l-20,20l-20,20l-20,20l-20,20l-20,20l-20,20l-20,20l-20,20l-20,20l-20,20l-20,20l-20,20l-20,20l-20,20l-20,20l-20,20
	l-20,20l-20,20l-20,20l-20,20l-20,20l-20,20l-20,20l-20,20l-20,20l-20,20l-20,20l-20,20l-20,20l-20,20l-20,20l-20,20l-20,20l-20,20
	l-20,20l-20,20l-20,20l-20,20l-20,20l-20,20l-20,20l-20,20l-20,20l-20,20l-20,20l-20,20l-20,20l-20,20l-20,20l-20,20l-20,20l-20,20
	l-20,20l-20,20l-20,20h20l40-40L360,1120z M400,1120l40-40l40-40l40-40l40-40l40-40l40-40l40-40l40-40l40-40l40-40l40-40l40-40
	l40-40l40-40l40-40l40-40l40-40l40-40l40-40l40-40l40-40l40-40l40-40l40-40l40-40l40-40l40-40l40-40h-20l-20,20l-20,20l-20,20
	l-20,20l-20,20l-20,20l-20,20l-20,20l-20,20l-20,20l-20,20l-20,20l-20,20l-20,20l-20,20l-20,20l-20,20l-20,20l-20,20l-20,20l-20,20
	l-20,20l-20,20l-20,20l-20,20l-20,20l-20,20l-20,20l-20,20l-20,20l-20,20l-20,20l-20,20l-20,20l-20,20l-20,20l-20,20l-20,20l-20,20
	l-20,20l-20,20l-20,20l-20,20l-20,20l-20,20l-20,20l-20,20l-20,20l-20,20l-20,20l-20,20l-20,20l-20,20l-20,20l-20,20l-20,20l-20,20
	l-20,20l-20,20l-20,20h20l40-40L400,1120z M440,1120l40-40l40-40l40-40l40-40l40-40l40-40l40-40l40-40l40-40l40-40l40-40l40-40
	l40-40l40-40l40-40l40-40l40-40l40-40l40-40l40-40l40-40l40-40l40-40l40-40l40-40l40-40l40-40l40-40h-20l-20,20l-20,20l-20,20
	l-20,20l-20,20l-20,20l-20,20l-20,20l-20,20l-20,20l-20,20l-20,20l-20,20l-20,20l-20,20l-20,20l-20,20l-20,20l-20,20l-20,20l-20,20
	l-20,20l-20,20l-20,20l-20,20l-20,20l-20,20l-20,20l-20,20l-20,20l-20,20l-20,20l-20,20l-20,20l-20,20l-20,20l-20,20l-20,20l-20,20
	l-20,20l-20,20l-20,20l-20,20l-20,20l-20,20l-20,20l-20,20l-20,20l-20,20l-20,20l-20,20l-20,20l-20,20l-20,20l-20,20l-20,20l-20,20
	l-20,20l-20,20l-20,20h20l40-40L440,1120z M480,1120l40-40l40-40l40-40l40-40l40-40l40-40l40-40l40-40l40-40l40-40l40-40l40-40
	l40-40l40-40l40-40l40-40l40-40l40-40l40-40l40-40l40-40l40-40l40-40l40-40l40-40l40-40l40-40l40-40h-20l-20,20l-20,20l-20,20
	l-20,20l-20,20l-20,20l-20,20l-20,20l-20,20l-20,20l-20,20l-20,20l-20,20l-20,20l-20,20l-20,20l-20,20l-20,20l-20,20l-20,20l-20,20
	l-20,20l-20,20l-20,20l-20,20l-20,20l-20,20l-20,20l-20,20l-20,20l-20,20l-20,20l-20,20l-20,20l-20,20l-20,20l-20,20l-20,20l-20,20
	l-20,20l-20,20l-20,20l-20,20l-20,20l-20,20l-20,20l-20,20l-20,20l-20,20l-20,20l-20,20l-20,20l-20,20l-20,20l-20,20l-20,20l-20,20
	l-20,20l-20,20l-20,20h20l40-40L480,1120z M520,1120l40-40l40-40l40-40l40-40l40-40l40-40l40-40l40-40l40-40l40-40l40-40l40-40
	l40-40l40-40l40-40l40-40l40-40l40-40l40-40l40-40l40-40l40-40l40-40l40-40l40-40l40-40l40-40l40-40h-20l-20,20l-20,20l-20,20
	l-20,20l-20,20l-20,20l-20,20l-20,20l-20,20l-20,20l-20,20l-20,20l-20,20l-20,20l-20,20l-20,20l-20,20l-20,20l-20,20l-20,20l-20,20
	l-20,20l-20,20l-20,20l-20,20l-20,20l-20,20l-20,20l-20,20l-20,20l-20,20l-20,20l-20,20l-20,20l-20,20l-20,20l-20,20l-20,20l-20,20
	l-20,20l-20,20l-20,20l-20,20l-20,20l-20,20l-20,20l-20,20l-20,20l-20,20l-20,20l-20,20l-20,20l-20,20l-20,20l-20,20l-20,20l-20,20
	l-20,20l-20,20l-20,20h20l40-40L520,1120z M560,1120l40-40l40-40l40-40l40-40l40-40l40-40l40-40l40-40l40-40l40-40l40-40l40-40
	l40-40l40-40l40-40l40-40l40-40l40-40l40-40l40-40l40-40l40-40l40-40l40-40l40-40l40-40l40-40l40-40h-20l-20,20l-20,20l-20,20
	l-20,20l-20,20l-20,20l-20,20l-20,20l-20,20l-20,20l-20,20l-20,20l-20,20l-20,20l-20,20l-20,20l-20,20l-20,20l-20,20l-20,20l-20,20
	l-20,20l-20,20l-20,20l-20,20l-20,20l-20,20l-20,20l-20,20l-20,20l-20,20l-20,20l-20,20l-20,20l-20,20l-20,20l-20,20l-20,20l-20,20
	l-20,20l-20,20l-20,20l-20,20l-20,20l-20,20l-20,20l-20,20l-20,20l-20,20l-20,20l-20,20l-20,20l-20,20l-20,20l-20,20l-20,20l-20,20
	l-20,20l-20,20l-20,20h20l40-40L560,1120z M600,1120l40-40l40-40l40-40l40-40l40-40l40-40l40-40l40-40l40-40l40-40l40-40l40-40
	l40-40l40-40l40-40l40-40l40-40l40-40l40-40l40-40l40-40l40-40l40-40l40-40l40-40l40-40l40-40l40-40h-20l-20,20l-20,20l-20,20
	l-20,20l-20,20l-20,20l-20,20l-20,20l-20,20l-20,20l-20,20l-20,20l-20,20l-20,20l-20,20l-20,20l-20,20l-20,20l-20,20l-20,20l-20,20
	l-20,20l-20,20l-20,20l-20,20l-20,20l-20,20l-20,20l-20,20l-20,20l-20,20l-20,20l-20,20l-20,20l-20,20l-20,20l-20,20l-20,20l-20,20
	l-20,20l-20,20l-20,20l-20,20l-20,20l-20,20l-20,20l-20,20l-20,20l-20,20l-20,20l-20,20l-20,20l-20,20l-20,20l-20,20l-20,20l-20,20
	l-20,20l-20,20l-20,20h20l40-40L600,1120z M640,1120l40-40l40-40l40-40l40-40l40-40l40-40l40-40l40-40l40-40l40-40l40-40l40-40
	l40-40l40-40l40-40l40-40l40-40l40-40l40-40l40-40l40-40l40-40l40-40l40-40l40-40l40-40l40-40l40-40h-20l-20,20l-20,20l-20,20
	l-20,20l-20,20l-20,20l-20,20l-20,20l-20,20l-20,20l-20,20l-20,20l-20,20l-20,20l-20,20l-20,20l-20,20l-20,20l-20,20l-20,20l-20,20
	l-20,20l-20,20l-20,20l-20,20l-20,20l-20,20l-20,20l-20,20l-20,20l-20,20l-20,20l-20,20l-20,20l-20,20l-20,20l-20,20l-20,20l-20,20
	l-20,20l-20,20l-20,20l-20,20l-20,20l-20,20l-20,20l-20,20l-20,20l-20,20l-20,20l-20,20l-20,20l-20,20l-20,20l-20,20l-20,20l-20,20
	l-20,20l-20,20l-20,20h20l40-40L640,1120z M680,1120l40-40l40-40l40-40l40-40l40-40l40-40l40-40l40-40l40-40l40-40l40-40l40-40
	l40-40l40-40l40-40l40-40l40-40l40-40l40-40l40-40l40-40l40-40l40-40l40-40l40-40l40-40l40-40l40-40h-20l-20,20l-20,20l-20,20
	l-20,20l-20,20l-20,20l-20,20l-20,20l-20,20l-20,20l-20,20l-20,20l-20,20l-20,20l-20,20l-20,20l-20,20l-20,20l-20,20l-20,20l-20,20
	l-20,20l-20,20l-20,20l-20,20l-20,20l-20,20l-20,20l-20,20l-20,20l-20,20l-20,20l-20,20l-20,20l-20,20l-20,20l-20,20l-20,20l-20,20
	l-20,20l-20,20l-20,20l-20,20l-20,20l-20,20l-20,20l-20,20l-20,20l-20,20l-20,20l-20,20l-20,20l-20,20l-20,20l-20,20l-20,20l-20,20
	l-20,20l-20,20l-20,20h20l40-40L680,1120z M720,1120l40-40l40-40l40-40l40-40l40-40l40-40l40-40l40-40l40-40l40-40l40-40l40-40
	l40-40l40-40l40-40l40-40l40-40l40-40l40-40l40-40l40-40l40-40l40-40l40-40l40-40l40-40l40-40l40-40h-20l-20,20l-20,20l-20,20
	l-20,20l-20,20l-20,20l-20,20l-20,20l-20,20l-20,20l-20,20l-20,20l-20,20l-20,20l-20,20l-20,20l-20,20l-20,20l-20,20l-20,20l-20,20
	l-20,20l-20,20l-20,20l-20,20l-20,20l-20,20l-20,20l-20,20l-20,20l-20,20l-20,20l-20,20l-20,20l-20,20l-20,20l-20,20l-20,20l-20,20
	l-20,20l-20,20l-20,20l-20,20l-20,20l-20,20l-20,20l-20,20l-20,20l-20,20l-20,20l-20,20l-20,20l-20,20l-20,20l-20,20l-20,20l-20,20
	l-20,20l-20,20l-20,20h20l40-40L720,1120z M760,1120l40-40l40-40l40-40l40-40l40-40l40-40l40-40l40-40l40-40l40-40l40-40l40-40
	l40-40l40-40l40-40l40-40l40-40l40-40l40-40l40-40l40-40l40-40l40-40l40-40l40-40l40-40l40-40l40-40h-20l-20,20l-20,20l-20,20
	l-20,20l-20,20l-20,20l-20,20l-20,20l-20,20l-20,20l-20,20l-20,20l-20,20l-20,20l-20,20l-20,20l-20,20l-20,20l-20,20l-20,20l-20,20
	l-20,20l-20,20l-20,20l-20,20l-20,20l-20,20l-20,20l-20,20l-20,20l-20,20l-20,20l-20,20l-20,20l-20,20l-20,20l-20,20l-20,20l-20,20
	l-20,20l-20,20l-20,20l-20,20l-20,20l-20,20l-20,20l-20,20l-20,20l-20,20l-20,20l-20,20l-20,20l-20,20l-20,20l-20,20l-20,20l-20,20
	l-20,20l-20,20l-20,20h20l40-40L760,1120z M800,1120l40-40l40-40l40-40l40-40l40-40l40-40l40-40l40-40l40-40l40-40l40-40l40-40
	l40-40l40-40l40-40l40-40l40-40l40-40l40-40l40-40l40-40l40-40l40-40l40-40l40-40l40-40l40-40l40-40h-20l-20,20l-20,20l-20,20
	l-20,20l-20,20l-20,20l-20,20l-20,20l-20,20l-20,20l-20,20l-20,20l-20,20l-20,20l-20,20l-20,20l-20,20l-20,20l-20,20l-20,20l-20,20
	l-20,20l-20,20l-20,20l-20,20l-20,20l-20,20l-20,20l-20,20l-20,20l-20,20l-20,20l-20,20l-20,20l-20,20l-20,20l-20,20l-20,20l-20,20
	l-20,20l-20,20l-20,20l-20,20l-20,20l-20,20l-20,20l-20,20l-20,20l-20,20l-20,20l-20,20l-20,20l-20,20l-20,20l-20,20l-20,20l-20,20
	l-20,20l-20,20l-20,20h20l40-40L800,1120z M840,1120l40-40l40-40l40-40l40-40l40-40l40-40l40-40l40-40l40-40l40-40l40-40l40-40
	l40-40l40-40l40-40l40-40l40-40l40-40l40-40l40-40l40-40l40-40l40-40l40-40l40-40l40-40l40-40l40-40h-20l-20,20l-20,20l-20,20
	l-20,20l-20,20l-20,20l-20,20l-20,20l-20,20l-20,20l-20,20l-20,20l-20,20l-20,20l-20,20l-20,20l-20,20l-20,20l-20,20l-20,20l-20,20
	l-20,20l-20,20l-20,20l-20,20l-20,20l-20,20l-20,20l-20,20l-20,20l-20,20l-20,20l-20,20l-20,20l-20,20l-20,20l-20,20l-20,20l-20,20
	l-20,20l-20,20l-20,20l-20,20l-20,20l-20,20l-20,20l-20,20l-20,20l-20,20l-20,20l-20,20l-20,20l-20,20l-20,20l-20,20l-20,20l-20,20
	l-20,20l-20,20l-20,20h20l40-40L840,1120z M880,1120l40-40l40-40l40-40l40-40l40-40l40-40l40-40l40-40l40-40l40-40l40-40l40-40
	l40-40l40-40l40-40l40-40l40-40l40-40l40-40l40-40l40-40l40-40l40-40l40-40l40-40l40-40l40-40l40-40h-20l-20,20l-20,20l-20,20
	l-20,20l-20,20l-20,20l-20,20l-20,20l-20,20l-20,20l-20,20l-20,20l-20,20l-20,20l-20,20l-20,20l-20,20l-20,20l-20,20l-20,20l-20,20
	l-20,20l-20,20l-20,20l-20,20l-20,20l-20,20l-20,20l-20,20l-20,20l-20,20l-20,20l-20,20l-20,20l-20,20l-20,20l-20,20l-20,20l-20,20
	l-20,20l-20,20l-20,20l-20,20l-20,20l-20,20l-20,20l-20,20l-20,20l-20,20l-20,20l-20,20l-20,20l-20,20l-20,20l-20,20l-20,20l-20,20
	l-20,20l-20,20l-20,20h20l40-40L880,1120z M920,1120l40-40l40-40l40-40l40-40l40-40l40-40l40-40l40-40l40-40l40-40l40-40l40-40
	l40-40l40-40l40-40l40-40l40-40l40-40l40-40l40-40l40-40l40-40l40-40l40-40l40-40l40-40l40-40l40-40h-20l-20,20l-20,20l-20,20
	l-20,20l-20,20l-20,20l-20,20l-20,20l-20,20l-20,20l-20,20l-20,20l-20,20l-20,20l-20,20l-20,20l-20,20l-20,20l-20,20l-20,20l-20,20
	l-20,20l-20,20l-20,20l-20,20l-20,20l-20,20l-20,20l-20,20l-20,20l-20,20l-20,20l-20,20l-20,20l-20,20l-20,20l-20,20l-20,20l-20,20
	l-20,20l-20,20l-20,20l-20,20l-20,20l-20,20l-20,20l-20,20l-20,20l-20,20l-20,20l-20,20l-20,20l-20,20l-20,20l-20,20l-20,20l-20,20
	l-20,20l-20,20l-20,20h20l40-40L920,1120z M960,1120l40-40l40-40l40-40l40-40l40-40l40-40l40-40l40-40l40-40l40-40l40-40l40-40
	l40-40l40-40l40-40l40-40l40-40l40-40l40-40l40-40l40-40l40-40l40-40l40-40l40-40l40-40l40-40l40-40h-20l-20,20l-20,20l-20,20
	l-20,20l-20,20l-20,20l-20,20l-20,20l-20,20l-20,20l-20,20l-20,20l-20,20l-20,20l-20,20l-20,20l-20,20l-20,20l-20,20l-20,20l-20,20
	l-20,20l-20,20l-20,20l-20,20l-20,20l-20,20l-20,20l-20,20l-20,20l-20,20l-20,20l-20,20l-20,20l-20,20l-20,20l-20,20l-20,20l-20,20
	l-20,20l-20,20l-20,20l-20,20l-20,20l-20,20l-20,20l-20,20l-20,20l-20,20l-20,20l-20,20l-20,20l-20,20l-20,20l-20,20l-20,20l-20,20
	l-20,20l-20,20l-20,20h20l40-40L960,1120z M1000,1120l40-40l40-40l40-40l40-40l40-40l40-40l40-40l40-40l40-40l40-40l40-40l40-40
	l40-40l40-40l40-40l40-40l40-40l40-40l40-40l40-40l40-40l40-40l40-40l40-40l40-40l40-40l40-40l40-40h-20l-20,20l-20,20l-20,20
	l-20,20l-20,20l-20,20l-20,20l-20,20l-20,20l-20,20l-20,20l-20,20l-20,20l-20,20l-20,20l-20,20l-20,20l-20,20l-20,20l-20,20l-20,20
	l-20,20l-20,20l-20,20l-20,20l-20,20l-20,20l-20,20l-20,20l-20,20l-20,20l-20,20l-20,20l-20,20l-20,20l-20,20l-20,20l-20,20l-20,20
	l-20,20l-20,20l-20,20l-20,20l-20,20l-20,20l-20,20l-20,20l-20,20l-20,20l-20,20l-20,20l-20,20l-20,20l-20,20l-20,20l-20,20l-20,20
	l-20,20l-20,20l-20,20h20l40-40L1000,1120z M1040,1120l40-40l40-40l40-40l40-40l40-40l40-40l40-40l40-40l40-40l40-40l40-40l40-40
	l40-40l40-40l40-40l40-40l40-40l40-40l40-40l40-40l40-40l40-40l40-40l40-40l40-40l40-40l40-40l40-40h-20l-20,20l-20,20l-20,20
	l-20,20l-20,20l-20,20l-20,20l-20,20l-20,20l-20,20l-20,20l-20,20l-20,20l-20,20l-20,20l-20,20l-20,20l-20,20l-20,20l-20,20l-20,20
	l-20,20l-20,20l-20,20l-20,20l-20,20l-20,20l-20,20l-20,20l-20,20l-20,20l-20,20l-20,20l-20,20l-20,20l-20,20l-20,20l-20,20l-20,20
	l-20,20l-20,20l-20,20l-20,20l-20,20l-20,20l-20,20l-20,20l-20,20l-20,20l-20,20l-20,20l-20,20l-20,20l-20,20l-20,20l-20,20l-20,20
	l-20,20l-20,20l-20,20h20l40-40L1040,1120z M1080,1120l40-40l40-40l40-40l40-40l40-40l40-40l40-40l40-40l40-40l40-40l40-40l40-40
	l40-40l40-40l40-40l40-40l40-40l40-40l40-40l40-40l40-40l40-40l40-40l40-40l40-40l40-40l40-40l40-40h-20l-20,20l-20,20l-20,20
	l-20,20l-20,20l-20,20l-20,20l-20,20l-20,20l-20,20l-20,20l-20,20l-20,20l-20,20l-20,20l-20,20l-20,20l-20,20l-20,20l-20,20l-20,20
	l-20,20l-20,20l-20,20l-20,20l-20,20l-20,20l-20,20l-20,20l-20,20l-20,20l-20,20l-20,20l-20,20l-20,20l-20,20l-20,20l-20,20l-20,20
	l-20,20l-20,20l-20,20l-20,20l-20,20l-20,20l-20,20l-20,20l-20,20l-20,20l-20,20l-20,20l-20,20l-20,20l-20,20l-20,20l-20,20l-20,20
	l-20,20l-20,20l-20,20h20l40-40L1080,1120z M1120,1120l40-40l40-40l40-40l40-40l40-40l40-40l40-40l40-40l40-40l40-40l40-40l40-40
	l40-40l40-40l40-40l40-40l40-40l40-40l40-40l40-40l40-40l40-40l40-40l40-40l40-40l40-40l40-40l40-40h-20l-20,20l-20,20l-20,20
	l-20,20l-20,20l-20,20l-20,20l-20,20l-20,20l-20,20l-20,20l-20,20l-20,20l-20,20l-20,20l-20,20l-20,20l-20,20l-20,20l-20,20l-20,20
	l-20,20l-20,20l-20,20l-20,20l-20,20l-20,20l-20,20l-20,20l-20,20l-20,20l-20,20l-20,20l-20,20l-20,20l-20,20l-20,20l-20,20l-20,20
	l-20,20l-20,20l-20,20l-20,20l-20,20l-20,20l-20,20l-20,20l-20,20l-20,20l-20,20l-20,20l-20,20l-20,20l-20,20l-20,20l-20,20l-20,20
	l-20,20l-20,20l-20,20h20l40-40L1120,1120z M1160,1120l40-40l40-40l40-40l40-40l40-40l40-40l40-40l40-40l40-40l40-40l40-40l40-40
	l40-40l40-40l40-40l40-40l40-40l40-40l40-40l40-40l40-40l40-40l40-40l40-40l40-40l40-40l40-40l40-40h-20l-20,20l-20,20l-20,20
	l-20,20l-20,20l-20,20l-20,20l-20,20l-20,20l-20,20l-20,20l-20,20l-20,20l-20,20l-20,20l-20,20l-20,20l-20,20l-20,20l-20,20l-20,20
	l-20,20l-20,20l-20,20l-20,20l-20,20l-20,20l-20,20l-20,20l-20,20l-20,20l-20,20l-20,20l-20,20l-20,20l-20,20l-20,20l-20,20l-20,20
	l-20,20l-20,20l-20,20l-20,20l-20,20l-20,20l-20,20l-20,20l-20,20l-20,20l-20,20l-20,20l-20,20l-20,20l-20,20l-20,20l-20,20l-20,20
	l-20,20l-20,20l-20,20h20l40-40L1160,1120z M1200,1120l40-40l40-40l40-40l40-40l40-40l40-40l40-40l40-40l40-40l40-40l40-40l40-40
	l40-40l40-40l40-40l40-40l40-40l40-40l40-40l40-40l40-40l40-40l40-40l40-40l40-40l40-40l40-40l40-40h-20l-20,20l-20,20l-20,20
	l-20,20l-20,20l-20,20l-20,20l-20,20l-20,20l-20,20l-20,20l-20,20l-20,20l-20,20l-20,20l-20,20l-20,20l-20,20l-20,20l-20,20l-20,20
	l-20,20l-20,20l-20,20l-20,20l-20,20l-20,20l-20,20l-20,20l-20,20l-20,20l-20,20l-20,20l-20,20l-20,20l-20,20l-20,20l-20,20l-20,20
	l-20,20l-20,20l-20,20l-20,20l-20,20l-20,20l-20,20l-20,20l-20,20l-20,20l-20,20l-20,20l-20,20l-20,20l-20,20l-20,20l-20,20l-20,20
	l-20,20l-20,20l-20,20h20l40-40L1200,1120z M80,0H60L40,20L20,40L0,60v20l40-40L80,0z M80,40l40-40h-20L80,20L60,40L40,60L20,80
	L0,100v20l40-40L80,40z M80,80l40-40l40-40h-20l-20,20l-20,20L80,60L60,80l-20,20l-20,20L0,140v20l40-40L80,80z M80,120l40-40l40-40
	l40-40h-20l-20,20l-20,20l-20,20l-20,20l-20,20l-20,20l-20,20l-20,20L0,180v20l40-40L80,120z M80,160l40-40l40-40l40-40l40-40h-20
	l-20,20l-20,20l-20,20l-20,20l-20,20l-20,20l-20,20l-20,20l-20,20l-20,20L0,220v20l40-40L80,160z M80,200l40-40l40-40l40-40l40-40
	l40-40h-20l-20,20l-20,20l-20,20l-20,20l-20,20l-20,20l-20,20l-20,20l-20,20l-20,20l-20,20l-20,20L0,260v20l40-40L80,200z M80,240
	l40-40l40-40l40-40l40-40l40-40l40-40h-20l-20,20l-20,20l-20,20l-20,20l-20,20l-20,20l-20,20l-20,20l-20,20l-20,20l-20,20l-20,20
	l-20,20l-20,20L0,300v20l40-40L80,240z M80,280l40-40l40-40l40-40l40-40l40-40l40-40l40-40h-20l-20,20l-20,20l-20,20l-20,20l-20,20
	l-20,20l-20,20l-20,20l-20,20l-20,20l-20,20l-20,20l-20,20l-20,20l-20,20l-20,20L0,340v20l40-40L80,280z M80,320l40-40l40-40l40-40
	l40-40l40-40l40-40l40-40l40-40h-20l-20,20l-20,20l-20,20l-20,20l-20,20l-20,20l-20,20l-20,20l-20,20l-20,20l-20,20l-20,20l-20,20
	l-20,20l-20,20l-20,20l-20,20l-20,20L0,380v20l40-40L80,320z M80,360l40-40l40-40l40-40l40-40l40-40l40-40l40-40l40-40l40-40h-20
	l-20,20l-20,20l-20,20l-20,20l-20,20l-20,20l-20,20l-20,20l-20,20l-20,20l-20,20l-20,20l-20,20l-20,20l-20,20l-20,20l-20,20l-20,20
	l-20,20l-20,20L0,420v20l40-40L80,360z M80,400l40-40l40-40l40-40l40-40l40-40l40-40l40-40l40-40l40-40l40-40h-20l-20,20l-20,20
	l-20,20l-20,20l-20,20l-20,20l-20,20l-20,20l-20,20l-20,20l-20,20l-20,20l-20,20l-20,20l-20,20l-20,20l-20,20l-20,20l-20,20l-20,20
	l-20,20l-20,20L0,460v20l40-40L80,400z M80,440l40-40l40-40l40-40l40-40l40-40l40-40l40-40l40-40l40-40l40-40l40-40h-20l-20,20
	l-20,20l-20,20l-20,20l-20,20l-20,20l-20,20l-20,20l-20,20l-20,20l-20,20l-20,20l-20,20l-20,20l-20,20l-20,20l-20,20l-20,20l-20,20
	l-20,20l-20,20l-20,20l-20,20l-20,20L0,500v20l40-40L80,440z M80,480l40-40l40-40l40-40l40-40l40-40l40-40l40-40l40-40l40-40l40-40
	l40-40l40-40h-20l-20,20l-20,20l-20,20l-20,20l-20,20l-20,20l-20,20l-20,20l-20,20l-20,20l-20,20l-20,20l-20,20l-20,20l-20,20
	l-20,20l-20,20l-20,20l-20,20l-20,20l-20,20l-20,20l-20,20l-20,20l-20,20l-20,20L0,540v20l40-40L80,480z M80,520l40-40l40-40l40-40
	l40-40l40-40l40-40l40-40l40-40l40-40l40-40l40-40l40-40l40-40h-20l-20,20l-20,20l-20,20l-20,20l-20,20l-20,20l-20,20l-20,20l-20,20
	l-20,20l-20,20l-20,20l-20,20l-20,20l-20,20l-20,20l-20,20l-20,20l-20,20l-20,20l-20,20l-20,20l-20,20l-20,20l-20,20l-20,20l-20,20
	l-20,20L0,580v20l40-40L80,520z M80,560l40-40l40-40l40-40l40-40l40-40l40-40l40-40l40-40l40-40l40-40l40-40l40-40l40-40l40-40h-20
	l-20,20l-20,20l-20,20l-20,20l-20,20l-20,20l-20,20l-20,20l-20,20l-20,20l-20,20l-20,20l-20,20l-20,20l-20,20l-20,20l-20,20l-20,20
	l-20,20l-20,20l-20,20l-20,20l-20,20l-20,20l-20,20l-20,20l-20,20l-20,20l-20,20l-20,20L0,620v20l40-40L80,560z M80,600l40-40l40-40
	l40-40l40-40l40-40l40-40l40-40l40-40l40-40l40-40l40-40l40-40l40-40l40-40l40-40h-20l-20,20l-20,20l-20,20l-20,20l-20,20l-20,20
	l-20,20l-20,20l-20,20l-20,20l-20,20l-20,20l-20,20l-20,20l-20,20l-20,20l-20,20l-20,20l-20,20l-20,20l-20,20l-20,20l-20,20l-20,20
	l-20,20l-20,20l-20,20l-20,20l-20,20l-20,20l-20,20l-20,20L0,660v20l40-40L80,600z M80,640l40-40l40-40l40-40l40-40l40-40l40-40
	l40-40l40-40l40-40l40-40l40-40l40-40l40-40l40-40l40-40l40-40h-20l-20,20l-20,20l-20,20l-20,20l-20,20l-20,20l-20,20l-20,20l-20,20
	l-20,20l-20,20l-20,20l-20,20l-20,20l-20,20l-20,20l-20,20l-20,20l-20,20l-20,20l-20,20l-20,20l-20,20l-20,20l-20,20l-20,20l-20,20
	l-20,20l-20,20l-20,20l-20,20l-20,20l-20,20l-20,20L0,700v20l40-40L80,640z M80,680l40-40l40-40l40-40l40-40l40-40l40-40l40-40
	l40-40l40-40l40-40l40-40l40-40l40-40l40-40l40-40l40-40l40-40h-20l-20,20l-20,20l-20,20l-20,20l-20,20l-20,20l-20,20l-20,20l-20,20
	l-20,20l-20,20l-20,20l-20,20l-20,20l-20,20l-20,20l-20,20l-20,20l-20,20l-20,20l-20,20l-20,20l-20,20l-20,20l-20,20l-20,20l-20,20
	l-20,20l-20,20l-20,20l-20,20l-20,20l-20,20l-20,20l-20,20l-20,20L0,740v20l40-40L80,680z M80,720l40-40l40-40l40-40l40-40l40-40
	l40-40l40-40l40-40l40-40l40-40l40-40l40-40l40-40l40-40l40-40l40-40l40-40l40-40h-20l-20,20l-20,20l-20,20l-20,20l-20,20l-20,20
	l-20,20l-20,20l-20,20l-20,20l-20,20l-20,20l-20,20l-20,20l-20,20l-20,20l-20,20l-20,20l-20,20l-20,20l-20,20l-20,20l-20,20l-20,20
	l-20,20l-20,20l-20,20l-20,20l-20,20l-20,20l-20,20l-20,20l-20,20l-20,20l-20,20l-20,20l-20,20l-20,20L0,780v20l40-40L80,720z
	 M80,760l40-40l40-40l40-40l40-40l40-40l40-40l40-40l40-40l40-40l40-40l40-40l40-40l40-40l40-40l40-40l40-40l40-40l40-40l40-40h-20
	l-20,20l-20,20l-20,20l-20,20l-20,20l-20,20l-20,20l-20,20l-20,20l-20,20l-20,20l-20,20l-20,20l-20,20l-20,20l-20,20l-20,20l-20,20
	l-20,20l-20,20l-20,20l-20,20l-20,20l-20,20l-20,20l-20,20l-20,20l-20,20l-20,20l-20,20l-20,20l-20,20l-20,20l-20,20l-20,20l-20,20
	l-20,20l-20,20l-20,20l-20,20L0,820v20l40-40L80,760z M80,800l40-40l40-40l40-40l40-40l40-40l40-40l40-40l40-40l40-40l40-40l40-40
	l40-40l40-40l40-40l40-40l40-40l40-40l40-40l40-40l40-40h-20l-20,20l-20,20l-20,20l-20,20l-20,20l-20,20l-20,20l-20,20l-20,20
	l-20,20l-20,20l-20,20l-20,20l-20,20l-20,20l-20,20l-20,20l-20,20l-20,20l-20,20l-20,20l-20,20l-20,20l-20,20l-20,20l-20,20l-20,20
	l-20,20l-20,20l-20,20l-20,20l-20,20l-20,20l-20,20l-20,20l-20,20l-20,20l-20,20l-20,20l-20,20l-20,20l-20,20L0,860v20l40-40L80,800
	z M80,840l40-40l40-40l40-40l40-40l40-40l40-40l40-40l40-40l40-40l40-40l40-40l40-40l40-40l40-40l40-40l40-40l40-40l40-40l40-40
	l40-40l40-40h-20l-20,20l-20,20l-20,20l-20,20l-20,20l-20,20l-20,20l-20,20l-20,20l-20,20l-20,20l-20,20l-20,20l-20,20l-20,20
	l-20,20l-20,20l-20,20l-20,20l-20,20l-20,20l-20,20l-20,20l-20,20l-20,20l-20,20l-20,20l-20,20l-20,20l-20,20l-20,20l-20,20l-20,20
	l-20,20l-20,20l-20,20l-20,20l-20,20l-20,20l-20,20l-20,20l-20,20l-20,20l-20,20L0,900v20l40-40L80,840z M80,880l40-40l40-40l40-40
	l40-40l40-40l40-40l40-40l40-40l40-40l40-40l40-40l40-40l40-40l40-40l40-40l40-40l40-40l40-40l40-40l40-40l40-40l40-40h-20l-20,20
	l-20,20l-20,20l-20,20l-20,20l-20,20l-20,20l-20,20l-20,20l-20,20l-20,20l-20,20l-20,20l-20,20l-20,20l-20,20l-20,20l-20,20l-20,20
	l-20,20l-20,20l-20,20l-20,20l-20,20l-20,20l-20,20l-20,20l-20,20l-20,20l-20,20l-20,20l-20,20l-20,20l-20,20l-20,20l-20,20l-20,20
	l-20,20l-20,20l-20,20l-20,20l-20,20l-20,20l-20,20l-20,20l-20,20L0,940v20l40-40L80,880z M80,920l40-40l40-40l40-40l40-40l40-40
	l40-40l40-40l40-40l40-40l40-40l40-40l40-40l40-40l40-40l40-40l40-40l40-40l40-40l40-40l40-40l40-40l40-40l40-40h-20l-20,20l-20,20
	l-20,20l-20,20l-20,20l-20,20l-20,20l-20,20l-20,20l-20,20l-20,20l-20,20l-20,20l-20,20l-20,20l-20,20l-20,20l-20,20l-20,20l-20,20
	l-20,20l-20,20l-20,20l-20,20l-20,20l-20,20l-20,20l-20,20l-20,20l-20,20l-20,20l-20,20l-20,20l-20,20l-20,20l-20,20l-20,20l-20,20
	l-20,20l-20,20l-20,20l-20,20l-20,20l-20,20l-20,20l-20,20l-20,20l-20,20L0,980v20l40-40L80,920z M80,960l40-40l40-40l40-40l40-40
	l40-40l40-40l40-40l40-40l40-40l40-40l40-40l40-40l40-40l40-40l40-40l40-40l40-40l40-40l40-40l40-40l40-40l40-40l40-40l40-40h-20
	l-20,20l-20,20l-20,20l-20,20l-20,20l-20,20l-20,20l-20,20l-20,20l-20,20l-20,20l-20,20l-20,20l-20,20l-20,20l-20,20l-20,20l-20,20
	l-20,20l-20,20l-20,20l-20,20l-20,20l-20,20l-20,20l-20,20l-20,20l-20,20l-20,20l-20,20l-20,20l-20,20l-20,20l-20,20l-20,20l-20,20
	l-20,20l-20,20l-20,20l-20,20l-20,20l-20,20l-20,20l-20,20l-20,20l-20,20l-20,20l-20,20l-20,20l-20,20l-20,20v20l40-40L80,960z
	 M80,1000l40-40l40-40l40-40l40-40l40-40l40-40l40-40l40-40l40-40l40-40l40-40l40-40l40-40l40-40l40-40l40-40l40-40l40-40l40-40
	l40-40l40-40l40-40l40-40l40-40l40-40h-20l-20,20l-20,20l-20,20l-20,20l-20,20l-20,20l-20,20l-20,20l-20,20l-20,20l-20,20l-20,20
	l-20,20l-20,20l-20,20l-20,20l-20,20l-20,20l-20,20l-20,20l-20,20l-20,20l-20,20l-20,20l-20,20l-20,20l-20,20l-20,20l-20,20l-20,20
	l-20,20l-20,20l-20,20l-20,20l-20,20l-20,20l-20,20l-20,20l-20,20l-20,20l-20,20l-20,20l-20,20l-20,20l-20,20l-20,20l-20,20l-20,20
	l-20,20l-20,20l-20,20l-20,20l-20,20v20l40-40L80,1000z M80,1040l40-40l40-40l40-40l40-40l40-40l40-40l40-40l40-40l40-40l40-40
	l40-40l40-40l40-40l40-40l40-40l40-40l40-40l40-40l40-40l40-40l40-40l40-40l40-40l40-40l40-40l40-40h-20l-20,20l-20,20l-20,20
	l-20,20l-20,20l-20,20l-20,20l-20,20l-20,20l-20,20l-20,20l-20,20l-20,20l-20,20l-20,20l-20,20l-20,20l-20,20l-20,20l-20,20l-20,20
	l-20,20l-20,20l-20,20l-20,20l-20,20l-20,20l-20,20l-20,20l-20,20l-20,20l-20,20l-20,20l-20,20l-20,20l-20,20l-20,20l-20,20l-20,20
	l-20,20l-20,20l-20,20l-20,20l-20,20l-20,20l-20,20l-20,20l-20,20l-20,20l-20,20l-20,20l-20,20l-20,20l-20,20l-20,20v20l40-40
	L80,1040z M80,1080l40-40l40-40l40-40l40-40l40-40l40-40l40-40l40-40l40-40l40-40l40-40l40-40l40-40l40-40l40-40l40-40l40-40l40-40
	l40-40l40-40l40-40l40-40l40-40l40-40l40-40l40-40l40-40h-20l-20,20l-20,20l-20,20l-20,20l-20,20l-20,20l-20,20l-20,20l-20,20
	l-20,20l-20,20l-20,20l-20,20l-20,20l-20,20l-20,20l-20,20l-20,20l-20,20l-20,20l-20,20l-20,20l-20,20l-20,20l-20,20l-20,20l-20,20
	l-20,20l-20,20l-20,20l-20,20l-20,20l-20,20l-20,20l-20,20l-20,20l-20,20l-20,20l-20,20l-20,20l-20,20l-20,20l-20,20l-20,20l-20,20
	l-20,20l-20,20l-20,20l-20,20l-20,20l-20,20l-20,20l-20,20l-20,20l-20,20l-20,20l-20,20v20l40-40L80,1080z M80,1120l40-40l40-40
	l40-40l40-40l40-40l40-40l40-40l40-40l40-40l40-40l40-40l40-40l40-40l40-40l40-40l40-40l40-40l40-40l40-40l40-40l40-40l40-40l40-40
	l40-40l40-40l40-40l40-40l40-40h-20l-20,20l-20,20l-20,20l-20,20l-20,20l-20,20l-20,20l-20,20l-20,20l-20,20l-20,20l-20,20l-20,20
	l-20,20l-20,20l-20,20l-20,20l-20,20l-20,20l-20,20l-20,20l-20,20l-20,20l-20,20l-20,20l-20,20l-20,20l-20,20l-20,20l-20,20l-20,20
	l-20,20l-20,20l-20,20l-20,20l-20,20l-20,20l-20,20l-20,20l-20,20l-20,20l-20,20l-20,20l-20,20l-20,20l-20,20l-20,20l-20,20l-20,20
	l-20,20l-20,20l-20,20l-20,20l-20,20l-20,20l-20,20l-20,20l-20,20l-20,20v20l40-40L80,1120z M20,0L0,20v20L40,0H20z"/>
<g id="Layer_3_1_">
	<path class="st2" d="M1217.4,576h20v8.9H1223V624h-5.6 M1190,607.7l-8.1,16.3h-13.3l13.7-24.2L1169,576h13.1l7.9,16"/>
	<path class="st3" d="M1211.1,576h-13.3l-0.5,1.1L1190,592v15.7l8.1,16.3h13.3l-13.8-24.2l8.4-14.9h5.5V624h5.9v-48H1211.1z"/>
</g>
</svg>
