<svg version="1.1" id="Layer_1" xmlns="http://www.w3.org/2000/svg" x="0" y="0" viewBox="0 0 2400 1200" xml:space="preserve"><style>.st1{fill:#7e7e7e}.st2{fill:#fff}</style><path fill="#777" d="M1200 0H0v1200h2400V0z"/><path class="st1" d="M2360 60l-20 20-20 20-20 20-20 20-20 20-20 20-20 20-20 20-20 20-20 20-20 20-20 20-20 20-20 20-20 20-20 20-20 20-20 20-20 20-20 20-20 20-20 20-20 20-20 20-20 20-20 20-20 20-20 20-20 20-20 20-20 20-20 20-20 20-20 20-20 20-20 20-20 20-20 20-20 20-20 20-20 20-20 20-20 20-20 20-20 20-20 20-20 20-20 20-20 20-20 20-20 20-20 20-20 20-20 20-20 20-20 20-20 20h20l40-40 40-40 40-40 40-40 40-40 40-40 40-40 40-40 40-40 40-40 40-40 40-40 40-40 40-40 40-40 40-40 40-40 40-40 40-40 40-40 40-40 40-40 40-40 40-40 40-40 40-40 40-40 40-40 40-40V20l-20 20zM2360 100l-20 20-20 20-20 20-20 20-20 20-20 20-20 20-20 20-20 20-20 20-20 20-20 20-20 20-20 20-20 20-20 20-20 20-20 20-20 20-20 20-20 20-20 20-20 20-20 20-20 20-20 20-20 20-20 20-20 20-20 20-20 20-20 20-20 20-20 20-20 20-20 20-20 20-20 20-20 20-20 20-20 20-20 20-20 20-20 20-20 20-20 20-20 20-20 20-20 20-20 20-20 20-20 20-20 20-20 20-20 20h20l40-40 40-40 40-40 40-40 40-40 40-40 40-40 40-40 40-40 40-40 40-40 40-40 40-40 40-40 40-40 40-40 40-40 40-40 40-40 40-40 40-40 40-40 40-40 40-40 40-40 40-40 40-40 40-40V60l-20 20zM2360 140l-20 20-20 20-20 20-20 20-20 20-20 20-20 20-20 20-20 20-20 20-20 20-20 20-20 20-20 20-20 20-20 20-20 20-20 20-20 20-20 20-20 20-20 20-20 20-20 20-20 20-20 20-20 20-20 20-20 20-20 20-20 20-20 20-20 20-20 20-20 20-20 20-20 20-20 20-20 20-20 20-20 20-20 20-20 20-20 20-20 20-20 20-20 20-20 20-20 20-20 20-20 20-20 20-20 20h20l40-40 40-40 40-40 40-40 40-40 40-40 40-40 40-40 40-40 40-40 40-40 40-40 40-40 40-40 40-40 40-40 40-40 40-40 40-40 40-40 40-40 40-40 40-40 40-40 40-40 40-40 40-40v-20l-20 20zM2360 180l-20 20-20 20-20 20-20 20-20 20-20 20-20 20-20 20-20 20-20 20-20 20-20 20-20 20-20 20-20 20-20 20-20 20-20 20-20 20-20 20-20 20-20 20-20 20-20 20-20 20-20 20-20 20-20 20-20 20-20 20-20 20-20 20-20 20-20 20-20 20-20 20-20 20-20 20-20 20-20 20-20 20-20 20-20 20-20 20-20 20-20 20-20 20-20 20-20 20-20 20-20 20h20l40-40 40-40 40-40 40-40 40-40 40-40 40-40 40-40 40-40 40-40 40-40 40-40 40-40 40-40 40-40 40-40 40-40 40-40 40-40 40-40 40-40 40-40 40-40 40-40 40-40 40-40v-20l-20 20zM2360 220l-20 20-20 20-20 20-20 20-20 20-20 20-20 20-20 20-20 20-20 20-20 20-20 20-20 20-20 20-20 20-20 20-20 20-20 20-20 20-20 20-20 20-20 20-20 20-20 20-20 20-20 20-20 20-20 20-20 20-20 20-20 20-20 20-20 20-20 20-20 20-20 20-20 20-20 20-20 20-20 20-20 20-20 20-20 20-20 20-20 20-20 20-20 20-20 20-20 20h20l40-40 40-40 40-40 40-40 40-40 40-40 40-40 40-40 40-40 40-40 40-40 40-40 40-40 40-40 40-40 40-40 40-40 40-40 40-40 40-40 40-40 40-40 40-40 40-40 40-40v-20l-20 20zM2360 260l-20 20-20 20-20 20-20 20-20 20-20 20-20 20-20 20-20 20-20 20-20 20-20 20-20 20-20 20-20 20-20 20-20 20-20 20-20 20-20 20-20 20-20 20-20 20-20 20-20 20-20 20-20 20-20 20-20 20-20 20-20 20-20 20-20 20-20 20-20 20-20 20-20 20-20 20-20 20-20 20-20 20-20 20-20 20-20 20-20 20-20 20-20 20h20l40-40 40-40 40-40 40-40 40-40 40-40 40-40 40-40 40-40 40-40 40-40 40-40 40-40 40-40 40-40 40-40 40-40 40-40 40-40 40-40 40-40 40-40 40-40 40-40v-20l-20 20zM2360 300l-20 20-20 20-20 20-20 20-20 20-20 20-20 20-20 20-20 20-20 20-20 20-20 20-20 20-20 20-20 20-20 20-20 20-20 20-20 20-20 20-20 20-20 20-20 20-20 20-20 20-20 20-20 20-20 20-20 20-20 20-20 20-20 20-20 20-20 20-20 20-20 20-20 20-20 20-20 20-20 20-20 20-20 20-20 20-20 20-20 20h20l40-40 40-40 40-40 40-40 40-40 40-40 40-40 40-40 40-40 40-40 40-40 40-40 40-40 40-40 40-40 40-40 40-40 40-40 40-40 40-40 40-40 40-40 40-40v-20l-20 20zM2360 340l-20 20-20 20-20 20-20 20-20 20-20 20-20 20-20 20-20 20-20 20-20 20-20 20-20 20-20 20-20 20-20 20-20 20-20 20-20 20-20 20-20 20-20 20-20 20-20 20-20 20-20 20-20 20-20 20-20 20-20 20-20 20-20 20-20 20-20 20-20 20-20 20-20 20-20 20-20 20-20 20-20 20-20 20-20 20h20l40-40 40-40 40-40 40-40 40-40 40-40 40-40 40-40 40-40 40-40 40-40 40-40 40-40 40-40 40-40 40-40 40-40 40-40 40-40 40-40 40-40 40-40v-20l-20 20zM2360 380l-20 20-20 20-20 20-20 20-20 20-20 20-20 20-20 20-20 20-20 20-20 20-20 20-20 20-20 20-20 20-20 20-20 20-20 20-20 20-20 20-20 20-20 20-20 20-20 20-20 20-20 20-20 20-20 20-20 20-20 20-20 20-20 20-20 20-20 20-20 20-20 20-20 20-20 20-20 20-20 20-20 20h20l40-40 40-40 40-40 40-40 40-40 40-40 40-40 40-40 40-40 40-40 40-40 40-40 40-40 40-40 40-40 40-40 40-40 40-40 40-40 40-40 40-40v-20l-20 20zM2360 420l-20 20-20 20-20 20-20 20-20 20-20 20-20 20-20 20-20 20-20 20-20 20-20 20-20 20-20 20-20 20-20 20-20 20-20 20-20 20-20 20-20 20-20 20-20 20-20 20-20 20-20 20-20 20-20 20-20 20-20 20-20 20-20 20-20 20-20 20-20 20-20 20-20 20-20 20-20 20h20l40-40 40-40 40-40 40-40 40-40 40-40 40-40 40-40 40-40 40-40 40-40 40-40 40-40 40-40 40-40 40-40 40-40 40-40 40-40 40-40v-20l-20 20zM2360 460l-20 20-20 20-20 20-20 20-20 20-20 20-20 20-20 20-20 20-20 20-20 20-20 20-20 20-20 20-20 20-20 20-20 20-20 20-20 20-20 20-20 20-20 20-20 20-20 20-20 20-20 20-20 20-20 20-20 20-20 20-20 20-20 20-20 20-20 20-20 20-20 20-20 20h20l40-40 40-40 40-40 40-40 40-40 40-40 40-40 40-40 40-40 40-40 40-40 40-40 40-40 40-40 40-40 40-40 40-40 40-40 40-40v-20l-20 20zM2360 500l-20 20-20 20-20 20-20 20-20 20-20 20-20 20-20 20-20 20-20 20-20 20-20 20-20 20-20 20-20 20-20 20-20 20-20 20-20 20-20 20-20 20-20 20-20 20-20 20-20 20-20 20-20 20-20 20-20 20-20 20-20 20-20 20-20 20-20 20-20 20h20l40-40 40-40 40-40 40-40 40-40 40-40 40-40 40-40 40-40 40-40 40-40 40-40 40-40 40-40 40-40 40-40 40-40 40-40v-20l-20 20zM2360 540l-20 20-20 20-20 20-20 20-20 20-20 20-20 20-20 20-20 20-20 20-20 20-20 20-20 20-20 20-20 20-20 20-20 20-20 20-20 20-20 20-20 20-20 20-20 20-20 20-20 20-20 20-20 20-20 20-20 20-20 20-20 20-20 20-20 20h20l40-40 40-40 40-40 40-40 40-40 40-40 40-40 40-40 40-40 40-40 40-40 40-40 40-40 40-40 40-40 40-40 40-40v-20l-20 20zM2360 580l-20 20-20 20-20 20-20 20-20 20-20 20-20 20-20 20-20 20-20 20-20 20-20 20-20 20-20 20-20 20-20 20-20 20-20 20-20 20-20 20-20 20-20 20-20 20-20 20-20 20-20 20-20 20-20 20-20 20-20 20-20 20h20l40-40 40-40 40-40 40-40 40-40 40-40 40-40 40-40 40-40 40-40 40-40 40-40 40-40 40-40 40-40 40-40v-20l-20 20zM2360 620l-20 20-20 20-20 20-20 20-20 20-20 20-20 20-20 20-20 20-20 20-20 20-20 20-20 20-20 20-20 20-20 20-20 20-20 20-20 20-20 20-20 20-20 20-20 20-20 20-20 20-20 20-20 20-20 20-20 20h20l40-40 40-40 40-40 40-40 40-40 40-40 40-40 40-40 40-40 40-40 40-40 40-40 40-40 40-40 40-40v-20l-20 20zM2360 660l-20 20-20 20-20 20-20 20-20 20-20 20-20 20-20 20-20 20-20 20-20 20-20 20-20 20-20 20-20 20-20 20-20 20-20 20-20 20-20 20-20 20-20 20-20 20-20 20-20 20-20 20-20 20h20l40-40 40-40 40-40 40-40 40-40 40-40 40-40 40-40 40-40 40-40 40-40 40-40 40-40 40-40v-20l-20 20zM2360 700l-20 20-20 20-20 20-20 20-20 20-20 20-20 20-20 20-20 20-20 20-20 20-20 20-20 20-20 20-20 20-20 20-20 20-20 20-20 20-20 20-20 20-20 20-20 20-20 20-20 20h20l40-40 40-40 40-40 40-40 40-40 40-40 40-40 40-40 40-40 40-40 40-40 40-40 40-40v-20l-20 20zM2360 740l-20 20-20 20-20 20-20 20-20 20-20 20-20 20-20 20-20 20-20 20-20 20-20 20-20 20-20 20-20 20-20 20-20 20-20 20-20 20-20 20-20 20-20 20-20 20h20l40-40 40-40 40-40 40-40 40-40 40-40 40-40 40-40 40-40 40-40 40-40 40-40v-20l-20 20zM2360 780l-20 20-20 20-20 20-20 20-20 20-20 20-20 20-20 20-20 20-20 20-20 20-20 20-20 20-20 20-20 20-20 20-20 20-20 20-20 20-20 20-20 20h20l40-40 40-40 40-40 40-40 40-40 40-40 40-40 40-40 40-40 40-40 40-40v-20l-20 20zM2360 820l-20 20-20 20-20 20-20 20-20 20-20 20-20 20-20 20-20 20-20 20-20 20-20 20-20 20-20 20-20 20-20 20-20 20-20 20-20 20h20l40-40 40-40 40-40 40-40 40-40 40-40 40-40 40-40 40-40 40-40v-20l-20 20zM2360 860l-20 20-20 20-20 20-20 20-20 20-20 20-20 20-20 20-20 20-20 20-20 20-20 20-20 20-20 20-20 20-20 20-20 20h20l40-40 40-40 40-40 40-40 40-40 40-40 40-40 40-40 40-40v-20l-20 20zM2360 900l-20 20-20 20-20 20-20 20-20 20-20 20-20 20-20 20-20 20-20 20-20 20-20 20-20 20-20 20-20 20h20l40-40 40-40 40-40 40-40 40-40 40-40 40-40 40-40v-20l-20 20zM2360 940l-20 20-20 20-20 20-20 20-20 20-20 20-20 20-20 20-20 20-20 20-20 20-20 20-20 20h20l40-40 40-40 40-40 40-40 40-40 40-40 40-40v-20l-20 20zM2360 980l-20 20-20 20-20 20-20 20-20 20-20 20-20 20-20 20-20 20-20 20-20 20h20l40-40 40-40 40-40 40-40 40-40 40-40v-20l-20 20zM2360 1020l-20 20-20 20-20 20-20 20-20 20-20 20-20 20-20 20-20 20h20l40-40 40-40 40-40 40-40 40-40v-20l-20 20zM2360 1060l-20 20-20 20-20 20-20 20-20 20-20 20-20 20h20l40-40 40-40 40-40 40-40v-20l-20 20zM2360 1100l-20 20-20 20-20 20-20 20-20 20h20l40-40 40-40 40-40v-20l-20 20zM2360 1140l-20 20-20 20-20 20h20l40-40 40-40v-20l-20 20zM2360 1180l-20 20h20l40-40v-20l-20 20zM2400 1200v-20l-20 20zM1240 1120l40-40 40-40 40-40 40-40 40-40 40-40 40-40 40-40 40-40 40-40 40-40 40-40 40-40 40-40 40-40 40-40 40-40 40-40 40-40 40-40 40-40 40-40 40-40 40-40 40-40 40-40 40-40 40-40h-20l-20 20-20 20-20 20-20 20-20 20-20 20-20 20-20 20-20 20-20 20-20 20-20 20-20 20-20 20-20 20-20 20-20 20-20 20-20 20-20 20-20 20-20 20-20 20-20 20-20 20-20 20-20 20-20 20-20 20-20 20-20 20-20 20-20 20-20 20-20 20-20 20-20 20-20 20-20 20-20 20-20 20-20 20-20 20-20 20-20 20-20 20-20 20-20 20-20 20-20 20-20 20-20 20-20 20-20 20-20 20-20 20-20 20-20 20-20 20-20 20h20l40-40zM1280 1120l40-40 40-40 40-40 40-40 40-40 40-40 40-40 40-40 40-40 40-40 40-40 40-40 40-40 40-40 40-40 40-40 40-40 40-40 40-40 40-40 40-40 40-40 40-40 40-40 40-40 40-40 40-40 40-40h-20l-20 20-20 20-20 20-20 20-20 20-20 20-20 20-20 20-20 20-20 20-20 20-20 20-20 20-20 20-20 20-20 20-20 20-20 20-20 20-20 20-20 20-20 20-20 20-20 20-20 20-20 20-20 20-20 20-20 20-20 20-20 20-20 20-20 20-20 20-20 20-20 20-20 20-20 20-20 20-20 20-20 20-20 20-20 20-20 20-20 20-20 20-20 20-20 20-20 20-20 20-20 20-20 20-20 20-20 20-20 20-20 20-20 20-20 20-20 20-20 20h20l40-40zM120 1120l40-40 40-40 40-40 40-40 40-40 40-40 40-40 40-40 40-40 40-40 40-40 40-40 40-40 40-40 40-40 40-40 40-40 40-40 40-40 40-40 40-40 40-40 40-40 40-40 40-40 40-40 40-40 40-40h-20l-20 20-20 20-20 20-20 20-20 20-20 20-20 20-20 20-20 20-20 20-20 20-20 20-20 20-20 20-20 20-20 20-20 20-20 20-20 20-20 20-20 20-20 20-20 20-20 20-20 20-20 20-20 20-20 20-20 20-20 20-20 20-20 20-20 20-20 20-20 20-20 20-20 20-20 20-20 20-20 20-20 20-20 20-20 20-20 20-20 20-20 20-20 20-20 20-20 20-20 20-20 20-20 20-20 20-20 20-20 20-20 20-20 20-20 20-20 20-20 20h20l40-40zM160 1120l40-40 40-40 40-40 40-40 40-40 40-40 40-40 40-40 40-40 40-40 40-40 40-40 40-40 40-40 40-40 40-40 40-40 40-40 40-40 40-40 40-40 40-40 40-40 40-40 40-40 40-40 40-40 40-40h-20l-20 20-20 20-20 20-20 20-20 20-20 20-20 20-20 20-20 20-20 20-20 20-20 20-20 20-20 20-20 20-20 20-20 20-20 20-20 20-20 20-20 20-20 20-20 20-20 20-20 20-20 20-20 20-20 20-20 20-20 20-20 20-20 20-20 20-20 20-20 20-20 20-20 20-20 20-20 20-20 20-20 20-20 20-20 20-20 20-20 20-20 20-20 20-20 20-20 20-20 20-20 20-20 20-20 20-20 20-20 20-20 20-20 20-20 20-20 20-20 20h20l40-40zM200 1120l40-40 40-40 40-40 40-40 40-40 40-40 40-40 40-40 40-40 40-40 40-40 40-40 40-40 40-40 40-40 40-40 40-40 40-40 40-40 40-40 40-40 40-40 40-40 40-40 40-40 40-40 40-40 40-40h-20l-20 20-20 20-20 20-20 20-20 20-20 20-20 20-20 20-20 20-20 20-20 20-20 20-20 20-20 20-20 20-20 20-20 20-20 20-20 20-20 20-20 20-20 20-20 20-20 20-20 20-20 20-20 20-20 20-20 20-20 20-20 20-20 20-20 20-20 20-20 20-20 20-20 20-20 20-20 20-20 20-20 20-20 20-20 20-20 20-20 20-20 20-20 20-20 20-20 20-20 20-20 20-20 20-20 20-20 20-20 20-20 20-20 20-20 20-20 20-20 20h20l40-40zM240 1120l40-40 40-40 40-40 40-40 40-40 40-40 40-40 40-40 40-40 40-40 40-40 40-40 40-40 40-40 40-40 40-40 40-40 40-40 40-40 40-40 40-40 40-40 40-40 40-40 40-40 40-40 40-40 40-40h-20l-20 20-20 20-20 20-20 20-20 20-20 20-20 20-20 20-20 20-20 20-20 20-20 20-20 20-20 20-20 20-20 20-20 20-20 20-20 20-20 20-20 20-20 20-20 20-20 20-20 20-20 20-20 20-20 20-20 20-20 20-20 20-20 20-20 20-20 20-20 20-20 20-20 20-20 20-20 20-20 20-20 20-20 20-20 20-20 20-20 20-20 20-20 20-20 20-20 20-20 20-20 20-20 20-20 20-20 20-20 20-20 20-20 20-20 20-20 20-20 20h20l40-40zM280 1120l40-40 40-40 40-40 40-40 40-40 40-40 40-40 40-40 40-40 40-40 40-40 40-40 40-40 40-40 40-40 40-40 40-40 40-40 40-40 40-40 40-40 40-40 40-40 40-40 40-40 40-40 40-40 40-40h-20l-20 20-20 20-20 20-20 20-20 20-20 20-20 20-20 20-20 20-20 20-20 20-20 20-20 20-20 20-20 20-20 20-20 20-20 20-20 20-20 20-20 20-20 20-20 20-20 20-20 20-20 20-20 20-20 20-20 20-20 20-20 20-20 20-20 20-20 20-20 20-20 20-20 20-20 20-20 20-20 20-20 20-20 20-20 20-20 20-20 20-20 20-20 20-20 20-20 20-20 20-20 20-20 20-20 20-20 20-20 20-20 20-20 20-20 20-20 20-20 20h20l40-40zM320 1120l40-40 40-40 40-40 40-40 40-40 40-40 40-40 40-40 40-40 40-40 40-40 40-40 40-40 40-40 40-40 40-40 40-40 40-40 40-40 40-40 40-40 40-40 40-40 40-40 40-40 40-40 40-40 40-40h-20l-20 20-20 20-20 20-20 20-20 20-20 20-20 20-20 20-20 20-20 20-20 20-20 20-20 20-20 20-20 20-20 20-20 20-20 20-20 20-20 20-20 20-20 20-20 20-20 20-20 20-20 20-20 20-20 20-20 20-20 20-20 20-20 20-20 20-20 20-20 20-20 20-20 20-20 20-20 20-20 20-20 20-20 20-20 20-20 20-20 20-20 20-20 20-20 20-20 20-20 20-20 20-20 20-20 20-20 20-20 20-20 20-20 20-20 20-20 20-20 20h20l40-40zM360 1120l40-40 40-40 40-40 40-40 40-40 40-40 40-40 40-40 40-40 40-40 40-40 40-40 40-40 40-40 40-40 40-40 40-40 40-40 40-40 40-40 40-40 40-40 40-40 40-40 40-40 40-40 40-40 40-40h-20l-20 20-20 20-20 20-20 20-20 20-20 20-20 20-20 20-20 20-20 20-20 20-20 20-20 20-20 20-20 20-20 20-20 20-20 20-20 20-20 20-20 20-20 20-20 20-20 20-20 20-20 20-20 20-20 20-20 20-20 20-20 20-20 20-20 20-20 20-20 20-20 20-20 20-20 20-20 20-20 20-20 20-20 20-20 20-20 20-20 20-20 20-20 20-20 20-20 20-20 20-20 20-20 20-20 20-20 20-20 20-20 20-20 20-20 20-20 20-20 20h20l40-40zM400 1120l40-40 40-40 40-40 40-40 40-40 40-40 40-40 40-40 40-40 40-40 40-40 40-40 40-40 40-40 40-40 40-40 40-40 40-40 40-40 40-40 40-40 40-40 40-40 40-40 40-40 40-40 40-40 40-40h-20l-20 20-20 20-20 20-20 20-20 20-20 20-20 20-20 20-20 20-20 20-20 20-20 20-20 20-20 20-20 20-20 20-20 20-20 20-20 20-20 20-20 20-20 20-20 20-20 20-20 20-20 20-20 20-20 20-20 20-20 20-20 20-20 20-20 20-20 20-20 20-20 20-20 20-20 20-20 20-20 20-20 20-20 20-20 20-20 20-20 20-20 20-20 20-20 20-20 20-20 20-20 20-20 20-20 20-20 20-20 20-20 20-20 20-20 20-20 20-20 20h20l40-40zM440 1120l40-40 40-40 40-40 40-40 40-40 40-40 40-40 40-40 40-40 40-40 40-40 40-40 40-40 40-40 40-40 40-40 40-40 40-40 40-40 40-40 40-40 40-40 40-40 40-40 40-40 40-40 40-40 40-40h-20l-20 20-20 20-20 20-20 20-20 20-20 20-20 20-20 20-20 20-20 20-20 20-20 20-20 20-20 20-20 20-20 20-20 20-20 20-20 20-20 20-20 20-20 20-20 20-20 20-20 20-20 20-20 20-20 20-20 20-20 20-20 20-20 20-20 20-20 20-20 20-20 20-20 20-20 20-20 20-20 20-20 20-20 20-20 20-20 20-20 20-20 20-20 20-20 20-20 20-20 20-20 20-20 20-20 20-20 20-20 20-20 20-20 20-20 20-20 20-20 20h20l40-40zM480 1120l40-40 40-40 40-40 40-40 40-40 40-40 40-40 40-40 40-40 40-40 40-40 40-40 40-40 40-40 40-40 40-40 40-40 40-40 40-40 40-40 40-40 40-40 40-40 40-40 40-40 40-40 40-40 40-40h-20l-20 20-20 20-20 20-20 20-20 20-20 20-20 20-20 20-20 20-20 20-20 20-20 20-20 20-20 20-20 20-20 20-20 20-20 20-20 20-20 20-20 20-20 20-20 20-20 20-20 20-20 20-20 20-20 20-20 20-20 20-20 20-20 20-20 20-20 20-20 20-20 20-20 20-20 20-20 20-20 20-20 20-20 20-20 20-20 20-20 20-20 20-20 20-20 20-20 20-20 20-20 20-20 20-20 20-20 20-20 20-20 20-20 20-20 20-20 20-20 20h20l40-40zM520 1120l40-40 40-40 40-40 40-40 40-40 40-40 40-40 40-40 40-40 40-40 40-40 40-40 40-40 40-40 40-40 40-40 40-40 40-40 40-40 40-40 40-40 40-40 40-40 40-40 40-40 40-40 40-40 40-40h-20l-20 20-20 20-20 20-20 20-20 20-20 20-20 20-20 20-20 20-20 20-20 20-20 20-20 20-20 20-20 20-20 20-20 20-20 20-20 20-20 20-20 20-20 20-20 20-20 20-20 20-20 20-20 20-20 20-20 20-20 20-20 20-20 20-20 20-20 20-20 20-20 20-20 20-20 20-20 20-20 20-20 20-20 20-20 20-20 20-20 20-20 20-20 20-20 20-20 20-20 20-20 20-20 20-20 20-20 20-20 20-20 20-20 20-20 20-20 20-20 20h20l40-40zM560 1120l40-40 40-40 40-40 40-40 40-40 40-40 40-40 40-40 40-40 40-40 40-40 40-40 40-40 40-40 40-40 40-40 40-40 40-40 40-40 40-40 40-40 40-40 40-40 40-40 40-40 40-40 40-40 40-40h-20l-20 20-20 20-20 20-20 20-20 20-20 20-20 20-20 20-20 20-20 20-20 20-20 20-20 20-20 20-20 20-20 20-20 20-20 20-20 20-20 20-20 20-20 20-20 20-20 20-20 20-20 20-20 20-20 20-20 20-20 20-20 20-20 20-20 20-20 20-20 20-20 20-20 20-20 20-20 20-20 20-20 20-20 20-20 20-20 20-20 20-20 20-20 20-20 20-20 20-20 20-20 20-20 20-20 20-20 20-20 20-20 20-20 20-20 20-20 20-20 20h20l40-40zM600 1120l40-40 40-40 40-40 40-40 40-40 40-40 40-40 40-40 40-40 40-40 40-40 40-40 40-40 40-40 40-40 40-40 40-40 40-40 40-40 40-40 40-40 40-40 40-40 40-40 40-40 40-40 40-40 40-40h-20l-20 20-20 20-20 20-20 20-20 20-20 20-20 20-20 20-20 20-20 20-20 20-20 20-20 20-20 20-20 20-20 20-20 20-20 20-20 20-20 20-20 20-20 20-20 20-20 20-20 20-20 20-20 20-20 20-20 20-20 20-20 20-20 20-20 20-20 20-20 20-20 20-20 20-20 20-20 20-20 20-20 20-20 20-20 20-20 20-20 20-20 20-20 20-20 20-20 20-20 20-20 20-20 20-20 20-20 20-20 20-20 20-20 20-20 20-20 20-20 20h20l40-40zM640 1120l40-40 40-40 40-40 40-40 40-40 40-40 40-40 40-40 40-40 40-40 40-40 40-40 40-40 40-40 40-40 40-40 40-40 40-40 40-40 40-40 40-40 40-40 40-40 40-40 40-40 40-40 40-40 40-40h-20l-20 20-20 20-20 20-20 20-20 20-20 20-20 20-20 20-20 20-20 20-20 20-20 20-20 20-20 20-20 20-20 20-20 20-20 20-20 20-20 20-20 20-20 20-20 20-20 20-20 20-20 20-20 20-20 20-20 20-20 20-20 20-20 20-20 20-20 20-20 20-20 20-20 20-20 20-20 20-20 20-20 20-20 20-20 20-20 20-20 20-20 20-20 20-20 20-20 20-20 20-20 20-20 20-20 20-20 20-20 20-20 20-20 20-20 20-20 20-20 20h20l40-40zM680 1120l40-40 40-40 40-40 40-40 40-40 40-40 40-40 40-40 40-40 40-40 40-40 40-40 40-40 40-40 40-40 40-40 40-40 40-40 40-40 40-40 40-40 40-40 40-40 40-40 40-40 40-40 40-40 40-40h-20l-20 20-20 20-20 20-20 20-20 20-20 20-20 20-20 20-20 20-20 20-20 20-20 20-20 20-20 20-20 20-20 20-20 20-20 20-20 20-20 20-20 20-20 20-20 20-20 20-20 20-20 20-20 20-20 20-20 20-20 20-20 20-20 20-20 20-20 20-20 20-20 20-20 20-20 20-20 20-20 20-20 20-20 20-20 20-20 20-20 20-20 20-20 20-20 20-20 20-20 20-20 20-20 20-20 20-20 20-20 20-20 20-20 20-20 20-20 20-20 20h20l40-40zM720 1120l40-40 40-40 40-40 40-40 40-40 40-40 40-40 40-40 40-40 40-40 40-40 40-40 40-40 40-40 40-40 40-40 40-40 40-40 40-40 40-40 40-40 40-40 40-40 40-40 40-40 40-40 40-40 40-40h-20l-20 20-20 20-20 20-20 20-20 20-20 20-20 20-20 20-20 20-20 20-20 20-20 20-20 20-20 20-20 20-20 20-20 20-20 20-20 20-20 20-20 20-20 20-20 20-20 20-20 20-20 20-20 20-20 20-20 20-20 20-20 20-20 20-20 20-20 20-20 20-20 20-20 20-20 20-20 20-20 20-20 20-20 20-20 20-20 20-20 20-20 20-20 20-20 20-20 20-20 20-20 20-20 20-20 20-20 20-20 20-20 20-20 20-20 20-20 20-20 20h20l40-40zM760 1120l40-40 40-40 40-40 40-40 40-40 40-40 40-40 40-40 40-40 40-40 40-40 40-40 40-40 40-40 40-40 40-40 40-40 40-40 40-40 40-40 40-40 40-40 40-40 40-40 40-40 40-40 40-40 40-40h-20l-20 20-20 20-20 20-20 20-20 20-20 20-20 20-20 20-20 20-20 20-20 20-20 20-20 20-20 20-20 20-20 20-20 20-20 20-20 20-20 20-20 20-20 20-20 20-20 20-20 20-20 20-20 20-20 20-20 20-20 20-20 20-20 20-20 20-20 20-20 20-20 20-20 20-20 20-20 20-20 20-20 20-20 20-20 20-20 20-20 20-20 20-20 20-20 20-20 20-20 20-20 20-20 20-20 20-20 20-20 20-20 20-20 20-20 20-20 20-20 20h20l40-40zM800 1120l40-40 40-40 40-40 40-40 40-40 40-40 40-40 40-40 40-40 40-40 40-40 40-40 40-40 40-40 40-40 40-40 40-40 40-40 40-40 40-40 40-40 40-40 40-40 40-40 40-40 40-40 40-40 40-40h-20l-20 20-20 20-20 20-20 20-20 20-20 20-20 20-20 20-20 20-20 20-20 20-20 20-20 20-20 20-20 20-20 20-20 20-20 20-20 20-20 20-20 20-20 20-20 20-20 20-20 20-20 20-20 20-20 20-20 20-20 20-20 20-20 20-20 20-20 20-20 20-20 20-20 20-20 20-20 20-20 20-20 20-20 20-20 20-20 20-20 20-20 20-20 20-20 20-20 20-20 20-20 20-20 20-20 20-20 20-20 20-20 20-20 20-20 20-20 20-20 20h20l40-40zM840 1120l40-40 40-40 40-40 40-40 40-40 40-40 40-40 40-40 40-40 40-40 40-40 40-40 40-40 40-40 40-40 40-40 40-40 40-40 40-40 40-40 40-40 40-40 40-40 40-40 40-40 40-40 40-40 40-40h-20l-20 20-20 20-20 20-20 20-20 20-20 20-20 20-20 20-20 20-20 20-20 20-20 20-20 20-20 20-20 20-20 20-20 20-20 20-20 20-20 20-20 20-20 20-20 20-20 20-20 20-20 20-20 20-20 20-20 20-20 20-20 20-20 20-20 20-20 20-20 20-20 20-20 20-20 20-20 20-20 20-20 20-20 20-20 20-20 20-20 20-20 20-20 20-20 20-20 20-20 20-20 20-20 20-20 20-20 20-20 20-20 20-20 20-20 20-20 20-20 20h20l40-40zM880 1120l40-40 40-40 40-40 40-40 40-40 40-40 40-40 40-40 40-40 40-40 40-40 40-40 40-40 40-40 40-40 40-40 40-40 40-40 40-40 40-40 40-40 40-40 40-40 40-40 40-40 40-40 40-40 40-40h-20l-20 20-20 20-20 20-20 20-20 20-20 20-20 20-20 20-20 20-20 20-20 20-20 20-20 20-20 20-20 20-20 20-20 20-20 20-20 20-20 20-20 20-20 20-20 20-20 20-20 20-20 20-20 20-20 20-20 20-20 20-20 20-20 20-20 20-20 20-20 20-20 20-20 20-20 20-20 20-20 20-20 20-20 20-20 20-20 20-20 20-20 20-20 20-20 20-20 20-20 20-20 20-20 20-20 20-20 20-20 20-20 20-20 20-20 20-20 20-20 20h20l40-40zM920 1120l40-40 40-40 40-40 40-40 40-40 40-40 40-40 40-40 40-40 40-40 40-40 40-40 40-40 40-40 40-40 40-40 40-40 40-40 40-40 40-40 40-40 40-40 40-40 40-40 40-40 40-40 40-40 40-40h-20l-20 20-20 20-20 20-20 20-20 20-20 20-20 20-20 20-20 20-20 20-20 20-20 20-20 20-20 20-20 20-20 20-20 20-20 20-20 20-20 20-20 20-20 20-20 20-20 20-20 20-20 20-20 20-20 20-20 20-20 20-20 20-20 20-20 20-20 20-20 20-20 20-20 20-20 20-20 20-20 20-20 20-20 20-20 20-20 20-20 20-20 20-20 20-20 20-20 20-20 20-20 20-20 20-20 20-20 20-20 20-20 20-20 20-20 20-20 20-20 20h20l40-40zM960 1120l40-40 40-40 40-40 40-40 40-40 40-40 40-40 40-40 40-40 40-40 40-40 40-40 40-40 40-40 40-40 40-40 40-40 40-40 40-40 40-40 40-40 40-40 40-40 40-40 40-40 40-40 40-40 40-40h-20l-20 20-20 20-20 20-20 20-20 20-20 20-20 20-20 20-20 20-20 20-20 20-20 20-20 20-20 20-20 20-20 20-20 20-20 20-20 20-20 20-20 20-20 20-20 20-20 20-20 20-20 20-20 20-20 20-20 20-20 20-20 20-20 20-20 20-20 20-20 20-20 20-20 20-20 20-20 20-20 20-20 20-20 20-20 20-20 20-20 20-20 20-20 20-20 20-20 20-20 20-20 20-20 20-20 20-20 20-20 20-20 20-20 20-20 20-20 20-20 20h20l40-40zM1000 1120l40-40 40-40 40-40 40-40 40-40 40-40 40-40 40-40 40-40 40-40 40-40 40-40 40-40 40-40 40-40 40-40 40-40 40-40 40-40 40-40 40-40 40-40 40-40 40-40 40-40 40-40 40-40 40-40h-20l-20 20-20 20-20 20-20 20-20 20-20 20-20 20-20 20-20 20-20 20-20 20-20 20-20 20-20 20-20 20-20 20-20 20-20 20-20 20-20 20-20 20-20 20-20 20-20 20-20 20-20 20-20 20-20 20-20 20-20 20-20 20-20 20-20 20-20 20-20 20-20 20-20 20-20 20-20 20-20 20-20 20-20 20-20 20-20 20-20 20-20 20-20 20-20 20-20 20-20 20-20 20-20 20-20 20-20 20-20 20-20 20-20 20-20 20-20 20-20 20h20l40-40zM1040 1120l40-40 40-40 40-40 40-40 40-40 40-40 40-40 40-40 40-40 40-40 40-40 40-40 40-40 40-40 40-40 40-40 40-40 40-40 40-40 40-40 40-40 40-40 40-40 40-40 40-40 40-40 40-40 40-40h-20l-20 20-20 20-20 20-20 20-20 20-20 20-20 20-20 20-20 20-20 20-20 20-20 20-20 20-20 20-20 20-20 20-20 20-20 20-20 20-20 20-20 20-20 20-20 20-20 20-20 20-20 20-20 20-20 20-20 20-20 20-20 20-20 20-20 20-20 20-20 20-20 20-20 20-20 20-20 20-20 20-20 20-20 20-20 20-20 20-20 20-20 20-20 20-20 20-20 20-20 20-20 20-20 20-20 20-20 20-20 20-20 20-20 20-20 20-20 20-20 20h20l40-40zM1080 1120l40-40 40-40 40-40 40-40 40-40 40-40 40-40 40-40 40-40 40-40 40-40 40-40 40-40 40-40 40-40 40-40 40-40 40-40 40-40 40-40 40-40 40-40 40-40 40-40 40-40 40-40 40-40 40-40h-20l-20 20-20 20-20 20-20 20-20 20-20 20-20 20-20 20-20 20-20 20-20 20-20 20-20 20-20 20-20 20-20 20-20 20-20 20-20 20-20 20-20 20-20 20-20 20-20 20-20 20-20 20-20 20-20 20-20 20-20 20-20 20-20 20-20 20-20 20-20 20-20 20-20 20-20 20-20 20-20 20-20 20-20 20-20 20-20 20-20 20-20 20-20 20-20 20-20 20-20 20-20 20-20 20-20 20-20 20-20 20-20 20-20 20-20 20-20 20-20 20h20l40-40zM1120 1120l40-40 40-40 40-40 40-40 40-40 40-40 40-40 40-40 40-40 40-40 40-40 40-40 40-40 40-40 40-40 40-40 40-40 40-40 40-40 40-40 40-40 40-40 40-40 40-40 40-40 40-40 40-40 40-40h-20l-20 20-20 20-20 20-20 20-20 20-20 20-20 20-20 20-20 20-20 20-20 20-20 20-20 20-20 20-20 20-20 20-20 20-20 20-20 20-20 20-20 20-20 20-20 20-20 20-20 20-20 20-20 20-20 20-20 20-20 20-20 20-20 20-20 20-20 20-20 20-20 20-20 20-20 20-20 20-20 20-20 20-20 20-20 20-20 20-20 20-20 20-20 20-20 20-20 20-20 20-20 20-20 20-20 20-20 20-20 20-20 20-20 20-20 20-20 20-20 20h20l40-40zM1160 1120l40-40 40-40 40-40 40-40 40-40 40-40 40-40 40-40 40-40 40-40 40-40 40-40 40-40 40-40 40-40 40-40 40-40 40-40 40-40 40-40 40-40 40-40 40-40 40-40 40-40 40-40 40-40 40-40h-20l-20 20-20 20-20 20-20 20-20 20-20 20-20 20-20 20-20 20-20 20-20 20-20 20-20 20-20 20-20 20-20 20-20 20-20 20-20 20-20 20-20 20-20 20-20 20-20 20-20 20-20 20-20 20-20 20-20 20-20 20-20 20-20 20-20 20-20 20-20 20-20 20-20 20-20 20-20 20-20 20-20 20-20 20-20 20-20 20-20 20-20 20-20 20-20 20-20 20-20 20-20 20-20 20-20 20-20 20-20 20-20 20-20 20-20 20-20 20-20 20h20l40-40zM1200 1120l40-40 40-40 40-40 40-40 40-40 40-40 40-40 40-40 40-40 40-40 40-40 40-40 40-40 40-40 40-40 40-40 40-40 40-40 40-40 40-40 40-40 40-40 40-40 40-40 40-40 40-40 40-40 40-40h-20l-20 20-20 20-20 20-20 20-20 20-20 20-20 20-20 20-20 20-20 20-20 20-20 20-20 20-20 20-20 20-20 20-20 20-20 20-20 20-20 20-20 20-20 20-20 20-20 20-20 20-20 20-20 20-20 20-20 20-20 20-20 20-20 20-20 20-20 20-20 20-20 20-20 20-20 20-20 20-20 20-20 20-20 20-20 20-20 20-20 20-20 20-20 20-20 20-20 20-20 20-20 20-20 20-20 20-20 20-20 20-20 20-20 20-20 20-20 20-20 20h20l40-40zM80 0H60L40 20 20 40 0 60v20l40-40zM80 40l40-40h-20L80 20 60 40 40 60 20 80 0 100v20l40-40zM80 80l40-40 40-40h-20l-20 20-20 20-20 20-20 20-20 20-20 20-20 20v20l40-40zM80 120l40-40 40-40 40-40h-20l-20 20-20 20-20 20-20 20-20 20-20 20-20 20-20 20-20 20v20l40-40zM80 160l40-40 40-40 40-40 40-40h-20l-20 20-20 20-20 20-20 20-20 20-20 20-20 20-20 20-20 20-20 20-20 20v20l40-40zM80 200l40-40 40-40 40-40 40-40 40-40h-20l-20 20-20 20-20 20-20 20-20 20-20 20-20 20-20 20-20 20-20 20-20 20-20 20-20 20v20l40-40zM80 240l40-40 40-40 40-40 40-40 40-40 40-40h-20l-20 20-20 20-20 20-20 20-20 20-20 20-20 20-20 20-20 20-20 20-20 20-20 20-20 20-20 20-20 20v20l40-40zM80 280l40-40 40-40 40-40 40-40 40-40 40-40 40-40h-20l-20 20-20 20-20 20-20 20-20 20-20 20-20 20-20 20-20 20-20 20-20 20-20 20-20 20-20 20-20 20-20 20-20 20v20l40-40zM80 320l40-40 40-40 40-40 40-40 40-40 40-40 40-40 40-40h-20l-20 20-20 20-20 20-20 20-20 20-20 20-20 20-20 20-20 20-20 20-20 20-20 20-20 20-20 20-20 20-20 20-20 20-20 20-20 20v20l40-40zM80 360l40-40 40-40 40-40 40-40 40-40 40-40 40-40 40-40 40-40h-20l-20 20-20 20-20 20-20 20-20 20-20 20-20 20-20 20-20 20-20 20-20 20-20 20-20 20-20 20-20 20-20 20-20 20-20 20-20 20-20 20-20 20v20l40-40zM80 400l40-40 40-40 40-40 40-40 40-40 40-40 40-40 40-40 40-40 40-40h-20l-20 20-20 20-20 20-20 20-20 20-20 20-20 20-20 20-20 20-20 20-20 20-20 20-20 20-20 20-20 20-20 20-20 20-20 20-20 20-20 20-20 20-20 20-20 20v20l40-40zM80 440l40-40 40-40 40-40 40-40 40-40 40-40 40-40 40-40 40-40 40-40 40-40h-20l-20 20-20 20-20 20-20 20-20 20-20 20-20 20-20 20-20 20-20 20-20 20-20 20-20 20-20 20-20 20-20 20-20 20-20 20-20 20-20 20-20 20-20 20-20 20-20 20-20 20v20l40-40zM80 480l40-40 40-40 40-40 40-40 40-40 40-40 40-40 40-40 40-40 40-40 40-40 40-40h-20l-20 20-20 20-20 20-20 20-20 20-20 20-20 20-20 20-20 20-20 20-20 20-20 20-20 20-20 20-20 20-20 20-20 20-20 20-20 20-20 20-20 20-20 20-20 20-20 20-20 20-20 20-20 20v20l40-40zM80 520l40-40 40-40 40-40 40-40 40-40 40-40 40-40 40-40 40-40 40-40 40-40 40-40 40-40h-20l-20 20-20 20-20 20-20 20-20 20-20 20-20 20-20 20-20 20-20 20-20 20-20 20-20 20-20 20-20 20-20 20-20 20-20 20-20 20-20 20-20 20-20 20-20 20-20 20-20 20-20 20-20 20-20 20-20 20v20l40-40zM80 560l40-40 40-40 40-40 40-40 40-40 40-40 40-40 40-40 40-40 40-40 40-40 40-40 40-40 40-40h-20l-20 20-20 20-20 20-20 20-20 20-20 20-20 20-20 20-20 20-20 20-20 20-20 20-20 20-20 20-20 20-20 20-20 20-20 20-20 20-20 20-20 20-20 20-20 20-20 20-20 20-20 20-20 20-20 20-20 20-20 20-20 20v20l40-40zM80 600l40-40 40-40 40-40 40-40 40-40 40-40 40-40 40-40 40-40 40-40 40-40 40-40 40-40 40-40 40-40h-20l-20 20-20 20-20 20-20 20-20 20-20 20-20 20-20 20-20 20-20 20-20 20-20 20-20 20-20 20-20 20-20 20-20 20-20 20-20 20-20 20-20 20-20 20-20 20-20 20-20 20-20 20-20 20-20 20-20 20-20 20-20 20-20 20-20 20v20l40-40zM80 640l40-40 40-40 40-40 40-40 40-40 40-40 40-40 40-40 40-40 40-40 40-40 40-40 40-40 40-40 40-40 40-40h-20l-20 20-20 20-20 20-20 20-20 20-20 20-20 20-20 20-20 20-20 20-20 20-20 20-20 20-20 20-20 20-20 20-20 20-20 20-20 20-20 20-20 20-20 20-20 20-20 20-20 20-20 20-20 20-20 20-20 20-20 20-20 20-20 20-20 20-20 20-20 20v20l40-40zM80 680l40-40 40-40 40-40 40-40 40-40 40-40 40-40 40-40 40-40 40-40 40-40 40-40 40-40 40-40 40-40 40-40 40-40h-20l-20 20-20 20-20 20-20 20-20 20-20 20-20 20-20 20-20 20-20 20-20 20-20 20-20 20-20 20-20 20-20 20-20 20-20 20-20 20-20 20-20 20-20 20-20 20-20 20-20 20-20 20-20 20-20 20-20 20-20 20-20 20-20 20-20 20-20 20-20 20-20 20-20 20v20l40-40zM80 720l40-40 40-40 40-40 40-40 40-40 40-40 40-40 40-40 40-40 40-40 40-40 40-40 40-40 40-40 40-40 40-40 40-40 40-40h-20l-20 20-20 20-20 20-20 20-20 20-20 20-20 20-20 20-20 20-20 20-20 20-20 20-20 20-20 20-20 20-20 20-20 20-20 20-20 20-20 20-20 20-20 20-20 20-20 20-20 20-20 20-20 20-20 20-20 20-20 20-20 20-20 20-20 20-20 20-20 20-20 20-20 20-20 20-20 20v20l40-40zM80 760l40-40 40-40 40-40 40-40 40-40 40-40 40-40 40-40 40-40 40-40 40-40 40-40 40-40 40-40 40-40 40-40 40-40 40-40 40-40h-20l-20 20-20 20-20 20-20 20-20 20-20 20-20 20-20 20-20 20-20 20-20 20-20 20-20 20-20 20-20 20-20 20-20 20-20 20-20 20-20 20-20 20-20 20-20 20-20 20-20 20-20 20-20 20-20 20-20 20-20 20-20 20-20 20-20 20-20 20-20 20-20 20-20 20-20 20-20 20-20 20-20 20v20l40-40zM80 800l40-40 40-40 40-40 40-40 40-40 40-40 40-40 40-40 40-40 40-40 40-40 40-40 40-40 40-40 40-40 40-40 40-40 40-40 40-40 40-40h-20l-20 20-20 20-20 20-20 20-20 20-20 20-20 20-20 20-20 20-20 20-20 20-20 20-20 20-20 20-20 20-20 20-20 20-20 20-20 20-20 20-20 20-20 20-20 20-20 20-20 20-20 20-20 20-20 20-20 20-20 20-20 20-20 20-20 20-20 20-20 20-20 20-20 20-20 20-20 20-20 20-20 20-20 20-20 20v20l40-40zM80 840l40-40 40-40 40-40 40-40 40-40 40-40 40-40 40-40 40-40 40-40 40-40 40-40 40-40 40-40 40-40 40-40 40-40 40-40 40-40 40-40 40-40h-20l-20 20-20 20-20 20-20 20-20 20-20 20-20 20-20 20-20 20-20 20-20 20-20 20-20 20-20 20-20 20-20 20-20 20-20 20-20 20-20 20-20 20-20 20-20 20-20 20-20 20-20 20-20 20-20 20-20 20-20 20-20 20-20 20-20 20-20 20-20 20-20 20-20 20-20 20-20 20-20 20-20 20-20 20-20 20-20 20-20 20v20l40-40zM80 880l40-40 40-40 40-40 40-40 40-40 40-40 40-40 40-40 40-40 40-40 40-40 40-40 40-40 40-40 40-40 40-40 40-40 40-40 40-40 40-40 40-40 40-40h-20l-20 20-20 20-20 20-20 20-20 20-20 20-20 20-20 20-20 20-20 20-20 20-20 20-20 20-20 20-20 20-20 20-20 20-20 20-20 20-20 20-20 20-20 20-20 20-20 20-20 20-20 20-20 20-20 20-20 20-20 20-20 20-20 20-20 20-20 20-20 20-20 20-20 20-20 20-20 20-20 20-20 20-20 20-20 20-20 20-20 20-20 20-20 20v20l40-40zM80 920l40-40 40-40 40-40 40-40 40-40 40-40 40-40 40-40 40-40 40-40 40-40 40-40 40-40 40-40 40-40 40-40 40-40 40-40 40-40 40-40 40-40 40-40 40-40h-20l-20 20-20 20-20 20-20 20-20 20-20 20-20 20-20 20-20 20-20 20-20 20-20 20-20 20-20 20-20 20-20 20-20 20-20 20-20 20-20 20-20 20-20 20-20 20-20 20-20 20-20 20-20 20-20 20-20 20-20 20-20 20-20 20-20 20-20 20-20 20-20 20-20 20-20 20-20 20-20 20-20 20-20 20-20 20-20 20-20 20-20 20-20 20-20 20-20 20v20l40-40zM80 960l40-40 40-40 40-40 40-40 40-40 40-40 40-40 40-40 40-40 40-40 40-40 40-40 40-40 40-40 40-40 40-40 40-40 40-40 40-40 40-40 40-40 40-40 40-40 40-40h-20l-20 20-20 20-20 20-20 20-20 20-20 20-20 20-20 20-20 20-20 20-20 20-20 20-20 20-20 20-20 20-20 20-20 20-20 20-20 20-20 20-20 20-20 20-20 20-20 20-20 20-20 20-20 20-20 20-20 20-20 20-20 20-20 20-20 20-20 20-20 20-20 20-20 20-20 20-20 20-20 20-20 20-20 20-20 20-20 20-20 20-20 20-20 20-20 20-20 20-20 20-20 20v20l40-40zM80 1000l40-40 40-40 40-40 40-40 40-40 40-40 40-40 40-40 40-40 40-40 40-40 40-40 40-40 40-40 40-40 40-40 40-40 40-40 40-40 40-40 40-40 40-40 40-40 40-40 40-40h-20l-20 20-20 20-20 20-20 20-20 20-20 20-20 20-20 20-20 20-20 20-20 20-20 20-20 20-20 20-20 20-20 20-20 20-20 20-20 20-20 20-20 20-20 20-20 20-20 20-20 20-20 20-20 20-20 20-20 20-20 20-20 20-20 20-20 20-20 20-20 20-20 20-20 20-20 20-20 20-20 20-20 20-20 20-20 20-20 20-20 20-20 20-20 20-20 20-20 20-20 20-20 20-20 20-20 20v20l40-40zM80 1040l40-40 40-40 40-40 40-40 40-40 40-40 40-40 40-40 40-40 40-40 40-40 40-40 40-40 40-40 40-40 40-40 40-40 40-40 40-40 40-40 40-40 40-40 40-40 40-40 40-40 40-40h-20l-20 20-20 20-20 20-20 20-20 20-20 20-20 20-20 20-20 20-20 20-20 20-20 20-20 20-20 20-20 20-20 20-20 20-20 20-20 20-20 20-20 20-20 20-20 20-20 20-20 20-20 20-20 20-20 20-20 20-20 20-20 20-20 20-20 20-20 20-20 20-20 20-20 20-20 20-20 20-20 20-20 20-20 20-20 20-20 20-20 20-20 20-20 20-20 20-20 20-20 20-20 20-20 20-20 20-20 20-20 20v20l40-40zM80 1080l40-40 40-40 40-40 40-40 40-40 40-40 40-40 40-40 40-40 40-40 40-40 40-40 40-40 40-40 40-40 40-40 40-40 40-40 40-40 40-40 40-40 40-40 40-40 40-40 40-40 40-40 40-40h-20l-20 20-20 20-20 20-20 20-20 20-20 20-20 20-20 20-20 20-20 20-20 20-20 20-20 20-20 20-20 20-20 20-20 20-20 20-20 20-20 20-20 20-20 20-20 20-20 20-20 20-20 20-20 20-20 20-20 20-20 20-20 20-20 20-20 20-20 20-20 20-20 20-20 20-20 20-20 20-20 20-20 20-20 20-20 20-20 20-20 20-20 20-20 20-20 20-20 20-20 20-20 20-20 20-20 20-20 20-20 20-20 20-20 20v20l40-40zM80 1120l40-40 40-40 40-40 40-40 40-40 40-40 40-40 40-40 40-40 40-40 40-40 40-40 40-40 40-40 40-40 40-40 40-40 40-40 40-40 40-40 40-40 40-40 40-40 40-40 40-40 40-40 40-40 40-40h-20l-20 20-20 20-20 20-20 20-20 20-20 20-20 20-20 20-20 20-20 20-20 20-20 20-20 20-20 20-20 20-20 20-20 20-20 20-20 20-20 20-20 20-20 20-20 20-20 20-20 20-20 20-20 20-20 20-20 20-20 20-20 20-20 20-20 20-20 20-20 20-20 20-20 20-20 20-20 20-20 20-20 20-20 20-20 20-20 20-20 20-20 20-20 20-20 20-20 20-20 20-20 20-20 20-20 20-20 20-20 20-20 20-20 20-20 20-20 20v20l40-40zM20 0L0 20v20L40 0z"/><g id="Layer_3_1_"><path class="st2" d="M1217.4 576h20v8.9H1223V624h-5.6M1190 607.7l-8.1 16.3h-13.3l13.7-24.2L1169 576h13.1l7.9 16"/><path opacity=".5" fill="#fff" d="M1211.1 576h-13.3l-.5 1.1-7.3 14.9v15.7l8.1 16.3h13.3l-13.8-24.2 8.4-14.9h5.5V624h5.9v-48z"/></g></svg>
