<?xml version="1.0" encoding="utf-8"?>
<!-- Generator: Adobe Illustrator 26.5.0, SVG Export Plug-In . SVG Version: 6.00 Build 0)  -->
<svg version="1.1" id="Layer_1" xmlns="http://www.w3.org/2000/svg" xmlns:xlink="http://www.w3.org/1999/xlink" x="0px" y="0px"
	 viewBox="0 0 1200 1200" style="enable-background:new 0 0 1200 1200;" xml:space="preserve">
<style type="text/css">
	.st0{fill:#6B7280;}
	.st1{fill:#707782;}
	.st2{fill:#FFFFFF;}
	.st3{opacity:0.5;fill:#FFFFFF;enable-background:new    ;}
</style>
<path id="Layer_4" class="st0" d="M0,0h1200v1200H0V0z"/>
<g id="Layer_5">
	<path class="st1" d="M1160,60l-20,20l-20,20l-20,20l-20,20l-20,20l-20,20l-20,20l-20,20l-20,20l-20,20l-20,20l-20,20l-20,20l-20,20
		l-20,20l-20,20l-20,20l-20,20l-20,20l-20,20l-20,20l-20,20l-20,20l-20,20l-20,20l-20,20l-20,20l-20,20l-20,20l-20,20l-20,20l-20,20
		l-20,20l-20,20l-20,20l-20,20l-20,20l-20,20l-20,20l-20,20l-20,20l-20,20l-20,20l-20,20l-20,20l-20,20l-20,20l-20,20l-20,20l-20,20
		l-20,20l-20,20l-20,20l-20,20l-20,20l-20,20l-20,20h20l40-40l40-40l40-40l40-40l40-40l40-40l40-40l40-40l40-40l40-40l40-40l40-40
		l40-40l40-40l40-40l40-40l40-40l40-40l40-40l40-40l40-40l40-40l40-40l40-40l40-40l40-40l40-40l40-40l40-40V20l-20,20L1160,60z
		 M1160,100l-20,20l-20,20l-20,20l-20,20l-20,20l-20,20l-20,20l-20,20l-20,20l-20,20l-20,20l-20,20l-20,20l-20,20l-20,20l-20,20
		l-20,20l-20,20l-20,20l-20,20l-20,20l-20,20l-20,20l-20,20l-20,20l-20,20l-20,20l-20,20l-20,20l-20,20l-20,20l-20,20l-20,20l-20,20
		l-20,20l-20,20l-20,20l-20,20l-20,20l-20,20l-20,20l-20,20l-20,20l-20,20l-20,20l-20,20l-20,20l-20,20l-20,20l-20,20l-20,20l-20,20
		l-20,20l-20,20l-20,20h20l40-40l40-40l40-40l40-40l40-40l40-40l40-40l40-40l40-40l40-40l40-40l40-40l40-40l40-40l40-40l40-40l40-40
		l40-40l40-40l40-40l40-40l40-40l40-40l40-40l40-40l40-40l40-40l40-40V60l-20,20L1160,100z M1160,140l-20,20l-20,20l-20,20l-20,20
		l-20,20l-20,20l-20,20l-20,20l-20,20l-20,20l-20,20l-20,20l-20,20l-20,20l-20,20l-20,20l-20,20l-20,20l-20,20l-20,20l-20,20l-20,20
		l-20,20l-20,20l-20,20l-20,20l-20,20l-20,20l-20,20l-20,20l-20,20l-20,20l-20,20l-20,20l-20,20l-20,20l-20,20l-20,20l-20,20l-20,20
		l-20,20l-20,20l-20,20l-20,20l-20,20l-20,20l-20,20l-20,20l-20,20l-20,20l-20,20l-20,20l-20,20h20l40-40l40-40l40-40l40-40l40-40
		l40-40l40-40l40-40l40-40l40-40l40-40l40-40l40-40l40-40l40-40l40-40l40-40l40-40l40-40l40-40l40-40l40-40l40-40l40-40l40-40l40-40
		l40-40v-20l-20,20L1160,140z M1160,180l-20,20l-20,20l-20,20l-20,20l-20,20l-20,20l-20,20l-20,20l-20,20l-20,20l-20,20l-20,20
		l-20,20l-20,20l-20,20l-20,20l-20,20l-20,20l-20,20l-20,20l-20,20l-20,20l-20,20l-20,20l-20,20l-20,20l-20,20l-20,20l-20,20l-20,20
		l-20,20l-20,20l-20,20l-20,20l-20,20l-20,20l-20,20l-20,20l-20,20l-20,20l-20,20l-20,20l-20,20l-20,20l-20,20l-20,20l-20,20l-20,20
		l-20,20l-20,20l-20,20h20l40-40l40-40l40-40l40-40l40-40l40-40l40-40l40-40l40-40l40-40l40-40l40-40l40-40l40-40l40-40l40-40l40-40
		l40-40l40-40l40-40l40-40l40-40l40-40l40-40l40-40l40-40v-20l-20,20L1160,180z M1160,220l-20,20l-20,20l-20,20l-20,20l-20,20
		l-20,20l-20,20l-20,20l-20,20l-20,20l-20,20l-20,20l-20,20l-20,20l-20,20l-20,20l-20,20l-20,20l-20,20l-20,20l-20,20l-20,20l-20,20
		l-20,20l-20,20l-20,20l-20,20l-20,20l-20,20l-20,20l-20,20l-20,20l-20,20l-20,20l-20,20l-20,20l-20,20l-20,20l-20,20l-20,20l-20,20
		l-20,20l-20,20l-20,20l-20,20l-20,20l-20,20l-20,20l-20,20h20l40-40l40-40l40-40l40-40l40-40l40-40l40-40l40-40l40-40l40-40l40-40
		l40-40l40-40l40-40l40-40l40-40l40-40l40-40l40-40l40-40l40-40l40-40l40-40l40-40l40-40v-20l-20,20L1160,220z M1160,260l-20,20
		l-20,20l-20,20l-20,20l-20,20l-20,20l-20,20l-20,20l-20,20l-20,20l-20,20l-20,20l-20,20l-20,20l-20,20l-20,20l-20,20l-20,20l-20,20
		l-20,20l-20,20l-20,20l-20,20l-20,20l-20,20l-20,20l-20,20l-20,20l-20,20l-20,20l-20,20l-20,20l-20,20l-20,20l-20,20l-20,20l-20,20
		l-20,20l-20,20l-20,20l-20,20l-20,20l-20,20l-20,20l-20,20l-20,20l-20,20h20l40-40l40-40l40-40l40-40l40-40l40-40l40-40l40-40
		l40-40l40-40l40-40l40-40l40-40l40-40l40-40l40-40l40-40l40-40l40-40l40-40l40-40l40-40l40-40l40-40v-20l-20,20L1160,260z
		 M1160,300l-20,20l-20,20l-20,20l-20,20l-20,20l-20,20l-20,20l-20,20l-20,20l-20,20l-20,20l-20,20l-20,20l-20,20l-20,20l-20,20
		l-20,20l-20,20l-20,20l-20,20l-20,20l-20,20l-20,20l-20,20l-20,20l-20,20l-20,20l-20,20l-20,20l-20,20l-20,20l-20,20l-20,20l-20,20
		l-20,20l-20,20l-20,20l-20,20l-20,20l-20,20l-20,20l-20,20l-20,20l-20,20l-20,20h20l40-40l40-40l40-40l40-40l40-40l40-40l40-40
		l40-40l40-40l40-40l40-40l40-40l40-40l40-40l40-40l40-40l40-40l40-40l40-40l40-40l40-40l40-40l40-40v-20l-20,20L1160,300z
		 M1160,340l-20,20l-20,20l-20,20l-20,20l-20,20l-20,20l-20,20l-20,20l-20,20l-20,20l-20,20l-20,20l-20,20l-20,20l-20,20l-20,20
		l-20,20l-20,20l-20,20l-20,20l-20,20l-20,20l-20,20l-20,20l-20,20l-20,20l-20,20l-20,20l-20,20l-20,20l-20,20l-20,20l-20,20l-20,20
		l-20,20l-20,20l-20,20l-20,20l-20,20l-20,20l-20,20l-20,20l-20,20h20l40-40l40-40l40-40l40-40l40-40l40-40l40-40l40-40l40-40l40-40
		l40-40l40-40l40-40l40-40l40-40l40-40l40-40l40-40l40-40l40-40l40-40l40-40v-20l-20,20L1160,340z M1160,380l-20,20l-20,20l-20,20
		l-20,20l-20,20l-20,20l-20,20l-20,20l-20,20l-20,20l-20,20l-20,20l-20,20l-20,20l-20,20l-20,20l-20,20l-20,20l-20,20l-20,20l-20,20
		l-20,20l-20,20l-20,20l-20,20l-20,20l-20,20l-20,20l-20,20l-20,20l-20,20l-20,20l-20,20l-20,20l-20,20l-20,20l-20,20l-20,20l-20,20
		l-20,20l-20,20h20l40-40l40-40l40-40l40-40l40-40l40-40l40-40l40-40l40-40l40-40l40-40l40-40l40-40l40-40l40-40l40-40l40-40l40-40
		l40-40l40-40l40-40v-20l-20,20L1160,380z M1160,420l-20,20l-20,20l-20,20l-20,20l-20,20l-20,20l-20,20l-20,20l-20,20l-20,20l-20,20
		l-20,20l-20,20l-20,20l-20,20l-20,20l-20,20l-20,20l-20,20l-20,20l-20,20l-20,20l-20,20l-20,20l-20,20l-20,20l-20,20l-20,20l-20,20
		l-20,20l-20,20l-20,20l-20,20l-20,20l-20,20l-20,20l-20,20l-20,20l-20,20h20l40-40l40-40l40-40l40-40l40-40l40-40l40-40l40-40
		l40-40l40-40l40-40l40-40l40-40l40-40l40-40l40-40l40-40l40-40l40-40l40-40v-20l-20,20L1160,420z M1160,460l-20,20l-20,20l-20,20
		l-20,20l-20,20l-20,20l-20,20l-20,20l-20,20l-20,20l-20,20l-20,20l-20,20l-20,20l-20,20l-20,20l-20,20l-20,20l-20,20l-20,20l-20,20
		l-20,20l-20,20l-20,20l-20,20l-20,20l-20,20l-20,20l-20,20l-20,20l-20,20l-20,20l-20,20l-20,20l-20,20l-20,20l-20,20h20l40-40
		l40-40l40-40l40-40l40-40l40-40l40-40l40-40l40-40l40-40l40-40l40-40l40-40l40-40l40-40l40-40l40-40l40-40l40-40v-20l-20,20
		L1160,460z M1160,500l-20,20l-20,20l-20,20l-20,20l-20,20l-20,20l-20,20l-20,20l-20,20l-20,20l-20,20l-20,20l-20,20l-20,20l-20,20
		l-20,20l-20,20l-20,20l-20,20l-20,20l-20,20l-20,20l-20,20l-20,20l-20,20l-20,20l-20,20l-20,20l-20,20l-20,20l-20,20l-20,20l-20,20
		l-20,20l-20,20h20l40-40l40-40l40-40l40-40l40-40l40-40l40-40l40-40l40-40l40-40l40-40l40-40l40-40l40-40l40-40l40-40l40-40l40-40
		v-20l-20,20L1160,500z M1160,540l-20,20l-20,20l-20,20l-20,20l-20,20l-20,20l-20,20l-20,20l-20,20l-20,20l-20,20l-20,20l-20,20
		l-20,20l-20,20l-20,20l-20,20l-20,20l-20,20l-20,20l-20,20l-20,20l-20,20l-20,20l-20,20l-20,20l-20,20l-20,20l-20,20l-20,20l-20,20
		l-20,20l-20,20h20l40-40l40-40l40-40l40-40l40-40l40-40l40-40l40-40l40-40l40-40l40-40l40-40l40-40l40-40l40-40l40-40l40-40v-20
		l-20,20L1160,540z M1160,580l-20,20l-20,20l-20,20l-20,20l-20,20l-20,20l-20,20l-20,20l-20,20l-20,20l-20,20l-20,20l-20,20l-20,20
		l-20,20l-20,20l-20,20l-20,20l-20,20l-20,20l-20,20l-20,20l-20,20l-20,20l-20,20l-20,20l-20,20l-20,20l-20,20l-20,20l-20,20h20
		l40-40l40-40l40-40l40-40l40-40l40-40l40-40l40-40l40-40l40-40l40-40l40-40l40-40l40-40l40-40l40-40v-20l-20,20L1160,580z
		 M1160,620l-20,20l-20,20l-20,20l-20,20l-20,20l-20,20l-20,20l-20,20l-20,20l-20,20l-20,20l-20,20l-20,20l-20,20l-20,20l-20,20
		l-20,20l-20,20l-20,20l-20,20l-20,20l-20,20l-20,20l-20,20l-20,20l-20,20l-20,20l-20,20l-20,20h20l40-40l40-40l40-40l40-40l40-40
		l40-40l40-40l40-40l40-40l40-40l40-40l40-40l40-40l40-40l40-40v-20l-20,20L1160,620z M1160,660l-20,20l-20,20l-20,20l-20,20l-20,20
		l-20,20l-20,20l-20,20l-20,20l-20,20l-20,20l-20,20l-20,20l-20,20l-20,20l-20,20l-20,20l-20,20l-20,20l-20,20l-20,20l-20,20l-20,20
		l-20,20l-20,20l-20,20l-20,20h20l40-40l40-40l40-40l40-40l40-40l40-40l40-40l40-40l40-40l40-40l40-40l40-40l40-40l40-40v-20l-20,20
		L1160,660z M1160,700l-20,20l-20,20l-20,20l-20,20l-20,20l-20,20l-20,20l-20,20l-20,20l-20,20l-20,20l-20,20l-20,20l-20,20l-20,20
		l-20,20l-20,20l-20,20l-20,20l-20,20l-20,20l-20,20l-20,20l-20,20l-20,20h20l40-40l40-40l40-40l40-40l40-40l40-40l40-40l40-40
		l40-40l40-40l40-40l40-40l40-40v-20l-20,20L1160,700z M1160,740l-20,20l-20,20l-20,20l-20,20l-20,20l-20,20l-20,20l-20,20l-20,20
		l-20,20l-20,20l-20,20l-20,20l-20,20l-20,20l-20,20l-20,20l-20,20l-20,20l-20,20l-20,20l-20,20l-20,20h20l40-40l40-40l40-40l40-40
		l40-40l40-40l40-40l40-40l40-40l40-40l40-40l40-40v-20l-20,20L1160,740z M1160,780l-20,20l-20,20l-20,20l-20,20l-20,20l-20,20
		l-20,20l-20,20l-20,20l-20,20l-20,20l-20,20l-20,20l-20,20l-20,20l-20,20l-20,20l-20,20l-20,20l-20,20l-20,20h20l40-40l40-40l40-40
		l40-40l40-40l40-40l40-40l40-40l40-40l40-40l40-40v-20l-20,20L1160,780z M1160,820l-20,20l-20,20l-20,20l-20,20l-20,20l-20,20
		l-20,20l-20,20l-20,20l-20,20l-20,20l-20,20l-20,20l-20,20l-20,20l-20,20l-20,20l-20,20l-20,20h20l40-40l40-40l40-40l40-40l40-40
		l40-40l40-40l40-40l40-40l40-40v-20l-20,20L1160,820z M1160,860l-20,20l-20,20l-20,20l-20,20l-20,20l-20,20l-20,20l-20,20l-20,20
		l-20,20l-20,20l-20,20l-20,20l-20,20l-20,20l-20,20l-20,20h20l40-40l40-40l40-40l40-40l40-40l40-40l40-40l40-40l40-40v-20l-20,20
		L1160,860z M1160,900l-20,20l-20,20l-20,20l-20,20l-20,20l-20,20l-20,20l-20,20l-20,20l-20,20l-20,20l-20,20l-20,20l-20,20l-20,20
		h20l40-40l40-40l40-40l40-40l40-40l40-40l40-40l40-40v-20l-20,20L1160,900z M1160,940l-20,20l-20,20l-20,20l-20,20l-20,20l-20,20
		l-20,20l-20,20l-20,20l-20,20l-20,20l-20,20l-20,20h20l40-40l40-40l40-40l40-40l40-40l40-40l40-40v-20l-20,20L1160,940z M1160,980
		l-20,20l-20,20l-20,20l-20,20l-20,20l-20,20l-20,20l-20,20l-20,20l-20,20l-20,20h20l40-40l40-40l40-40l40-40l40-40l40-40v-20
		l-20,20L1160,980z M1160,1020l-20,20l-20,20l-20,20l-20,20l-20,20l-20,20l-20,20l-20,20l-20,20h20l40-40l40-40l40-40l40-40l40-40
		v-20l-20,20L1160,1020z M1160,1060l-20,20l-20,20l-20,20l-20,20l-20,20l-20,20l-20,20h20l40-40l40-40l40-40l40-40v-20l-20,20
		L1160,1060z M1160,1100l-20,20l-20,20l-20,20l-20,20l-20,20h20l40-40l40-40l40-40v-20l-20,20L1160,1100z M1160,1140l-20,20l-20,20
		l-20,20h20l40-40l40-40v-20l-20,20L1160,1140z M1160,1180l-20,20h20l40-40v-20l-20,20L1160,1180z M1200,1200v-20l-20,20H1200z
		 M80,0H60L40,20L20,40L0,60v20l40-40L80,0z M80,40l40-40h-20L80,20L60,40L40,60L20,80L0,100v20l40-40L80,40z M80,80l40-40l40-40
		h-20l-20,20l-20,20L80,60L60,80l-20,20l-20,20L0,140v20l40-40L80,80z M80,120l40-40l40-40l40-40h-20l-20,20l-20,20l-20,20l-20,20
		l-20,20l-20,20l-20,20l-20,20L0,180v20l40-40L80,120z M80,160l40-40l40-40l40-40l40-40h-20l-20,20l-20,20l-20,20l-20,20l-20,20
		l-20,20l-20,20l-20,20l-20,20l-20,20L0,220v20l40-40L80,160z M80,200l40-40l40-40l40-40l40-40l40-40h-20l-20,20l-20,20l-20,20
		l-20,20l-20,20l-20,20l-20,20l-20,20l-20,20l-20,20l-20,20l-20,20L0,260v20l40-40L80,200z M80,240l40-40l40-40l40-40l40-40l40-40
		l40-40h-20l-20,20l-20,20l-20,20l-20,20l-20,20l-20,20l-20,20l-20,20l-20,20l-20,20l-20,20l-20,20l-20,20l-20,20L0,300v20l40-40
		L80,240z M80,280l40-40l40-40l40-40l40-40l40-40l40-40l40-40h-20l-20,20l-20,20l-20,20l-20,20l-20,20l-20,20l-20,20l-20,20l-20,20
		l-20,20l-20,20l-20,20l-20,20l-20,20l-20,20l-20,20L0,340v20l40-40L80,280z M80,320l40-40l40-40l40-40l40-40l40-40l40-40l40-40
		l40-40h-20l-20,20l-20,20l-20,20l-20,20l-20,20l-20,20l-20,20l-20,20l-20,20l-20,20l-20,20l-20,20l-20,20l-20,20l-20,20l-20,20
		l-20,20l-20,20L0,380v20l40-40L80,320z M80,360l40-40l40-40l40-40l40-40l40-40l40-40l40-40l40-40l40-40h-20l-20,20l-20,20l-20,20
		l-20,20l-20,20l-20,20l-20,20l-20,20l-20,20l-20,20l-20,20l-20,20l-20,20l-20,20l-20,20l-20,20l-20,20l-20,20l-20,20l-20,20L0,420
		v20l40-40L80,360z M80,400l40-40l40-40l40-40l40-40l40-40l40-40l40-40l40-40l40-40l40-40h-20l-20,20l-20,20l-20,20l-20,20l-20,20
		l-20,20l-20,20l-20,20l-20,20l-20,20l-20,20l-20,20l-20,20l-20,20l-20,20l-20,20l-20,20l-20,20l-20,20l-20,20l-20,20l-20,20L0,460
		v20l40-40L80,400z M80,440l40-40l40-40l40-40l40-40l40-40l40-40l40-40l40-40l40-40l40-40l40-40h-20l-20,20l-20,20l-20,20l-20,20
		l-20,20l-20,20l-20,20l-20,20l-20,20l-20,20l-20,20l-20,20l-20,20l-20,20l-20,20l-20,20l-20,20l-20,20l-20,20l-20,20l-20,20l-20,20
		l-20,20l-20,20L0,500v20l40-40L80,440z M80,480l40-40l40-40l40-40l40-40l40-40l40-40l40-40l40-40l40-40l40-40l40-40l40-40h-20
		l-20,20l-20,20l-20,20l-20,20l-20,20l-20,20l-20,20l-20,20l-20,20l-20,20l-20,20l-20,20l-20,20l-20,20l-20,20l-20,20l-20,20l-20,20
		l-20,20l-20,20l-20,20l-20,20l-20,20l-20,20l-20,20l-20,20L0,540v20l40-40L80,480z M80,520l40-40l40-40l40-40l40-40l40-40l40-40
		l40-40l40-40l40-40l40-40l40-40l40-40l40-40h-20l-20,20l-20,20l-20,20l-20,20l-20,20l-20,20l-20,20l-20,20l-20,20l-20,20l-20,20
		l-20,20l-20,20l-20,20l-20,20l-20,20l-20,20l-20,20l-20,20l-20,20l-20,20l-20,20l-20,20l-20,20l-20,20l-20,20l-20,20l-20,20L0,580
		v20l40-40L80,520z M80,560l40-40l40-40l40-40l40-40l40-40l40-40l40-40l40-40l40-40l40-40l40-40l40-40l40-40l40-40h-20l-20,20
		l-20,20l-20,20l-20,20l-20,20l-20,20l-20,20l-20,20l-20,20l-20,20l-20,20l-20,20l-20,20l-20,20l-20,20l-20,20l-20,20l-20,20l-20,20
		l-20,20l-20,20l-20,20l-20,20l-20,20l-20,20l-20,20l-20,20l-20,20l-20,20l-20,20L0,620v20l40-40L80,560z M80,600l40-40l40-40l40-40
		l40-40l40-40l40-40l40-40l40-40l40-40l40-40l40-40l40-40l40-40l40-40l40-40h-20l-20,20l-20,20l-20,20l-20,20l-20,20l-20,20l-20,20
		l-20,20l-20,20l-20,20l-20,20l-20,20l-20,20l-20,20l-20,20l-20,20l-20,20l-20,20l-20,20l-20,20l-20,20l-20,20l-20,20l-20,20l-20,20
		l-20,20l-20,20l-20,20l-20,20l-20,20l-20,20l-20,20L0,660v20l40-40L80,600z M80,640l40-40l40-40l40-40l40-40l40-40l40-40l40-40
		l40-40l40-40l40-40l40-40l40-40l40-40l40-40l40-40l40-40h-20l-20,20l-20,20l-20,20l-20,20l-20,20l-20,20l-20,20l-20,20l-20,20
		l-20,20l-20,20l-20,20l-20,20l-20,20l-20,20l-20,20l-20,20l-20,20l-20,20l-20,20l-20,20l-20,20l-20,20l-20,20l-20,20l-20,20l-20,20
		l-20,20l-20,20l-20,20l-20,20l-20,20l-20,20l-20,20L0,700v20l40-40L80,640z M80,680l40-40l40-40l40-40l40-40l40-40l40-40l40-40
		l40-40l40-40l40-40l40-40l40-40l40-40l40-40l40-40l40-40l40-40h-20l-20,20l-20,20l-20,20l-20,20l-20,20l-20,20l-20,20l-20,20
		l-20,20l-20,20l-20,20l-20,20l-20,20l-20,20l-20,20l-20,20l-20,20l-20,20l-20,20l-20,20l-20,20l-20,20l-20,20l-20,20l-20,20l-20,20
		l-20,20l-20,20l-20,20l-20,20l-20,20l-20,20l-20,20l-20,20l-20,20l-20,20L0,740v20l40-40L80,680z M80,720l40-40l40-40l40-40l40-40
		l40-40l40-40l40-40l40-40l40-40l40-40l40-40l40-40l40-40l40-40l40-40l40-40l40-40l40-40h-20l-20,20l-20,20l-20,20l-20,20l-20,20
		l-20,20l-20,20l-20,20l-20,20l-20,20l-20,20l-20,20l-20,20l-20,20l-20,20l-20,20l-20,20l-20,20l-20,20l-20,20l-20,20l-20,20l-20,20
		l-20,20l-20,20l-20,20l-20,20l-20,20l-20,20l-20,20l-20,20l-20,20l-20,20l-20,20l-20,20l-20,20l-20,20l-20,20L0,780v20l40-40
		L80,720z M80,760l40-40l40-40l40-40l40-40l40-40l40-40l40-40l40-40l40-40l40-40l40-40l40-40l40-40l40-40l40-40l40-40l40-40l40-40
		l40-40h-20l-20,20l-20,20l-20,20l-20,20l-20,20l-20,20l-20,20l-20,20l-20,20l-20,20l-20,20l-20,20l-20,20l-20,20l-20,20l-20,20
		l-20,20l-20,20l-20,20l-20,20l-20,20l-20,20l-20,20l-20,20l-20,20l-20,20l-20,20l-20,20l-20,20l-20,20l-20,20l-20,20l-20,20l-20,20
		l-20,20l-20,20l-20,20l-20,20l-20,20l-20,20L0,820v20l40-40L80,760z M80,800l40-40l40-40l40-40l40-40l40-40l40-40l40-40l40-40
		l40-40l40-40l40-40l40-40l40-40l40-40l40-40l40-40l40-40l40-40l40-40l40-40h-20l-20,20l-20,20l-20,20l-20,20l-20,20l-20,20l-20,20
		l-20,20l-20,20l-20,20l-20,20l-20,20l-20,20l-20,20l-20,20l-20,20l-20,20l-20,20l-20,20l-20,20l-20,20l-20,20l-20,20l-20,20l-20,20
		l-20,20l-20,20l-20,20l-20,20l-20,20l-20,20l-20,20l-20,20l-20,20l-20,20l-20,20l-20,20l-20,20l-20,20l-20,20l-20,20l-20,20L0,860
		v20l40-40L80,800z M80,840l40-40l40-40l40-40l40-40l40-40l40-40l40-40l40-40l40-40l40-40l40-40l40-40l40-40l40-40l40-40l40-40
		l40-40l40-40l40-40l40-40l40-40h-20l-20,20l-20,20l-20,20l-20,20l-20,20l-20,20l-20,20l-20,20l-20,20l-20,20l-20,20l-20,20l-20,20
		l-20,20l-20,20l-20,20l-20,20l-20,20l-20,20l-20,20l-20,20l-20,20l-20,20l-20,20l-20,20l-20,20l-20,20l-20,20l-20,20l-20,20l-20,20
		l-20,20l-20,20l-20,20l-20,20l-20,20l-20,20l-20,20l-20,20l-20,20l-20,20l-20,20l-20,20l-20,20L0,900v20l40-40L80,840z M80,880
		l40-40l40-40l40-40l40-40l40-40l40-40l40-40l40-40l40-40l40-40l40-40l40-40l40-40l40-40l40-40l40-40l40-40l40-40l40-40l40-40l40-40
		l40-40h-20l-20,20l-20,20l-20,20l-20,20l-20,20l-20,20l-20,20l-20,20l-20,20l-20,20l-20,20l-20,20l-20,20l-20,20l-20,20l-20,20
		l-20,20l-20,20l-20,20l-20,20l-20,20l-20,20l-20,20l-20,20l-20,20l-20,20l-20,20l-20,20l-20,20l-20,20l-20,20l-20,20l-20,20l-20,20
		l-20,20l-20,20l-20,20l-20,20l-20,20l-20,20l-20,20l-20,20l-20,20l-20,20l-20,20l-20,20L0,940v20l40-40L80,880z M80,920l40-40
		l40-40l40-40l40-40l40-40l40-40l40-40l40-40l40-40l40-40l40-40l40-40l40-40l40-40l40-40l40-40l40-40l40-40l40-40l40-40l40-40l40-40
		l40-40h-20l-20,20l-20,20l-20,20l-20,20l-20,20l-20,20l-20,20l-20,20l-20,20l-20,20l-20,20l-20,20l-20,20l-20,20l-20,20l-20,20
		l-20,20l-20,20l-20,20l-20,20l-20,20l-20,20l-20,20l-20,20l-20,20l-20,20l-20,20l-20,20l-20,20l-20,20l-20,20l-20,20l-20,20l-20,20
		l-20,20l-20,20l-20,20l-20,20l-20,20l-20,20l-20,20l-20,20l-20,20l-20,20l-20,20l-20,20l-20,20l-20,20L0,980v20l40-40L80,920z
		 M80,960l40-40l40-40l40-40l40-40l40-40l40-40l40-40l40-40l40-40l40-40l40-40l40-40l40-40l40-40l40-40l40-40l40-40l40-40l40-40
		l40-40l40-40l40-40l40-40l40-40h-20l-20,20l-20,20l-20,20l-20,20l-20,20l-20,20l-20,20l-20,20l-20,20l-20,20l-20,20l-20,20l-20,20
		l-20,20l-20,20l-20,20l-20,20l-20,20l-20,20l-20,20l-20,20l-20,20l-20,20l-20,20l-20,20l-20,20l-20,20l-20,20l-20,20l-20,20l-20,20
		l-20,20l-20,20l-20,20l-20,20l-20,20l-20,20l-20,20l-20,20l-20,20l-20,20l-20,20l-20,20l-20,20l-20,20l-20,20l-20,20l-20,20l-20,20
		l-20,20l-20,20v20l40-40L80,960z M80,1000l40-40l40-40l40-40l40-40l40-40l40-40l40-40l40-40l40-40l40-40l40-40l40-40l40-40l40-40
		l40-40l40-40l40-40l40-40l40-40l40-40l40-40l40-40l40-40l40-40l40-40h-20l-20,20l-20,20l-20,20l-20,20l-20,20l-20,20l-20,20l-20,20
		l-20,20l-20,20l-20,20l-20,20l-20,20l-20,20l-20,20l-20,20l-20,20l-20,20l-20,20l-20,20l-20,20l-20,20l-20,20l-20,20l-20,20l-20,20
		l-20,20l-20,20l-20,20l-20,20l-20,20l-20,20l-20,20l-20,20l-20,20l-20,20l-20,20l-20,20l-20,20l-20,20l-20,20l-20,20l-20,20l-20,20
		l-20,20l-20,20l-20,20l-20,20l-20,20l-20,20l-20,20l-20,20l-20,20v20l40-40L80,1000z M80,1040l40-40l40-40l40-40l40-40l40-40l40-40
		l40-40l40-40l40-40l40-40l40-40l40-40l40-40l40-40l40-40l40-40l40-40l40-40l40-40l40-40l40-40l40-40l40-40l40-40l40-40l40-40h-20
		l-20,20l-20,20l-20,20l-20,20l-20,20l-20,20l-20,20l-20,20l-20,20l-20,20l-20,20l-20,20l-20,20l-20,20l-20,20l-20,20l-20,20l-20,20
		l-20,20l-20,20l-20,20l-20,20l-20,20l-20,20l-20,20l-20,20l-20,20l-20,20l-20,20l-20,20l-20,20l-20,20l-20,20l-20,20l-20,20l-20,20
		l-20,20l-20,20l-20,20l-20,20l-20,20l-20,20l-20,20l-20,20l-20,20l-20,20l-20,20l-20,20l-20,20l-20,20l-20,20l-20,20l-20,20l-20,20
		l-20,20v20l40-40L80,1040z M80,1080l40-40l40-40l40-40l40-40l40-40l40-40l40-40l40-40l40-40l40-40l40-40l40-40l40-40l40-40l40-40
		l40-40l40-40l40-40l40-40l40-40l40-40l40-40l40-40l40-40l40-40l40-40l40-40h-20l-20,20l-20,20l-20,20l-20,20l-20,20l-20,20l-20,20
		l-20,20l-20,20l-20,20l-20,20l-20,20l-20,20l-20,20l-20,20l-20,20l-20,20l-20,20l-20,20l-20,20l-20,20l-20,20l-20,20l-20,20l-20,20
		l-20,20l-20,20l-20,20l-20,20l-20,20l-20,20l-20,20l-20,20l-20,20l-20,20l-20,20l-20,20l-20,20l-20,20l-20,20l-20,20l-20,20l-20,20
		l-20,20l-20,20l-20,20l-20,20l-20,20l-20,20l-20,20l-20,20l-20,20l-20,20l-20,20l-20,20l-20,20l-20,20v20l40-40L80,1080z M80,1120
		l40-40l40-40l40-40l40-40l40-40l40-40l40-40l40-40l40-40l40-40l40-40l40-40l40-40l40-40l40-40l40-40l40-40l40-40l40-40l40-40l40-40
		l40-40l40-40l40-40l40-40l40-40l40-40l40-40h-20l-20,20l-20,20l-20,20l-20,20l-20,20l-20,20l-20,20l-20,20l-20,20l-20,20l-20,20
		l-20,20l-20,20l-20,20l-20,20l-20,20l-20,20l-20,20l-20,20l-20,20l-20,20l-20,20l-20,20l-20,20l-20,20l-20,20l-20,20l-20,20l-20,20
		l-20,20l-20,20l-20,20l-20,20l-20,20l-20,20l-20,20l-20,20l-20,20l-20,20l-20,20l-20,20l-20,20l-20,20l-20,20l-20,20l-20,20l-20,20
		l-20,20l-20,20l-20,20l-20,20l-20,20l-20,20l-20,20l-20,20l-20,20l-20,20l-20,20l-20,20v20l40-40L80,1120z M20,0L0,20v20L40,0H20z"
		/>
</g>
<g id="Layer_3">
	<path class="st2" d="M614.4,576h20v8.9H620V624h-5.6 M587,607.7l-8.1,16.3h-13.3l13.7-24.2L566,576h13.1l7.9,16"/>
	<path class="st3" d="M608,576h-13.2l-0.5,1.1L587,592v15.7l8.1,16.3h13.3l-13.8-24.2l8.4-14.9h5.5V624h5.9v-48H608z"/>
</g>
</svg>
