<svg xmlns="http://www.w3.org/2000/svg" viewBox="0 0 1200 1200"><style>.st1{fill:#0078ff}.st2{fill:#fff}</style><g id="Layer_1"><path fill="#0070f0" d="M0 0h1200v1200H0z" id="Layer_4"/><g id="Layer_5"><path class="st1" d="M1160 60l-20 20-20 20-20 20-20 20-20 20-20 20-20 20-20 20-20 20-20 20-20 20-20 20-20 20-20 20-20 20-20 20-20 20-20 20-20 20-20 20-20 20-20 20-20 20-20 20-20 20-20 20-20 20-20 20-20 20-20 20-20 20-20 20-20 20-20 20-20 20-20 20-20 20-20 20-20 20-20 20-20 20-20 20-20 20-20 20-20 20-20 20-20 20-20 20-20 20-20 20-20 20-20 20-20 20-20 20-20 20-20 20-20 20h20l40-40 40-40 40-40 40-40 40-40 40-40 40-40 40-40 40-40 40-40 40-40 40-40 40-40 40-40 40-40 40-40 40-40 40-40 40-40 40-40 40-40 40-40 40-40 40-40 40-40 40-40 40-40 40-40 40-40V20l-20 20zM1160 100l-20 20-20 20-20 20-20 20-20 20-20 20-20 20-20 20-20 20-20 20-20 20-20 20-20 20-20 20-20 20-20 20-20 20-20 20-20 20-20 20-20 20-20 20-20 20-20 20-20 20-20 20-20 20-20 20-20 20-20 20-20 20-20 20-20 20-20 20-20 20-20 20-20 20-20 20-20 20-20 20-20 20-20 20-20 20-20 20-20 20-20 20-20 20-20 20-20 20-20 20-20 20-20 20-20 20-20 20-20 20h20l40-40 40-40 40-40 40-40 40-40 40-40 40-40 40-40 40-40 40-40 40-40 40-40 40-40 40-40 40-40 40-40 40-40 40-40 40-40 40-40 40-40 40-40 40-40 40-40 40-40 40-40 40-40 40-40V60l-20 20zM1160 140l-20 20-20 20-20 20-20 20-20 20-20 20-20 20-20 20-20 20-20 20-20 20-20 20-20 20-20 20-20 20-20 20-20 20-20 20-20 20-20 20-20 20-20 20-20 20-20 20-20 20-20 20-20 20-20 20-20 20-20 20-20 20-20 20-20 20-20 20-20 20-20 20-20 20-20 20-20 20-20 20-20 20-20 20-20 20-20 20-20 20-20 20-20 20-20 20-20 20-20 20-20 20-20 20-20 20h20l40-40 40-40 40-40 40-40 40-40 40-40 40-40 40-40 40-40 40-40 40-40 40-40 40-40 40-40 40-40 40-40 40-40 40-40 40-40 40-40 40-40 40-40 40-40 40-40 40-40 40-40 40-40v-20l-20 20zM1160 180l-20 20-20 20-20 20-20 20-20 20-20 20-20 20-20 20-20 20-20 20-20 20-20 20-20 20-20 20-20 20-20 20-20 20-20 20-20 20-20 20-20 20-20 20-20 20-20 20-20 20-20 20-20 20-20 20-20 20-20 20-20 20-20 20-20 20-20 20-20 20-20 20-20 20-20 20-20 20-20 20-20 20-20 20-20 20-20 20-20 20-20 20-20 20-20 20-20 20-20 20-20 20h20l40-40 40-40 40-40 40-40 40-40 40-40 40-40 40-40 40-40 40-40 40-40 40-40 40-40 40-40 40-40 40-40 40-40 40-40 40-40 40-40 40-40 40-40 40-40 40-40 40-40 40-40v-20l-20 20zM1160 220l-20 20-20 20-20 20-20 20-20 20-20 20-20 20-20 20-20 20-20 20-20 20-20 20-20 20-20 20-20 20-20 20-20 20-20 20-20 20-20 20-20 20-20 20-20 20-20 20-20 20-20 20-20 20-20 20-20 20-20 20-20 20-20 20-20 20-20 20-20 20-20 20-20 20-20 20-20 20-20 20-20 20-20 20-20 20-20 20-20 20-20 20-20 20-20 20-20 20h20l40-40 40-40 40-40 40-40 40-40 40-40 40-40 40-40 40-40 40-40 40-40 40-40 40-40 40-40 40-40 40-40 40-40 40-40 40-40 40-40 40-40 40-40 40-40 40-40 40-40v-20l-20 20zM1160 260l-20 20-20 20-20 20-20 20-20 20-20 20-20 20-20 20-20 20-20 20-20 20-20 20-20 20-20 20-20 20-20 20-20 20-20 20-20 20-20 20-20 20-20 20-20 20-20 20-20 20-20 20-20 20-20 20-20 20-20 20-20 20-20 20-20 20-20 20-20 20-20 20-20 20-20 20-20 20-20 20-20 20-20 20-20 20-20 20-20 20-20 20-20 20h20l40-40 40-40 40-40 40-40 40-40 40-40 40-40 40-40 40-40 40-40 40-40 40-40 40-40 40-40 40-40 40-40 40-40 40-40 40-40 40-40 40-40 40-40 40-40 40-40v-20l-20 20zM1160 300l-20 20-20 20-20 20-20 20-20 20-20 20-20 20-20 20-20 20-20 20-20 20-20 20-20 20-20 20-20 20-20 20-20 20-20 20-20 20-20 20-20 20-20 20-20 20-20 20-20 20-20 20-20 20-20 20-20 20-20 20-20 20-20 20-20 20-20 20-20 20-20 20-20 20-20 20-20 20-20 20-20 20-20 20-20 20-20 20-20 20h20l40-40 40-40 40-40 40-40 40-40 40-40 40-40 40-40 40-40 40-40 40-40 40-40 40-40 40-40 40-40 40-40 40-40 40-40 40-40 40-40 40-40 40-40 40-40v-20l-20 20zM1160 340l-20 20-20 20-20 20-20 20-20 20-20 20-20 20-20 20-20 20-20 20-20 20-20 20-20 20-20 20-20 20-20 20-20 20-20 20-20 20-20 20-20 20-20 20-20 20-20 20-20 20-20 20-20 20-20 20-20 20-20 20-20 20-20 20-20 20-20 20-20 20-20 20-20 20-20 20-20 20-20 20-20 20-20 20-20 20h20l40-40 40-40 40-40 40-40 40-40 40-40 40-40 40-40 40-40 40-40 40-40 40-40 40-40 40-40 40-40 40-40 40-40 40-40 40-40 40-40 40-40 40-40v-20l-20 20zM1160 380l-20 20-20 20-20 20-20 20-20 20-20 20-20 20-20 20-20 20-20 20-20 20-20 20-20 20-20 20-20 20-20 20-20 20-20 20-20 20-20 20-20 20-20 20-20 20-20 20-20 20-20 20-20 20-20 20-20 20-20 20-20 20-20 20-20 20-20 20-20 20-20 20-20 20-20 20-20 20-20 20-20 20h20l40-40 40-40 40-40 40-40 40-40 40-40 40-40 40-40 40-40 40-40 40-40 40-40 40-40 40-40 40-40 40-40 40-40 40-40 40-40 40-40 40-40v-20l-20 20zM1160 420l-20 20-20 20-20 20-20 20-20 20-20 20-20 20-20 20-20 20-20 20-20 20-20 20-20 20-20 20-20 20-20 20-20 20-20 20-20 20-20 20-20 20-20 20-20 20-20 20-20 20-20 20-20 20-20 20-20 20-20 20-20 20-20 20-20 20-20 20-20 20-20 20-20 20-20 20-20 20h20l40-40 40-40 40-40 40-40 40-40 40-40 40-40 40-40 40-40 40-40 40-40 40-40 40-40 40-40 40-40 40-40 40-40 40-40 40-40 40-40v-20l-20 20zM1160 460l-20 20-20 20-20 20-20 20-20 20-20 20-20 20-20 20-20 20-20 20-20 20-20 20-20 20-20 20-20 20-20 20-20 20-20 20-20 20-20 20-20 20-20 20-20 20-20 20-20 20-20 20-20 20-20 20-20 20-20 20-20 20-20 20-20 20-20 20-20 20-20 20-20 20h20l40-40 40-40 40-40 40-40 40-40 40-40 40-40 40-40 40-40 40-40 40-40 40-40 40-40 40-40 40-40 40-40 40-40 40-40 40-40v-20l-20 20zM1160 500l-20 20-20 20-20 20-20 20-20 20-20 20-20 20-20 20-20 20-20 20-20 20-20 20-20 20-20 20-20 20-20 20-20 20-20 20-20 20-20 20-20 20-20 20-20 20-20 20-20 20-20 20-20 20-20 20-20 20-20 20-20 20-20 20-20 20-20 20-20 20h20l40-40 40-40 40-40 40-40 40-40 40-40 40-40 40-40 40-40 40-40 40-40 40-40 40-40 40-40 40-40 40-40 40-40 40-40v-20l-20 20zM1160 540l-20 20-20 20-20 20-20 20-20 20-20 20-20 20-20 20-20 20-20 20-20 20-20 20-20 20-20 20-20 20-20 20-20 20-20 20-20 20-20 20-20 20-20 20-20 20-20 20-20 20-20 20-20 20-20 20-20 20-20 20-20 20-20 20-20 20h20l40-40 40-40 40-40 40-40 40-40 40-40 40-40 40-40 40-40 40-40 40-40 40-40 40-40 40-40 40-40 40-40 40-40v-20l-20 20zM1160 580l-20 20-20 20-20 20-20 20-20 20-20 20-20 20-20 20-20 20-20 20-20 20-20 20-20 20-20 20-20 20-20 20-20 20-20 20-20 20-20 20-20 20-20 20-20 20-20 20-20 20-20 20-20 20-20 20-20 20-20 20-20 20h20l40-40 40-40 40-40 40-40 40-40 40-40 40-40 40-40 40-40 40-40 40-40 40-40 40-40 40-40 40-40 40-40v-20l-20 20zM1160 620l-20 20-20 20-20 20-20 20-20 20-20 20-20 20-20 20-20 20-20 20-20 20-20 20-20 20-20 20-20 20-20 20-20 20-20 20-20 20-20 20-20 20-20 20-20 20-20 20-20 20-20 20-20 20-20 20-20 20h20l40-40 40-40 40-40 40-40 40-40 40-40 40-40 40-40 40-40 40-40 40-40 40-40 40-40 40-40 40-40v-20l-20 20zM1160 660l-20 20-20 20-20 20-20 20-20 20-20 20-20 20-20 20-20 20-20 20-20 20-20 20-20 20-20 20-20 20-20 20-20 20-20 20-20 20-20 20-20 20-20 20-20 20-20 20-20 20-20 20-20 20h20l40-40 40-40 40-40 40-40 40-40 40-40 40-40 40-40 40-40 40-40 40-40 40-40 40-40 40-40v-20l-20 20zM1160 700l-20 20-20 20-20 20-20 20-20 20-20 20-20 20-20 20-20 20-20 20-20 20-20 20-20 20-20 20-20 20-20 20-20 20-20 20-20 20-20 20-20 20-20 20-20 20-20 20-20 20h20l40-40 40-40 40-40 40-40 40-40 40-40 40-40 40-40 40-40 40-40 40-40 40-40 40-40v-20l-20 20zM1160 740l-20 20-20 20-20 20-20 20-20 20-20 20-20 20-20 20-20 20-20 20-20 20-20 20-20 20-20 20-20 20-20 20-20 20-20 20-20 20-20 20-20 20-20 20-20 20h20l40-40 40-40 40-40 40-40 40-40 40-40 40-40 40-40 40-40 40-40 40-40 40-40v-20l-20 20zM1160 780l-20 20-20 20-20 20-20 20-20 20-20 20-20 20-20 20-20 20-20 20-20 20-20 20-20 20-20 20-20 20-20 20-20 20-20 20-20 20-20 20-20 20h20l40-40 40-40 40-40 40-40 40-40 40-40 40-40 40-40 40-40 40-40 40-40v-20l-20 20zM1160 820l-20 20-20 20-20 20-20 20-20 20-20 20-20 20-20 20-20 20-20 20-20 20-20 20-20 20-20 20-20 20-20 20-20 20-20 20-20 20h20l40-40 40-40 40-40 40-40 40-40 40-40 40-40 40-40 40-40 40-40v-20l-20 20zM1160 860l-20 20-20 20-20 20-20 20-20 20-20 20-20 20-20 20-20 20-20 20-20 20-20 20-20 20-20 20-20 20-20 20-20 20h20l40-40 40-40 40-40 40-40 40-40 40-40 40-40 40-40 40-40v-20l-20 20zM1160 900l-20 20-20 20-20 20-20 20-20 20-20 20-20 20-20 20-20 20-20 20-20 20-20 20-20 20-20 20-20 20h20l40-40 40-40 40-40 40-40 40-40 40-40 40-40 40-40v-20l-20 20zM1160 940l-20 20-20 20-20 20-20 20-20 20-20 20-20 20-20 20-20 20-20 20-20 20-20 20-20 20h20l40-40 40-40 40-40 40-40 40-40 40-40 40-40v-20l-20 20zM1160 980l-20 20-20 20-20 20-20 20-20 20-20 20-20 20-20 20-20 20-20 20-20 20h20l40-40 40-40 40-40 40-40 40-40 40-40v-20l-20 20zM1160 1020l-20 20-20 20-20 20-20 20-20 20-20 20-20 20-20 20-20 20h20l40-40 40-40 40-40 40-40 40-40v-20l-20 20zM1160 1060l-20 20-20 20-20 20-20 20-20 20-20 20-20 20h20l40-40 40-40 40-40 40-40v-20l-20 20zM1160 1100l-20 20-20 20-20 20-20 20-20 20h20l40-40 40-40 40-40v-20l-20 20zM1160 1140l-20 20-20 20-20 20h20l40-40 40-40v-20l-20 20zM1160 1180l-20 20h20l40-40v-20l-20 20zM1200 1200v-20l-20 20zM80 0H60L40 20 20 40 0 60v20l40-40zM80 40l40-40h-20L80 20 60 40 40 60 20 80 0 100v20l40-40zM80 80l40-40 40-40h-20l-20 20-20 20-20 20-20 20-20 20-20 20-20 20v20l40-40zM80 120l40-40 40-40 40-40h-20l-20 20-20 20-20 20-20 20-20 20-20 20-20 20-20 20-20 20v20l40-40zM80 160l40-40 40-40 40-40 40-40h-20l-20 20-20 20-20 20-20 20-20 20-20 20-20 20-20 20-20 20-20 20-20 20v20l40-40zM80 200l40-40 40-40 40-40 40-40 40-40h-20l-20 20-20 20-20 20-20 20-20 20-20 20-20 20-20 20-20 20-20 20-20 20-20 20-20 20v20l40-40zM80 240l40-40 40-40 40-40 40-40 40-40 40-40h-20l-20 20-20 20-20 20-20 20-20 20-20 20-20 20-20 20-20 20-20 20-20 20-20 20-20 20-20 20-20 20v20l40-40zM80 280l40-40 40-40 40-40 40-40 40-40 40-40 40-40h-20l-20 20-20 20-20 20-20 20-20 20-20 20-20 20-20 20-20 20-20 20-20 20-20 20-20 20-20 20-20 20-20 20-20 20v20l40-40zM80 320l40-40 40-40 40-40 40-40 40-40 40-40 40-40 40-40h-20l-20 20-20 20-20 20-20 20-20 20-20 20-20 20-20 20-20 20-20 20-20 20-20 20-20 20-20 20-20 20-20 20-20 20-20 20-20 20v20l40-40zM80 360l40-40 40-40 40-40 40-40 40-40 40-40 40-40 40-40 40-40h-20l-20 20-20 20-20 20-20 20-20 20-20 20-20 20-20 20-20 20-20 20-20 20-20 20-20 20-20 20-20 20-20 20-20 20-20 20-20 20-20 20-20 20v20l40-40zM80 400l40-40 40-40 40-40 40-40 40-40 40-40 40-40 40-40 40-40 40-40h-20l-20 20-20 20-20 20-20 20-20 20-20 20-20 20-20 20-20 20-20 20-20 20-20 20-20 20-20 20-20 20-20 20-20 20-20 20-20 20-20 20-20 20-20 20-20 20v20l40-40zM80 440l40-40 40-40 40-40 40-40 40-40 40-40 40-40 40-40 40-40 40-40 40-40h-20l-20 20-20 20-20 20-20 20-20 20-20 20-20 20-20 20-20 20-20 20-20 20-20 20-20 20-20 20-20 20-20 20-20 20-20 20-20 20-20 20-20 20-20 20-20 20-20 20-20 20v20l40-40zM80 480l40-40 40-40 40-40 40-40 40-40 40-40 40-40 40-40 40-40 40-40 40-40 40-40h-20l-20 20-20 20-20 20-20 20-20 20-20 20-20 20-20 20-20 20-20 20-20 20-20 20-20 20-20 20-20 20-20 20-20 20-20 20-20 20-20 20-20 20-20 20-20 20-20 20-20 20-20 20-20 20v20l40-40zM80 520l40-40 40-40 40-40 40-40 40-40 40-40 40-40 40-40 40-40 40-40 40-40 40-40 40-40h-20l-20 20-20 20-20 20-20 20-20 20-20 20-20 20-20 20-20 20-20 20-20 20-20 20-20 20-20 20-20 20-20 20-20 20-20 20-20 20-20 20-20 20-20 20-20 20-20 20-20 20-20 20-20 20-20 20-20 20v20l40-40zM80 560l40-40 40-40 40-40 40-40 40-40 40-40 40-40 40-40 40-40 40-40 40-40 40-40 40-40 40-40h-20l-20 20-20 20-20 20-20 20-20 20-20 20-20 20-20 20-20 20-20 20-20 20-20 20-20 20-20 20-20 20-20 20-20 20-20 20-20 20-20 20-20 20-20 20-20 20-20 20-20 20-20 20-20 20-20 20-20 20-20 20-20 20v20l40-40zM80 600l40-40 40-40 40-40 40-40 40-40 40-40 40-40 40-40 40-40 40-40 40-40 40-40 40-40 40-40 40-40h-20l-20 20-20 20-20 20-20 20-20 20-20 20-20 20-20 20-20 20-20 20-20 20-20 20-20 20-20 20-20 20-20 20-20 20-20 20-20 20-20 20-20 20-20 20-20 20-20 20-20 20-20 20-20 20-20 20-20 20-20 20-20 20-20 20-20 20v20l40-40zM80 640l40-40 40-40 40-40 40-40 40-40 40-40 40-40 40-40 40-40 40-40 40-40 40-40 40-40 40-40 40-40 40-40h-20l-20 20-20 20-20 20-20 20-20 20-20 20-20 20-20 20-20 20-20 20-20 20-20 20-20 20-20 20-20 20-20 20-20 20-20 20-20 20-20 20-20 20-20 20-20 20-20 20-20 20-20 20-20 20-20 20-20 20-20 20-20 20-20 20-20 20-20 20-20 20v20l40-40zM80 680l40-40 40-40 40-40 40-40 40-40 40-40 40-40 40-40 40-40 40-40 40-40 40-40 40-40 40-40 40-40 40-40 40-40h-20l-20 20-20 20-20 20-20 20-20 20-20 20-20 20-20 20-20 20-20 20-20 20-20 20-20 20-20 20-20 20-20 20-20 20-20 20-20 20-20 20-20 20-20 20-20 20-20 20-20 20-20 20-20 20-20 20-20 20-20 20-20 20-20 20-20 20-20 20-20 20-20 20-20 20v20l40-40zM80 720l40-40 40-40 40-40 40-40 40-40 40-40 40-40 40-40 40-40 40-40 40-40 40-40 40-40 40-40 40-40 40-40 40-40 40-40h-20l-20 20-20 20-20 20-20 20-20 20-20 20-20 20-20 20-20 20-20 20-20 20-20 20-20 20-20 20-20 20-20 20-20 20-20 20-20 20-20 20-20 20-20 20-20 20-20 20-20 20-20 20-20 20-20 20-20 20-20 20-20 20-20 20-20 20-20 20-20 20-20 20-20 20-20 20-20 20v20l40-40zM80 760l40-40 40-40 40-40 40-40 40-40 40-40 40-40 40-40 40-40 40-40 40-40 40-40 40-40 40-40 40-40 40-40 40-40 40-40 40-40h-20l-20 20-20 20-20 20-20 20-20 20-20 20-20 20-20 20-20 20-20 20-20 20-20 20-20 20-20 20-20 20-20 20-20 20-20 20-20 20-20 20-20 20-20 20-20 20-20 20-20 20-20 20-20 20-20 20-20 20-20 20-20 20-20 20-20 20-20 20-20 20-20 20-20 20-20 20-20 20-20 20-20 20v20l40-40zM80 800l40-40 40-40 40-40 40-40 40-40 40-40 40-40 40-40 40-40 40-40 40-40 40-40 40-40 40-40 40-40 40-40 40-40 40-40 40-40 40-40h-20l-20 20-20 20-20 20-20 20-20 20-20 20-20 20-20 20-20 20-20 20-20 20-20 20-20 20-20 20-20 20-20 20-20 20-20 20-20 20-20 20-20 20-20 20-20 20-20 20-20 20-20 20-20 20-20 20-20 20-20 20-20 20-20 20-20 20-20 20-20 20-20 20-20 20-20 20-20 20-20 20-20 20-20 20-20 20v20l40-40zM80 840l40-40 40-40 40-40 40-40 40-40 40-40 40-40 40-40 40-40 40-40 40-40 40-40 40-40 40-40 40-40 40-40 40-40 40-40 40-40 40-40 40-40h-20l-20 20-20 20-20 20-20 20-20 20-20 20-20 20-20 20-20 20-20 20-20 20-20 20-20 20-20 20-20 20-20 20-20 20-20 20-20 20-20 20-20 20-20 20-20 20-20 20-20 20-20 20-20 20-20 20-20 20-20 20-20 20-20 20-20 20-20 20-20 20-20 20-20 20-20 20-20 20-20 20-20 20-20 20-20 20-20 20-20 20v20l40-40zM80 880l40-40 40-40 40-40 40-40 40-40 40-40 40-40 40-40 40-40 40-40 40-40 40-40 40-40 40-40 40-40 40-40 40-40 40-40 40-40 40-40 40-40 40-40h-20l-20 20-20 20-20 20-20 20-20 20-20 20-20 20-20 20-20 20-20 20-20 20-20 20-20 20-20 20-20 20-20 20-20 20-20 20-20 20-20 20-20 20-20 20-20 20-20 20-20 20-20 20-20 20-20 20-20 20-20 20-20 20-20 20-20 20-20 20-20 20-20 20-20 20-20 20-20 20-20 20-20 20-20 20-20 20-20 20-20 20-20 20-20 20v20l40-40zM80 920l40-40 40-40 40-40 40-40 40-40 40-40 40-40 40-40 40-40 40-40 40-40 40-40 40-40 40-40 40-40 40-40 40-40 40-40 40-40 40-40 40-40 40-40 40-40h-20l-20 20-20 20-20 20-20 20-20 20-20 20-20 20-20 20-20 20-20 20-20 20-20 20-20 20-20 20-20 20-20 20-20 20-20 20-20 20-20 20-20 20-20 20-20 20-20 20-20 20-20 20-20 20-20 20-20 20-20 20-20 20-20 20-20 20-20 20-20 20-20 20-20 20-20 20-20 20-20 20-20 20-20 20-20 20-20 20-20 20-20 20-20 20-20 20-20 20v20l40-40zM80 960l40-40 40-40 40-40 40-40 40-40 40-40 40-40 40-40 40-40 40-40 40-40 40-40 40-40 40-40 40-40 40-40 40-40 40-40 40-40 40-40 40-40 40-40 40-40 40-40h-20l-20 20-20 20-20 20-20 20-20 20-20 20-20 20-20 20-20 20-20 20-20 20-20 20-20 20-20 20-20 20-20 20-20 20-20 20-20 20-20 20-20 20-20 20-20 20-20 20-20 20-20 20-20 20-20 20-20 20-20 20-20 20-20 20-20 20-20 20-20 20-20 20-20 20-20 20-20 20-20 20-20 20-20 20-20 20-20 20-20 20-20 20-20 20-20 20-20 20-20 20-20 20v20l40-40zM80 1000l40-40 40-40 40-40 40-40 40-40 40-40 40-40 40-40 40-40 40-40 40-40 40-40 40-40 40-40 40-40 40-40 40-40 40-40 40-40 40-40 40-40 40-40 40-40 40-40 40-40h-20l-20 20-20 20-20 20-20 20-20 20-20 20-20 20-20 20-20 20-20 20-20 20-20 20-20 20-20 20-20 20-20 20-20 20-20 20-20 20-20 20-20 20-20 20-20 20-20 20-20 20-20 20-20 20-20 20-20 20-20 20-20 20-20 20-20 20-20 20-20 20-20 20-20 20-20 20-20 20-20 20-20 20-20 20-20 20-20 20-20 20-20 20-20 20-20 20-20 20-20 20-20 20-20 20-20 20v20l40-40zM80 1040l40-40 40-40 40-40 40-40 40-40 40-40 40-40 40-40 40-40 40-40 40-40 40-40 40-40 40-40 40-40 40-40 40-40 40-40 40-40 40-40 40-40 40-40 40-40 40-40 40-40 40-40h-20l-20 20-20 20-20 20-20 20-20 20-20 20-20 20-20 20-20 20-20 20-20 20-20 20-20 20-20 20-20 20-20 20-20 20-20 20-20 20-20 20-20 20-20 20-20 20-20 20-20 20-20 20-20 20-20 20-20 20-20 20-20 20-20 20-20 20-20 20-20 20-20 20-20 20-20 20-20 20-20 20-20 20-20 20-20 20-20 20-20 20-20 20-20 20-20 20-20 20-20 20-20 20-20 20-20 20-20 20-20 20v20l40-40zM80 1080l40-40 40-40 40-40 40-40 40-40 40-40 40-40 40-40 40-40 40-40 40-40 40-40 40-40 40-40 40-40 40-40 40-40 40-40 40-40 40-40 40-40 40-40 40-40 40-40 40-40 40-40 40-40h-20l-20 20-20 20-20 20-20 20-20 20-20 20-20 20-20 20-20 20-20 20-20 20-20 20-20 20-20 20-20 20-20 20-20 20-20 20-20 20-20 20-20 20-20 20-20 20-20 20-20 20-20 20-20 20-20 20-20 20-20 20-20 20-20 20-20 20-20 20-20 20-20 20-20 20-20 20-20 20-20 20-20 20-20 20-20 20-20 20-20 20-20 20-20 20-20 20-20 20-20 20-20 20-20 20-20 20-20 20-20 20-20 20-20 20v20l40-40zM80 1120l40-40 40-40 40-40 40-40 40-40 40-40 40-40 40-40 40-40 40-40 40-40 40-40 40-40 40-40 40-40 40-40 40-40 40-40 40-40 40-40 40-40 40-40 40-40 40-40 40-40 40-40 40-40 40-40h-20l-20 20-20 20-20 20-20 20-20 20-20 20-20 20-20 20-20 20-20 20-20 20-20 20-20 20-20 20-20 20-20 20-20 20-20 20-20 20-20 20-20 20-20 20-20 20-20 20-20 20-20 20-20 20-20 20-20 20-20 20-20 20-20 20-20 20-20 20-20 20-20 20-20 20-20 20-20 20-20 20-20 20-20 20-20 20-20 20-20 20-20 20-20 20-20 20-20 20-20 20-20 20-20 20-20 20-20 20-20 20-20 20-20 20-20 20-20 20v20l40-40zM20 0L0 20v20L40 0z"/></g><g id="Layer_3"><path class="st2" d="M614.4 576h20v8.9H620V624h-5.6M587 607.7l-8.1 16.3h-13.3l13.7-24.2L566 576h13.1l7.9 16"/><path opacity=".5" fill="#fff" d="M608 576h-13.2l-.5 1.1L587 592v15.7l8.1 16.3h13.3l-13.8-24.2 8.4-14.9h5.5V624h5.9v-48z"/></g></g></svg>
