<?xml version="1.0" encoding="utf-8"?>
<!-- Generator: Adobe Illustrator 18.0.0, SVG Export Plug-In . SVG Version: 6.00 Build 0)  -->
<!DOCTYPE svg PUBLIC "-//W3C//DTD SVG 1.1//EN" "http://www.w3.org/Graphics/SVG/1.1/DTD/svg11.dtd">
<svg version="1.1" id="Layer_1" xmlns="http://www.w3.org/2000/svg" xmlns:xlink="http://www.w3.org/1999/xlink" x="0px" y="0px"
	 width="307.01px" height="355.871px" viewBox="0 0 307.01 355.871" enable-background="new 0 0 307.01 355.871"
	 xml:space="preserve">
<g>
	<path fill="#010101" d="M48.173,155.568c-10.389,4.887-37.886,26.886-43.182,33.404c-5.5,6.518-7.129-3.666-1.426-20.572
		c4.48-13.647,15.888-32.183,35.034-48.07c11.202-9.166,35.849-22.405,50.921-30.146c3.056-1.63,42.571-18.332,77.809-26.683
		c3.056-0.815-3.666,5.092-4.685,8.351c-5.296,15.48-111.01,81.882-111.01,81.882L48.173,155.568z"/>
	<path fill="#010101" d="M197.067,342.348c1.833,10.999,0.204,11.814-11.202,13.24c-11.407,1.426-19.758-2.852-22.813-5.703
		c-3.056-2.853-3.666-9.166-0.611-14.869c1.834-3.667,3.667-4.889,4.686-9.37c1.018-4.277,1.833-5.296,2.647-6.925
		c0.814-1.427,1.019-2.853,1.222-12.833c0.204-9.98,0-28.72,1.019-36.663c1.019-8.147,36.257,3.666,36.257,3.666
		s-8.352,20.776-10.592,25.868c-2.241,5.093-2.037,14.869-2.037,16.906s-0.814,6.11-1.426,6.314
		c-0.611,0.203,2.037,5.499,0.814,8.555C194.216,333.386,196.864,340.719,197.067,342.348z"/>
	<path fill="#010101" d="M210.511,30.911c-1.223-7.74,0-23.018,1.629-25.461c5.093-6.926,31.979-7.74,37.683,0.407
		c2.444,3.666,2.24,12.221,1.833,17.721c-0.407,5.499-1.833,17.313-2.037,21.184c-0.203,2.852-29.738,7.332-36.256-0.408
		C211.529,42.318,210.511,30.911,210.511,30.911z"/>
	<path fill="#010101" d="M270.395,322.59c12.425,8.963,21.998,10.592,28.312,13.851c6.314,3.26,4.685,9.574-5.907,11.407
		c-8.555,1.629-21.998-1.63-30.96-1.63c-8.962,0-28.924,1.019-34.22-2.647c-6.11-4.277-3.463-12.222-3.463-12.222
		c1.63-4.48,5.703-14.462,4.481-22.609s-2.852-12.628-5.907-20.165c-3.055-7.536-5.295-26.071-2.443-27.09s2.036,0,5.703,0.814
		c3.666,0.814,7.74,2.037,15.684,2.037s16.702-1.223,19.758-1.833c3.055-0.611,5.499-1.223,4.48,5.092
		c-1.018,6.314-4.073,18.128-4.277,27.294c-0.203,9.166-0.203,19.758,0.408,21.591C262.654,318.313,267.136,320.35,270.395,322.59z"
		/>
	<g>
		<g>
			<path fill="#8AC640" d="M226.806,51.28c-22.405,19.351-65.791,24.646-130.155,49.496c-16.499,6.314-60.495,25.257-71.087,45.015
				c35.645-20.572,48.885,7.74,51.736,36.867c2.647,27.294,16.295,41.553,51.329,40.737c36.053-0.814,47.052,20.165,57.032,44.812
				c19.35-94.308,50.311-112.639,70.271-128.73C298.3,105.053,246.156,44.354,226.806,51.28z"/>
			<path fill="#8AC640" d="M226.806,51.28C173.033,70.019,119.87,74.704,57.339,113.201c-14.869,9.166-46.237,29.941-52.348,69.661
				c22.812-25.258,75.567-57.032,140.136-77.197c32.59-10.185,56.422-16.906,85.345-28.109
				C228.436,64.519,228.436,59.427,226.806,51.28z"/>
		</g>
		<path fill="#010101" d="M295.448,162.9c0,0-3.87,13.24-11.61,17.518c0,0-5.703,2.037-17.109-4.277
			c-3.259-1.833-5.703-8.147-5.5-10.185c0.204-4.889,3.259-7.129,3.259-7.129s3.26-5.5,7.129-5.296
			c3.871,0.203,10.389,0.814,12.426-1.019C285.875,150.475,295.856,156.178,295.448,162.9z"/>
		<path fill="#010101" d="M212.344,34.781c0,0-0.814,10.389-2.24,16.906c-0.204,1.223-6.314,1.833-10.796,3.667
			c8.555,24.442,60.088,24.238,66.81,12.221c-3.259-2.24-9.777-5.703-12.832-6.925c-3.056-1.223-2.852-1.019-3.056-6.722
			c-0.203-5.704-0.611-16.295-1.019-19.147C248.804,31.929,217.232,31.929,212.344,34.781z"/>
		<path fill="#F0EFEF" d="M214.381,34.781c0,0,0,5.907-0.611,11.61c-0.203,2.648-0.407,4.277-0.814,6.314
			c-0.204,1.223,6.925,6.11,8.962,16.906c9.777,21.794,32.387,10.999,41.756,0.611c-3.259-2.241-8.555-5.296-14.665-7.74
			c-3.056-1.223-1.63-3.87-1.833-9.573c-0.204-5.703-1.019-14.055-1.426-17.11C245.341,32.744,219.27,31.929,214.381,34.781z"/>
		<path fill="#010101" d="M212.344,34.781c0,0-0.204,3.667-0.814,7.944c2.647,2.647,6.11,6.314,8.759,8.555
			c1.833,1.63,6.313,1.426,10.388,1.426c3.666,0,6.925,0.407,8.351-0.407c3.26-1.63,7.944-5.703,10.592-8.759
			c-0.203-3.666-0.407-7.129-0.61-8.759C248.804,31.929,217.232,31.929,212.344,34.781z"/>
		<path fill="#010101" d="M230.88,50.261c-2.445,0-5.297-0.203-7.537-0.611c-1.019-0.203-2.037-0.814-2.852-1.222
			c-1.426-1.019-2.852-2.24-4.48-3.463c-3.26-2.444-3.463-3.87-3.463-4.48c1.426-12.833-0.408-23.628-0.408-23.628
			s-1.426-5.5,6.314-6.926s12.425-1.629,12.425-1.629s4.889,0,12.425,1.629c7.74,1.426,6.314,6.926,6.314,6.926
			s-1.833,10.795-0.407,23.628c0,0.61-0.203,2.036-3.463,4.48c-2.852,2.037-5.092,4.277-7.332,4.685
			C236.175,50.058,233.323,50.261,230.88,50.261z"/>
		<path fill="#010101" d="M230.88,3.006c-13.443,0-16.092,3.666-19.962,7.74c-0.814,1.018-0.204,7.129,1.223,20.165h1.833
			c0,0-1.223-3.667-1.019-7.944s1.019-4.073,0.407-5.092c-0.814-1.223-2.444-3.26,1.223-5.296c3.666-2.037,9.369,1.629,16.295,1.833
			c6.925-0.204,12.832-3.87,16.498-1.833c3.666,2.036,2.037,4.073,1.223,5.296c-0.815,1.222,0.203,0.814,0.407,5.092
			c0.203,4.277-1.019,7.944-1.019,7.944h1.833c1.222-13.036,2.037-18.739,1.426-19.758C247.785,6.672,244.323,3.209,230.88,3.006z"
			/>
		<path fill="#010101" d="M295.448,163.511c0,0-3.87,12.425-11.406,16.702c-1.63-0.814-1.426-2.036-2.852-3.87
			c-0.408-0.61-1.834-1.019-2.444-1.629c-0.611-0.611-0.407-1.63-1.426-2.444c-0.815-0.815-1.426-0.204-2.241-0.815
			c-0.814-0.814-1.019-1.833-1.629-2.443c-0.408-0.408-2.037-0.611-2.444-1.019c-1.019-1.019-9.98-2.852-9.573-4.889
			c0.814-3.056,2.444-5.296,2.444-5.296s3.87-5.703,7.739-5.5c3.87,0.204,7.537,1.019,9.574-0.814
			C283.431,149.456,296.06,156.993,295.448,163.511z"/>
		<path fill="#010101" d="M268.969,73.482c0,0,12.832-3.056,21.591,5.296c8.759,8.555,8.147,19.146,5.5,25.664
			c2.24,2.648,6.314,9.98,3.259,18.739c13.443,11.406,7.536,28.924-4.481,40.534c0,0-2.852-10.592-14.258-11.203
			c0.407-4.073-10.592-7.333-5.5-17.925c-7.74-1.833-7.536-7.129-8.758-13.646C265.303,114.422,268.969,73.482,268.969,73.482z"/>
		<path fill="#F0EFEF" d="M264.284,79.185c0,0,14.869-7.536,23.628,1.019c8.758,8.555,6.313,17.924,3.666,24.442
			c2.24,2.647,7.536,10.185,4.277,19.146c-0.611,2.037-5.092,2.037-8.352,7.333c8.147-4.686,13.24-3.463,15.073,2.443
			c2.852,9.166-3.463,20.165-8.962,26.276c0-0.204-0.204-0.408-0.204-0.611c-0.814,3.056-1.833,8.962-7.943,15.48
			c-3.056,3.259-5.5,2.852-8.963,2.037c-4.073-1.019-5.499-2.853-11.202-5.907c-3.259-1.833-1.426-4.074-1.426-5.907
			c0-0.407,0.407-1.019,1.019-1.833c0.407-1.019,1.629-2.647,3.462-4.481c0,0,2.648-3.666,6.519-3.463
			c3.87,0.204,7.943-0.61,8.962-1.629l0,0c0-7.129-8.147-7.333-5.296-19.554c0.204-0.611,1.223-1.63,4.481-2.037
			c-4.889-1.019-7.129-1.223-10.592-4.481c-2.444-2.24-4.277-5.092-4.889-8.758C266.321,112.386,264.284,79.185,264.284,79.185z"/>
		<path fill="#010101" d="M221.306,66.353c-1.222-1.63-7.536-9.777-19.554-13.036c-3.463-1.019-5.703,1.833-9.165,3.87
			c-1.019-0.611-5.5-2.648-7.944-1.223s-4.073,2.852-6.518,3.87c-1.223-0.611-4.481-0.611-7.129,0.407
			c-2.648,0.815-6.722,2.648-10.592,7.944c-2.444,8.759,43.181,2.24,43.181,2.24L221.306,66.353z"/>
		<path fill="#8AC640" d="M221.714,66.353c-6.519-2.241-5.5-9.777-19.962-10.999c-2.852-0.204-4.685,2.036-6.722,3.462
			c1.019,1.019,2.037,2.648,2.648,4.277c-1.833-2.036-5.092-4.685-8.352-5.296c-3.055-0.61-5.092,1.63-8.351,3.26
			c0.61,0.61,1.222,1.629,2.036,2.852c-2.852-1.833-4.888-2.444-8.758-1.019c-2.648,0.814-7.74,3.055-11.61,8.555
			c-2.444,8.759,41.145-1.019,41.145-1.019L221.714,66.353z"/>
		<path fill="#010101" d="M260.007,69.612c0,0,0-2.241-0.204-4.277c0-0.407-1.629-1.426-1.629-1.833l-0.407-0.408
			c0,0,3.259-1.833,5.703-0.814c2.647,0.814,4.073,4.277,4.073,4.277c4.685-1.629,5.092,0.204,7.333,2.648
			c4.889-1.019,5.499,0.814,8.555,5.296c0,0-3.666-0.611-10.795,0.61C265.71,76.129,260.007,69.408,260.007,69.612z"/>
		<path fill="#8AC640" d="M259.192,68.593c0,0,1.222-1.019,0.814-1.223c2.24-1.222,5.296-2.647,6.722,1.223
			c4.685-1.63,5.296,0.611,7.536,3.056c5.703-2.648,6.11,0.61,6.518,2.036c-1.833,0-4.48,0.204-8.147,0.611
			C265.71,75.315,258.988,68.389,259.192,68.593z"/>
		<path fill="#010101" d="M189.939,63.501c0,0,11.61,4.073,21.387,3.462c9.777-0.814,26.479-1.629,35.441,3.667
			c0,0,9.166-3.26,17.721-1.019c8.556,2.24,24.239,16.906,19.555,32.386c-0.408,1.019-3.056,2.648-6.111,3.667
			c0,0,1.63,6.925-1.222,12.628c-2.852,5.5-9.166,16.092-9.37,30.757l0,0c-0.203,2.444-0.61,7.536-1.018,9.98
			c-15.888-0.61-40.33-6.518-64.365-6.11c0.203-2.647,0.407-4.277,0.611-6.925h0.61c-1.222-6.722-1.629-10.185-2.852-15.277
			c-7.74-4.888-15.888-10.591-22.812-21.387C170.792,98.534,189.939,63.501,189.939,63.501z"/>
		<path fill="#010101" d="M268.562,173.492c0,0,12.629,45.219-2.24,64.162c0,0,2.24,8.758-2.852,18.128
			c-0.815,4.073-1.834,7.74-2.444,11.813c-2.648,16.906-7.13,24.035-8.352,51.125l-12.222-0.203c0,0-1.426-19.554-5.703-29.942
			c-2.443-5.906-12.018-13.851-11.609-21.794c0.407-6.111,1.629-11.203,12.018-19.351c0.814-11.813-11-23.017-9.166-67.013
			L268.562,173.492z"/>
		<path fill="#F0EFEF" d="M264.896,171.658c3.259,20.776,10.795,51.533-2.852,66.605c0.61,2.852,1.018,6.926,0.203,11.61
			c-0.407,2.444-1.222,5.092-2.24,7.943c-2.037,4.889-2.852,12.018-3.463,16.295c-2.648,16.906-2.648,17.722-3.87,44.812
			l-12.222-0.204c0,0-1.426-19.554-5.703-29.941c-2.443-5.907-7.536-10.999-7.943-18.943c-0.407-6.11,3.87-18.331,14.055-17.924
			c-0.611-24.646-12.018-19.758-15.073-71.087L264.896,171.658z"/>
		<path fill="#F0EFEF" d="M189.939,63.501c0,0,4.481,1.426,9.369,1.833c4.889,0.407,10.185,0,14.869-0.204
			c9.777-0.814,23.628-1.833,32.794,3.463c0,0,5.092-1.63,10.592-1.223c2.444,0.204,4.889,2.241,7.74,3.056
			c8.962,2.24,17.517,17.109,13.646,30.553c-0.407,1.019-3.259,0-6.518,1.019c0.61,2.852,1.019,9.37-2.241,16.295
			c-3.462,6.926-7.943,15.888-7.129,32.998c-21.387-1.019-30.96-2.444-52.144-3.463c-1.833-7.537-3.056-15.073-3.259-18.943
			c2.852-1.426,4.48-2.647,6.722-5.092c-6.11,1.019-8.555,0.611-12.222-1.426c-3.666-2.037-10.184-8.555-13.443-12.832
			c-0.407-0.408-2.647,6.313-7.739,6.518c-1.834-2.648,5.906-10.185,4.48-13.036C180.365,92.628,189.939,63.501,189.939,63.501z"/>
		<path fill="#010101" d="M266.524,154.752c0,0,0.407,7.333,0.407,9.166c0,2.037,1.63,8.147,1.833,10.999
			c-2.24,3.87-12.017,12.629-29.738,15.888c-17.517,3.666-40.737-23.831-40.737-23.831c0.611-2.648,2.648-10.389,4.074-14.462
			c0.204-0.407,0.611-1.426,0.611-1.833C204.808,148.031,266.524,154.752,266.524,154.752z"/>
		<path fill="#F0EFEF" d="M262.044,155.364c0,5.092,0.814,8.759,1.426,12.018c1.018,5.907,2.647,9.777,2.647,13.647
			c0,11.813-15.48,9.776-28.517,10.184c-17.517,3.667-32.386-23.831-32.386-23.831c1.222-4.685,2.037-9.98,3.87-14.462l0,0
			c0.203-2.444,0.611-5.499,0.814-6.925c24.85,0,42.367,1.426,52.552,2.443C262.858,150.679,262.451,154.549,262.044,155.364
			L262.044,155.364z"/>
		<path fill="#010101" d="M242.489,181.639c0,0-10.795-24.035-43.182-16.905c-7.739,21.794-18.128,46.848-11.406,73.938
			c-6.722,9.166-14.462,14.259-14.462,31.164c0,16.906,0.815,19.758,0.815,19.758l23.831,1.223c0,0,7.74-9.98,10.795-20.776
			c0.815-3.056,1.63-8.555,1.019-14.869c0.814-1.222,4.277-4.073,4.685-9.573c0,0,11.61-6.11,18.332-20.979
			C239.231,211.174,237.601,199.564,242.489,181.639z"/>
		<path fill="#F0EFEF" d="M242.489,181.639c-0.61-2.24-8.758-24.238-38.904-17.721c-17.72,47.256-11.202,66.81-8.555,75.364
			c-12.018,15.276-17.517,18.535-15.072,49.496h15.888c7.332-11.61,8.962-15.888,9.369-31.164c0-0.611-2.24,1.222-3.87,3.259
			c1.223-6.314,4.685-7.536,7.333-11.406c1.222-1.63,2.24-4.074,2.24-7.333c14.258-9.573,19.554-21.591,22.609-34.016
			C235.972,199.564,238.823,185.509,242.489,181.639z"/>
		<path fill="#010101" d="M192.179,148.846c0,0,5.5,0.203,10.389,1.833c4.685,1.629,4.685,2.647,6.518,4.685s6.314,5.092,5.5,8.147
			c-0.408,1.63-1.426,2.037-2.852,3.463c-0.611,0.611-5.093,5.499-6.111,6.11c-0.611,0.407-1.426,1.019-2.037,1.426
			c-0.61,0.407-2.443,1.63-3.055,2.037c-2.037,1.019-3.463,1.63-5.703,1.426c0,0-5.092-0.204-8.352-3.666
			c0,0-0.407-1.63,0.408-2.444c0,0-4.278-3.667-5.5-6.111c-1.223-2.443-1.223-5.906-0.407-7.739
			C181.384,156.178,189.327,151.086,192.179,148.846z"/>
		<path fill="#010101" d="M197.272,347.033l-0.611,5.093c0,0-1.833,2.24-15.48,2.037c-13.851-0.204-17.517-4.481-18.739-6.722
			l-0.814-5.296c0,0,2.648-3.87,3.259-3.87c4.481,0.407,19.758,6.518,30.35,8.147C196.253,346.422,196.456,346.829,197.272,347.033z
			"/>
		<path fill="#010101" d="M226.806,336.645c0,2.24-0.204,2.24-0.204,4.481c2.444,1.833,8.556,2.852,20.165,2.647
			c16.906-0.407,32.59,5.093,51.736,1.833l0.204-3.666l-1.833-0.203l-67.828-5.5L226.806,336.645z"/>
		<path fill="#010101" d="M241.675,343.774c1.63,0,3.259,0,5.092,0c11-0.407,21.388,2.037,32.59,2.648
			c5.907-0.204,13.24-1.63,12.629-5.907l-57.847-4.889C230.676,339.496,233.323,342.755,241.675,343.774z"/>
		<path fill="#010101" d="M175.273,258.022c1.833,1.222,14.258,8.555,34.423,7.536c-0.408,3.87-0.204,11.407-9.166,24.646
			c-4.481,6.518-8.352,17.925-9.166,32.387c0.204,3.259,2.037,6.11-0.407,10.388c0.814,2.647,4.073,7.943,5.703,11.202
			c1.629,3.26,2.444,6.926-8.352,7.13c-10.999,0.203-28.72-1.019-26.275-9.573c1.223-4.481,4.685-9.166,5.093-11
			c0.407-1.833,0.407-7.332,3.869-10.999c3.056-10.184,2.037-19.961,1.427-29.127C171.403,281.038,171.199,265.762,175.273,258.022z
			"/>
		<path fill="#010101" d="M194.216,92.017c14.462-19.351,2.24-34.83-20.979-30.146c-9.37,1.833-18.739,8.352-19.351,20.165
			c-3.055,0.407-9.98,0.814-13.443,13.443c-2.647,9.777-4.073,11.61-8.759,16.498c-3.055,3.463,0.204,10.592,2.444,15.685
			c7.537,17.517,30.757,19.146,46.441,32.386c5.296-1.426,10.795-7.332,12.425-11.202c-13.24-15.685-10.389-21.795-15.685-29.942
			C183.013,116.866,196.049,108.923,194.216,92.017z"/>
		<path fill="#F0EFEF" d="M191.364,90.795c0.814-1.223,2.24-3.87,2.852-4.889c0.204-0.204,2.444,3.666,2.648,3.463
			c5.499-8.963,6.925-21.999,0.61-23.221c-1.426-0.204-4.073-0.814-6.314-1.63c-4.073-1.426-7.739-1.426-14.258-0.203
			c-8.962,1.629-17.924,8.147-17.924,17.517c0,0.611,6.313,2.444,8.147,9.981c-3.056-4.278-8.352-8.963-14.666-4.889
			c-6.722,4.277-3.259,14.054-12.221,24.238c-3.056,3.463-2.648,7.537,0.61,15.684c5.296,12.833,30.35,19.758,43.997,31.979
			c3.259-1.426,5.499-4.685,7.129-7.129c-9.166-9.573-12.833-18.536-15.48-25.054c-3.259-7.536-6.926-11.813-14.055-17.518
			c3.667,1.426,6.519,2.852,8.147,4.074c1.833,1.222,4.481,1.426,6.926,0.611C186.272,110.756,190.957,98.534,191.364,90.795z"/>
		<path fill="#010101" d="M279.968,94.054c-0.611,7.74-6.314,3.87-9.369,2.444c-6.111-2.648-12.222-4.481-19.351-4.481
			c-7.129,0-16.295,0.611-24.238,2.648c-10.999,3.055-14.259,2.852-19.147,0.407c-4.888-2.648-13.442-9.166-13.442-9.166
			s-0.204,2.037,1.833,4.685c2.647,3.259,8.555,7.333,16.498,9.98c3.87,1.223,6.926,0.407,10.389-0.407
			c18.128-4.481,37.274-5.296,53.365,4.481c0.815,0.407,3.667-0.815,4.889-2.648C283.023,99.35,279.968,94.054,279.968,94.054z"/>
		<path fill="#0A1825" d="M187.291,171.658c1.629,1.019,3.666,1.63,5.906,3.463c0,0-1.833,0-2.647-0.814
			C189.531,173.696,187.494,171.863,187.291,171.658L187.291,171.658z"/>
		<path fill="#F0EFEF" d="M246.156,10.135c-0.611-1.833-5.093-5.093-15.48-5.093c-11.203,0-14.462,3.463-14.665,5.296
			c0,0.611-0.815,7.13-1.019,9.777c0,0,0,3.259,0.203,8.147c0.204,3.259,1.019,5.092,1.426,9.37c0.407,4.48,1.63,7.332,3.87,10.999
			c1.019,0.61,1.833,1.222,2.852,1.426c4.074,0.814,11.203,1.018,15.073,0c2.24-0.611,5.092-4.481,5.703-7.944
			c0.814-4.277,1.629-7.333,1.833-9.98c0.407-2.647,0.611-8.555,0.814-10.185C247.378,17.468,246.359,10.542,246.156,10.135z"/>
		<path fill="#010101" d="M224.769,261.892c0,0,10.796,4.685,37.479,0.611c0,0-7.536,37.886-4.073,56.828
			c0,0,3.462,4.889,29.127,14.258c0,0,11.406,2.852,10.999,8.556c0,0,0.407,1.222-13.443,0.814s-26.887-2.852-36.053-2.852
			c-9.166,0-18.943,0.407-20.572-2.24c-1.833-2.444,0.407-8.759,3.055-12.426c2.853-3.869,2.037-6.722,1.834-13.646
			C232.509,293.667,218.658,274.928,224.769,261.892z"/>
		<path fill="#8AC640" d="M222.528,265.355c-1.426,2.037,0.203,9.776,2.24,17.313c2.037,7.536,6.519,12.018,7.537,24.442
			c1.018,12.221,1.222,13.851-2.241,20.979s-4.481,13.647,7.536,13.851s18.536-0.204,30.757,1.63
			c12.222,1.833,16.499,2.444,23.221,1.426s8.147-3.26,5.296-5.296c-2.852-2.037-14.666-4.277-19.758-8.352
			c-4.889-3.666-18.739-9.777-18.942-11.406c-0.611-5.5-0.815-25.461,0.203-31.979c1.019-6.519,2.444-15.888,2.852-18.332
			s2.444-4.889-1.019-4.074c-3.462,0.814-16.498,2.648-26.275,2.037C224.158,266.984,223.14,264.743,222.528,265.355z"/>
		<path opacity="0.3" fill="#010101" enable-background="new    " d="M229.454,328.294c3.462,1.629,8.555,2.852,12.425,2.852
			c0,0-1.427,6.722,0.814,10.795c2.24,4.074-16.295,1.63-16.295,1.63l-0.814-14.462L229.454,328.294z"/>
		<path opacity="0.3" fill="#010101" enable-background="new    " d="M283.431,345.811c3.259-1.019,5.5-4.685,2.852-8.147
			c-2.852-3.463-5.296-4.074-1.63-4.277c3.667-0.204,17.11,7.943,17.11,7.943l-6.926,6.314L283.431,345.811z"/>
		<path opacity="0.3" fill="#010101" enable-background="new    " d="M221.917,273.298c4.685,1.63,11.814,2.037,17.925,1.833
			c6.11-0.203,15.276-1.019,21.184-3.055c5.906-2.037,3.462,2.24,3.462,2.24l-3.259,3.056c0,0-7.74,3.055-20.368,2.852
			c-14.869-0.204-19.351-1.833-19.351-1.833L221.917,273.298z"/>
		<path opacity="0.3" fill="#010101" enable-background="new    " d="M222.324,283.483c4.686,1.63,11.814,2.037,17.925,1.833
			c6.11-0.203,14.258-0.203,20.165-2.444c2.444-0.814,1.019,2.648,1.019,2.648l-1.019,1.833c0,0-7.944,2.852-20.369,2.647
			c-14.869-0.203-17.517-1.426-17.517-1.426L222.324,283.483z"/>
		<path fill="#010101" fill-opacity="0" d="M224.769,261.892c0,0,17.721,6.314,37.683,2.037c0,0-7.74,36.46-4.277,55.199
			c0,0,3.462,4.888,29.127,14.258c0,0,11.406,2.852,10.999,8.555c0,0,0.407,1.223-13.443,0.814
			c-13.851-0.407-26.887-2.852-36.053-2.852c-9.166,0-18.943,0.408-20.572-2.24c-1.833-2.444,0.407-8.759,3.055-12.425
			c2.853-3.87,2.037-6.722,1.834-13.647C232.509,293.667,218.658,274.928,224.769,261.892z"/>
		<path fill="#010101" fill-opacity="0" d="M224.769,261.892c0,0,17.721,6.11,37.683,1.833c0,0-7.74,36.664-4.277,55.403
			c0,0,3.462,4.888,29.127,14.258c0,0,11.406,2.852,10.999,8.555c0,0,0.407,1.223-13.443,0.814
			c-13.851-0.407-27.091-4.277-36.053-2.852c-9.573,1.63-18.943,1.019-20.572-2.24c-1.426-2.647,0.407-8.759,3.055-12.425
			c2.853-3.87,2.037-6.722,1.834-13.647C232.509,293.667,218.658,274.928,224.769,261.892z"/>
		<path fill="#010101" d="M208.881,140.699c0,1.426,15.888,9.369,24.646,10.999c8.759,1.629,27.091,0,29.942-0.611l-0.408,2.852
			c0,0-21.794,3.259-38.496-1.222c-16.703-4.481-14.869-5.5-14.869-5.5L208.881,140.699z"/>
		<g>
			<path fill="#F0EFEF" d="M174.865,314.443c2.444,1.223,11.203,3.463,16.906,2.241c0.814-0.204,0-14.055,2.241-20.369
				c3.259-8.759,8.555-15.888,10.998-31.367c-8.555-0.815-18.331-3.056-23.424-4.686
				C175.069,280.224,177.31,297.333,174.865,314.443z"/>
			<path fill="#F0EFEF" d="M188.513,327.276c1.426,0.407,2.444,2.036,2.852,1.019c0.814-1.834-1.426-5.296-1.63-7.74
				c0-0.204,0,0,0-0.204c-1.833-1.629-14.258-1.833-13.443-1.019c-1.426,2.648-3.666,2.241-4.48,7.537
				c-0.407,2.647,2.852,0.407,5.906,0.203c-5.499,3.666-11.813,8.352-12.832,12.425c-1.222,5.703,0.815,7.333,6.926,10.389
				c5.296,1.222,11.61,1.426,16.498,1.222c5.5-1.019,6.519-3.666,4.889-7.333C190.753,338.275,189.124,331.146,188.513,327.276z"/>
		</g>
		<path fill="#010101" d="M190.753,62.686c6.722,3.87,16.092,2.852,19.554,2.648c0.815,0,8.963-1.426,9.37-1.223
			c0.814,0.204,0.814,0.815,0.814,0.815s-3.055,1.629-9.98,2.036c-6.518,0.407-14.258,0-18.535-2.036
			C186.883,62.686,190.753,62.686,190.753,62.686z"/>
		<path fill="#010101" d="M260.007,66.556c1.222,0.814,9.166,3.87,12.629,7.536c3.055,3.26,1.426,3.056,0.814,2.241
			c-0.814-1.019-7.129-5.296-9.573-6.314s-5.5-2.852-5.5-3.259S260.007,66.556,260.007,66.556z"/>
		<path fill="#F0EFEF" d="M189.734,151.086c5.907-0.407,12.018,1.019,15.888,5.092c2.037,2.037,5.296,4.277,4.889,6.314
			c0,0.611-1.223,2.241-2.24,3.463c-0.611,0.814-2.444,2.647-3.056,3.259c-0.814,0.611-3.666,2.852-4.277,3.259
			c-0.611,0.408-1.426,1.427-2.037,1.63c-2.036,1.019-4.277,0.204-6.314-0.814c-2.036-1.019,0.408-1.223-1.833-2.852
			c-5.499-3.87-8.555-6.519-6.314-14.055C184.643,154.956,186.883,153.326,189.734,151.086z"/>
	</g>
	<path opacity="0.4" fill="#010101" enable-background="new    " d="M137.795,104.442c-18.332,7.333-64.977,30.554-78.216,37.683
		l0,0c10.999,6.925,16.091,23.627,17.721,40.533c0.203,1.63,0.407,3.056,0.611,4.685c0.203,1.426,0.407,2.444,0.61,3.056
		c0,0.204,0,0.611,0.204,0.814c12.018-32.793,54.995-67.42,56.625-70.068c0.814-1.222-1.019-6.518,1.833-11.609
		C140.85,103.016,147.98,100.164,137.795,104.442z"/>
	<path opacity="0.4" fill="#010101" enable-background="new    " d="M181.384,258.226c9.369-18.739,9.573-36.664,9.369-57.644
		c0-8.759,6.314-21.184,3.056-17.721c-12.222,13.646-42.978,39.312-65.18,40.737C159.793,222.58,172.014,238.264,181.384,258.226z"
		/>
	<path fill="#010101" d="M41.654,159.437c11.61-8.351,71.698-40.329,86.16-44.811c14.461-4.685,9.98-10.185,9.98-10.185
		s-58.662,25.257-93.696,47.052"/>
	<path opacity="0.4" fill="#010101" enable-background="new    " d="M212.751,100.572c-4.685-1.833-8.351,3.667-7.129,8.963
		c1.223,5.296,12.222,11.202,11.61,30.553c-0.407,15.888-3.87,22.405-3.87,22.405l-7.74-9.776c0,0-1.222-21.999-3.87-25.258
		c-2.647-3.259-10.999-9.166-14.258-12.221c-3.259-3.056,3.666-7.129,3.259-12.833c-0.407-5.499,3.463-16.498,3.463-16.498
		L212.751,100.572z"/>
	<path opacity="0.4" fill="#010101" enable-background="new    " d="M241.064,187.342c-0.407,15.276,3.056,37.886,4.481,48.682
		c1.426,10.795,3.259,11.61,0,16.499c-3.259,4.685-7.536,12.425-7.536,12.425l-14.055-1.223c0,0,11.203-14.258,11.813-16.906
		c0.611-2.647-5.703-22.812-5.703-22.812L241.064,187.342z"/>
	<path opacity="0.4" fill="#010101" enable-background="new    " d="M213.974,44.762c2.852,6.313,6.314,9.165,11.813,10.999
		c3.259,1.222,16.091,2.852,21.184-2.852c2.24-2.648,0.814-9.777,0.814-9.777l-11.61,9.369l-15.684-2.851l-1.833-4.685
		L213.974,44.762z"/>
	<path fill="#8AC640" stroke="#010101" stroke-width="1.586" stroke-linejoin="round" stroke-miterlimit="10" d="M215.195,58.816
		c5.296,3.463,18.536,6.722,22.202,7.333c3.666,0.814,9.573-3.87,12.425-5.092c3.056-1.426,8.352-2.241,14.462,3.259
		c0.611,0.611-1.426,3.259-1.426,3.259c-0.204-0.204-1.426-0.204-3.056-1.019c-1.629-0.814-3.055-1.426-5.499-1.222
		c-10.185,1.222-11.814,4.685-20.776,2.647s-11.203-3.666-19.961-3.259"/>
	<path fill="#8AC640" d="M213.362,59.427c6.722,2.852,19.758,5.907,23.424,6.722s9.573-2.852,12.425-4.685
		c5.093-3.259,11.61-0.611,14.666,2.852c2.036,2.24,2.852,3.666,2.852,4.277c0,0.814-2.444,0-2.444,0
		c-1.426-0.611-3.056-0.814-4.277-1.63c-1.63-0.814-3.26-2.036-5.703-1.833c-10.185,1.223-12.222,4.685-20.98,2.648
		s-10.999-3.87-20.368-3.26"/>
	<path fill="#010101" d="M181.791,249.67c-0.407-0.407,0.407-0.814,0-0.814c-2.647,0-6.314-2.037-8.352-4.889
		c-8.758-12.628-21.591-20.979-44.811-20.368c-34.831,0.814-48.682-13.443-51.329-40.737c-1.426-14.869-5.5-29.331-13.851-37.479
		l-4.889,3.056c9.369,8.147,12.425,21.387,14.462,39.515c3.259,27.294,25.257,39.923,50.922,40.33
		c26.683,0.407,36.256,5.907,46.236,19.351c3.259,4.277,6.926,5.703,9.777,6.314L181.791,249.67z"/>
	<path opacity="0.4" fill="#010101" enable-background="new    " d="M276.302,118.7c0.611,3.055,2.24,8.962,5.499,11.813
		c1.427,1.426,1.63,1.833,0.408,1.833c-1.223,0-10.185-0.407-10.185-0.407l-2.444-4.277L276.302,118.7z"/>
</g>
</svg>
