<?xml version="1.0" encoding="utf-8"?>
<!-- Generator: Adobe Illustrator 24.3.0, SVG Export Plug-In . SVG Version: 6.00 Build 0)  -->
<svg version="1.1" id="Layer_1" xmlns="http://www.w3.org/2000/svg" xmlns:xlink="http://www.w3.org/1999/xlink" x="0px" y="0px"
	 viewBox="0 0 213.5 50.2" style="enable-background:new 0 0 213.5 50.2;" xml:space="preserve">
<polygon points="34.2,5.2 24.9,5.2 17.4,18.8 9.9,5.2 0.5,5.2 11.7,24.9 0,45 9.4,45 17.4,31 24.9,45 34.7,45 22.5,24.9 "/>
<path d="M46.9,38.5c-0.5-0.5-0.5-1.4-0.5-2.3v-15h5.2v-5.6h-5.2V8h-8v7.5h-4.2v5.6h4.2v16c0,5.6,2.8,8.4,8.4,8.4
	c1.9,0,3.3-0.5,4.7-0.9V39c-0.5,0-1.4,0-2.3,0C48.3,38.9,47.4,38.9,46.9,38.5z"/>
<path d="M67.1,14.6c-2.8,0-5.2,0.5-7,1.9c-1.9,1.4-3.8,3.3-4.7,5.6s-1.9,5.2-1.9,8V31c0,4.2,1.4,8,4.2,10.8S63.8,46,68.5,46
	c2.3,0,4.7-0.5,6.6-1.4s3.8-2.3,4.7-3.8L76,35.7C74.1,38,71.8,39,69,39c-1.9,0-3.8-0.5-4.7-1.9c-0.9-1.4-1.9-2.8-2.3-4.7h18.8v-2.8
	c0-4.7-0.9-8.4-3.3-10.8S71.3,14.6,67.1,14.6z M72.7,27.2H61.5c0.5-1.9,0.9-3.3,1.9-4.7c0.9-1.4,2.3-1.4,3.8-1.4
	c1.9,0,2.8,0.5,3.8,1.4C71.8,23.5,72.2,24.9,72.7,27.2L72.7,27.2L72.7,27.2z"/>
<path d="M99.5,14.6c-3.8,0-6.6,1.4-8.4,3.8L90.5,15H83v30h8V23.9c0.9-1.9,2.8-2.8,5.2-2.8c1.9,0,2.8,0.5,3.8,0.9
	c0.9,0.5,0.9,1.9,0.9,3.8V45h8V25.8c0-3.8-0.9-6.6-2.3-8.4C105.1,15.5,102.7,14.6,99.5,14.6z"/>
<path d="M131.4,17.8c-1.9-2.3-4.2-3.3-7-3.3c-3.8,0-6.6,1.4-8.4,4.2s-3.3,6.6-3.3,11.3s0.9,8.9,3.3,11.7s5.2,4.2,8.4,4.2
	c3.3,0,5.6-1.4,7.5-3.8V45h7V2.8h-7.5V17.8z M131.4,36.1c-0.9,1.9-2.8,3.3-5.2,3.3c-1.9,0-3.3-0.9-4.2-2.3c-0.9-1.4-1.4-3.8-1.4-6.6
	c0-6.1,1.9-9.4,5.6-9.4c2.3,0,4.2,0.9,5.2,3.3C131.4,24.4,131.4,36.1,131.4,36.1z"/>
<path d="M182.9,31.3c0,3.4-2,5.9-5.4,5.9c-2,0-2.9-0.5-3.9-1.5s-1.5-2.5-1.5-4.4V11.2h-6.4v20.2c0,3.4,1,5.9,3.4,7.9
	c2,2,4.9,2.9,8.4,2.9c3.4,0,6.4-1,8.4-2.9c2-2,3.4-4.4,3.4-7.9V11.2h-6.4V31.3z"/>
<rect x="193.7" y="11.2" width="6.4" height="30.5"/>
<polygon points="152.1,50.2 163,50.2 163,44.8 159.1,44.8 159.1,5.5 163,5.5 163,0 152.1,0 "/>
<polygon points="203.1,0 203.1,5.5 206.4,5.5 206.4,44.8 203.1,44.8 203.1,50.2 213.5,50.2 213.5,0 "/>
</svg>
