<?xml version="1.0" encoding="utf-8"?>
<!-- Generator: Adobe Illustrator 25.4.1, SVG Export Plug-In . SVG Version: 6.00 Build 0)  -->
<svg version="1.1" id="Layer_1_copy" xmlns="http://www.w3.org/2000/svg" xmlns:xlink="http://www.w3.org/1999/xlink" x="0px"
	 y="0px" viewBox="0 0 105.2 25.1" style="enable-background:new 0 0 105.2 25.1;" xml:space="preserve">
<style type="text/css">
	.st0{opacity:0.5;fill:#FFFFFF;enable-background:new    ;}
	.st1{fill:#FFFFFF;}
</style>
<polygon class="st0" points="74.6,25.1 80,25.1 80,22.4 78.1,22.4 78.1,2.8 80,2.8 80,0 74.6,0 "/>
<polygon class="st0" points="100.1,0 100.1,2.8 101.7,2.8 101.7,22.4 100.1,22.4 100.1,25.1 105.2,25.1 105.2,0 "/>
<g>
	<polygon class="st1" points="17.8,2.6 12.6,2.6 9.1,8.7 8.9,8.7 5.4,2.6 0.2,2.6 5.9,12.2 0,21.9 5.3,21.9 8.9,15.7 9.1,15.7 
		12.6,21.9 18,21.9 12,12.2 	"/>
	<path class="st1" d="M24,18.4c-0.2,0-0.4,0-0.5,0c-0.2,0-0.5,0-0.6-0.1c-0.2,0-0.3-0.2-0.4-0.4s-0.1-0.4-0.1-0.7v-6.5h2.6V7.4h-2.6
		V4h-4.6v3.5h-1.9v3.4h1.9v7c0,1,0.2,1.8,0.6,2.5c0.4,0.6,1,1.1,1.8,1.4s1.7,0.5,2.8,0.4c0.5,0,1-0.1,1.4-0.2c0.4-0.1,0.7-0.1,1-0.2
		l-0.7-3.3C24.4,18.4,24.2,18.4,24,18.4z"/>
	<path class="st1" d="M36.8,9.1c-0.6-0.6-1.3-1.1-2.2-1.4c-0.8-0.3-1.8-0.5-2.8-0.5c-1.5,0-2.7,0.3-3.8,1s-1.9,1.5-2.5,2.6
		s-0.9,2.4-0.9,3.9c0,1.5,0.3,2.9,0.9,4s1.5,2,2.5,2.5s2.4,0.9,3.9,0.9c1.2,0,2.4-0.2,3.4-0.6c1-0.4,1.8-1,2.3-1.6s1-1.5,1.2-2.5
		l-4.2-0.1c-0.1,0.3-0.3,0.6-0.5,0.8c-0.2,0.2-0.5,0.4-0.8,0.5s-0.7,0.1-1.1,0.1c-0.6,0-1.1-0.1-1.5-0.4c-0.5-0.2-0.8-0.6-1-1
		c-0.2-0.5-0.4-1-0.4-1.6v-0.1h9.6v-1.1c0-1.2-0.2-2.2-0.5-3.1C37.8,10.5,37.4,9.8,36.8,9.1z M29.1,13.1c0-0.4,0.1-0.9,0.4-1.2
		c0.2-0.4,0.5-0.7,1-0.9s0.9-0.4,1.4-0.4c0.5,0,0.9,0.1,1.4,0.3s0.7,0.5,1,0.9s0.3,0.8,0.3,1.3L29.1,13.1L29.1,13.1z"/>
	<path class="st1" d="M50.7,7.9C49.9,7.5,49,7.2,48,7.2c-1,0-2,0.2-2.8,0.8s-1.3,1.2-1.7,2.1h-0.2V7.4h-4.3v14.5h4.6v-8.2
		c0-0.6,0.1-1,0.3-1.4s0.5-0.7,0.8-0.9s0.8-0.3,1.2-0.3c0.8,0,1.3,0.2,1.7,0.7s0.6,1.1,0.6,1.9v8.3H53v-9.3c0-1.1-0.2-2.1-0.6-2.9
		C52,9,51.4,8.4,50.7,7.9z"/>
	<path class="st1" d="M63.3,9.9L63.3,9.9C63,9.4,62.8,9,62.5,8.6s-0.8-0.8-1.3-1s-1.2-0.4-2-0.4c-1,0-2,0.2-2.8,0.8
		s-1.6,1.4-2.1,2.4s-0.8,2.5-0.8,4.2c0,1.6,0.2,3,0.8,4.1c0.5,1.1,1.2,2,2.1,2.5c0.8,0.5,1.8,0.9,2.9,0.9c0.8,0,1.3-0.1,1.9-0.4
		c0.5-0.2,1-0.5,1.3-1c0.3-0.4,0.7-0.8,0.8-1.2h0.2v2.4h4.5V2.6h-4.6v7.3H63.3z M63.1,16.6c-0.2,0.6-0.5,1-0.9,1.4
		c-0.4,0.3-0.8,0.5-1.5,0.5c-0.5,0-1-0.1-1.5-0.5c-0.4-0.3-0.7-0.8-0.9-1.4s-0.3-1.2-0.3-2.1s0.1-1.4,0.3-2s0.5-1,0.9-1.4
		c0.4-0.3,0.9-0.4,1.5-0.4s1,0.1,1.5,0.4s0.7,0.8,0.9,1.3s0.3,1.2,0.3,2.1C63.5,15.4,63.3,16.1,63.1,16.6z"/>
	<path class="st1" d="M90.4,15.1c0,0.6-0.1,1-0.3,1.4s-0.6,0.8-1,1c-0.4,0.2-0.9,0.4-1.4,0.4c-0.6,0-1.1-0.1-1.4-0.4
		c-0.4-0.2-0.8-0.5-1-1c-0.2-0.4-0.3-0.9-0.3-1.4V5.6h-3.7v9.9c0,1.2,0.2,2.2,0.8,3s1.3,1.5,2.2,2s2.1,0.7,3.4,0.7s2.4-0.2,3.4-0.7
		s1.8-1.1,2.3-2s0.8-1.9,0.8-3V5.6h-3.7L90.4,15.1L90.4,15.1z"/>
	<rect x="94.8" y="5.6" class="st1" width="3.7" height="15.4"/>
</g>
</svg>
