<svg id="Layer_1_copy" data-name="Layer 1 copy" xmlns="http://www.w3.org/2000/svg" viewBox="0 0 30.61 9.12"><defs><style>.cls-1{fill:#fff;}</style></defs><title>logo-white</title><path class="cls-1" d="M3.69,3.41,5.29.47h2L4.82,4.7,7.37,9h-2L3.69,6,2,9H0L2.55,4.7.06.47h2Z"/><path class="cls-1" d="M9.9,1.1V2.66H11V3.9H9.9V7.07a.75.75,0,0,0,.13.5.7.7,0,0,0,.52.15,2.53,2.53,0,0,0,.5,0V9a3.26,3.26,0,0,1-1,.16,1.61,1.61,0,0,1-1.81-1.8V3.9H7.28V2.66h.93V1.1Z"/><path class="cls-1" d="M14.73,9.12a3.12,3.12,0,0,1-2.27-.86A3.05,3.05,0,0,1,11.59,6V5.82A3.77,3.77,0,0,1,12,4.11,2.67,2.67,0,0,1,13,3a3,3,0,0,1,1.55-.41,2.64,2.64,0,0,1,2,.82,3.35,3.35,0,0,1,.75,2.33v.69h-4a1.6,1.6,0,0,0,.5,1,1.47,1.47,0,0,0,1,.37A1.79,1.79,0,0,0,16.37,7l.84.93a2.66,2.66,0,0,1-1,.85A3.37,3.37,0,0,1,14.73,9.12Zm-.19-5.21a1.05,1.05,0,0,0-.82.34,1.77,1.77,0,0,0-.4,1h2.36V5.09a1.22,1.22,0,0,0-.31-.87A1.06,1.06,0,0,0,14.54,3.91Z"/><path class="cls-1" d="M20,2.66l.05.73a2.24,2.24,0,0,1,1.82-.85,1.83,1.83,0,0,1,1.5.59,2.79,2.79,0,0,1,.51,1.77V9H22.15V5a1.11,1.11,0,0,0-.24-.79,1.06,1.06,0,0,0-.78-.24,1.16,1.16,0,0,0-1.07.61V9H18.37V2.66Z"/><path class="cls-1" d="M24.9,5.78a3.84,3.84,0,0,1,.66-2.36,2.17,2.17,0,0,1,1.82-.88,1.94,1.94,0,0,1,1.53.69V0h1.7V9H29.08L29,8.33a2,2,0,0,1-1.63.79,2.17,2.17,0,0,1-1.8-.88A4,4,0,0,1,24.9,5.78Zm1.69.13a2.5,2.5,0,0,0,.31,1.37,1,1,0,0,0,.9.47,1.14,1.14,0,0,0,1.11-.66V4.58a1.12,1.12,0,0,0-1.1-.66C27,3.92,26.59,4.58,26.59,5.91Z"/></svg>