<svg id="Layer_1_copy" data-name="Layer 1 copy" xmlns="http://www.w3.org/2000/svg" viewBox="0 0 22.01 15.35"><defs><style>.cls-1{fill:#373a44;}.cls-2{fill:#969bad;}</style></defs><title>icon-black</title><polyline class="cls-1" points="15.6 0 22.01 0 22.01 2.86 17.41 2.86 17.41 15.35 15.6 15.35"/><polyline class="cls-1" points="6.84 10.15 4.26 15.35 0 15.35 4.4 7.61 0.12 0 4.33 0 6.84 5.1"/><polygon class="cls-2" points="13.58 0 11.97 2.86 13.71 2.86 13.71 15.35 15.6 15.35 15.6 0 13.58 0"/><polygon class="cls-2" points="9.35 0 9.18 0.34 6.84 5.1 6.84 10.15 9.43 15.35 13.7 15.35 9.29 7.61 11.97 2.86 13.58 0 9.35 0"/></svg>